<?xml version="1.0" encoding="utf-8"?>
<!-- Generator: Adobe Illustrator 27.5.0, SVG Export Plug-In . SVG Version: 6.00 Build 0)  -->
<svg version="1.1" id="Layer_1" xmlns="http://www.w3.org/2000/svg" xmlns:xlink="http://www.w3.org/1999/xlink" x="0px" y="0px"
	 viewBox="0 0 297.858 410.646" style="enable-background:new 0 0 297.858 410.646;" xml:space="preserve">
<g>
	<g>
		<g>
			<g>
				<g>
					<g>
						
							<rect x="5.228" y="213.031" transform="matrix(0.4267 -0.9044 0.9044 0.4267 -177.7037 146.0482)" style="fill:#231F20;" width="42.247" height="0.332"/>
						
							<rect x="45.491" y="192.073" transform="matrix(0.9028 -0.4301 0.4301 0.9028 -87.2589 40.3653)" style="fill:#231F20;" width="0.332" height="42.247"/>
					</g>
					<g>
						<rect x="4.648" y="229.592" style="fill:#999B9E;" width="63.849" height="6.185"/>
						<rect x="4.648" y="229.592" style="fill:#999B9E;" width="63.849" height="1.894"/>
						<rect x="4.648" y="234.104" style="fill:#D5D7D8;" width="63.849" height="1.673"/>
						<rect x="4.648" y="228.756" style="fill:#D5D7D8;" width="63.849" height="1.673"/>
					</g>
					<rect x="18.615" y="228.239" style="fill:#231F20;" width="0.333" height="7.537"/>
					<rect x="53.189" y="228.239" style="fill:#231F20;" width="0.333" height="7.537"/>
				</g>
			</g>
			<g>
				<g>
					<g>
						<rect x="9.303" y="225.098" style="fill:#999B9E;" width="63.848" height="3.942"/>
						<rect x="9.303" y="225.098" style="fill:#999B9E;" width="63.848" height="1.207"/>
						<rect x="9.303" y="227.974" style="fill:#D5D7D8;" width="63.848" height="1.066"/>
						<rect x="9.303" y="224.564" style="fill:#D5D7D8;" width="63.848" height="1.066"/>
					</g>
					<rect x="23.269" y="224.234" style="fill:#231F20;" width="0.332" height="4.806"/>
					<rect x="57.843" y="224.234" style="fill:#231F20;" width="0.333" height="4.806"/>
				</g>
			</g>
			<g>
				<g>
					<g>
						<rect x="4.467" y="221.588" style="fill:#999B9E;" width="63.849" height="3.943"/>
						<rect x="4.467" y="221.588" style="fill:#999B9E;" width="63.849" height="1.206"/>
						<rect x="4.467" y="224.464" style="fill:#D5D7D8;" width="63.849" height="1.067"/>
						<rect x="4.467" y="221.052" style="fill:#D5D7D8;" width="63.849" height="1.067"/>
					</g>
					<rect x="18.434" y="220.724" style="fill:#231F20;" width="0.333" height="4.808"/>
					<rect x="53.009" y="220.724" style="fill:#231F20;" width="0.333" height="4.808"/>
				</g>
			</g>
		</g>
		<polygon style="fill:#231F20;" points="36.724,193.281 36.06,193.281 32.629,84.476 33.293,84.455 36.392,182.739 39.49,84.837 
			40.154,84.857 		"/>
		<g>
			<rect x="35.034" y="190.113" style="fill:#53360E;" width="2.715" height="2.051"/>
			<rect x="33.857" y="191.388" style="fill:#633F02;" width="5.43" height="4.019"/>
		</g>
		<path style="fill:#999B9E;" d="M37.618,193.396c0,0.677-0.549,1.226-1.227,1.226l0,0c-0.677,0-1.225-0.549-1.225-1.226l0,0
			c0-0.677,0.548-1.226,1.225-1.226l0,0C37.068,192.171,37.618,192.72,37.618,193.396L37.618,193.396z"/>
	</g>
	<g>
		<rect x="278.914" y="96.255" style="fill:#231F20;" width="12.036" height="12.202"/>
	</g>
	<g>
		<rect x="276.4" y="85.184" style="fill:#4F4F51;" width="16.289" height="15.313"/>
		<rect x="277.649" y="86.093" style="fill:#222224;" width="13.748" height="13.58"/>
	</g>
	<g>
		<g>
			<g>
				<g>
					<g>
						<rect x="223.38" y="379.479" style="fill:#BE892D;" width="1.371" height="5.075"/>
						<rect x="228.699" y="379.479" style="fill:#BE892D;" width="1.371" height="5.075"/>
					</g>
					<g>
						<rect x="223.38" y="359.99" style="fill:#BE892D;" width="1.371" height="5.076"/>
						<rect x="228.699" y="359.99" style="fill:#BE892D;" width="1.371" height="5.076"/>
					</g>
				</g>
				<g>
					<g>
						<polygon style="fill:#AA7A26;" points="232.784,379.643 220.234,365.229 221.099,364.901 233.648,379.315 						"/>
					</g>
					<rect x="219.085" y="378.897" style="fill:#BE892D;" width="16.206" height="1.167"/>
					<rect x="219.085" y="364.483" style="fill:#BE892D;" width="16.206" height="1.167"/>
					<rect x="219.085" y="383.97" style="fill:#BE892D;" width="16.206" height="1.168"/>
				</g>
				<g>
					<g>
						<polygon style="fill:#AA7A26;" points="221.094,359.99 220.238,359.654 233.287,345.24 234.143,345.578 						"/>
					</g>
					<rect x="219.085" y="359.238" style="fill:#BE892D;" width="16.206" height="1.169"/>
					<rect x="219.085" y="344.825" style="fill:#BE892D;" width="16.206" height="1.169"/>
				</g>
			</g>
			<g>
				<g>
					<g>
						<rect x="223.38" y="340.336" style="fill:#BE892D;" width="1.371" height="5.074"/>
						<rect x="228.699" y="340.336" style="fill:#BE892D;" width="1.371" height="5.074"/>
					</g>
					<g>
						<rect x="223.38" y="320.846" style="fill:#BE892D;" width="1.371" height="5.073"/>
						<rect x="228.699" y="320.846" style="fill:#BE892D;" width="1.371" height="5.073"/>
					</g>
				</g>
				<g>
					<g>
						<polygon style="fill:#AA7A26;" points="232.784,340.498 220.234,326.085 221.099,325.756 233.648,340.171 						"/>
					</g>
					<rect x="219.085" y="339.75" style="fill:#BE892D;" width="16.206" height="1.168"/>
					<rect x="219.085" y="325.336" style="fill:#BE892D;" width="16.206" height="1.169"/>
				</g>
				<g>
					<g>
						<polygon style="fill:#AA7A26;" points="221.094,320.846 220.238,320.51 233.287,306.095 234.143,306.432 						"/>
					</g>
					<rect x="219.085" y="320.093" style="fill:#BE892D;" width="16.206" height="1.17"/>
					<rect x="219.085" y="305.68" style="fill:#BE892D;" width="16.206" height="1.168"/>
				</g>
			</g>
			<g>
				<g>
					<g>
						<rect x="223.38" y="301.417" style="fill:#BE892D;" width="1.371" height="5.075"/>
						<rect x="228.699" y="301.417" style="fill:#BE892D;" width="1.371" height="5.075"/>
					</g>
					<g>
						<rect x="223.38" y="281.929" style="fill:#BE892D;" width="1.371" height="5.076"/>
						<rect x="228.699" y="281.929" style="fill:#BE892D;" width="1.371" height="5.076"/>
					</g>
				</g>
				<g>
					<g>
						<polygon style="fill:#AA7A26;" points="232.784,301.581 220.234,287.168 221.099,286.839 233.648,301.253 						"/>
					</g>
					<rect x="219.085" y="300.834" style="fill:#BE892D;" width="16.206" height="1.167"/>
					<rect x="219.085" y="286.42" style="fill:#BE892D;" width="16.206" height="1.167"/>
				</g>
				<g>
					<g>
						<polygon style="fill:#AA7A26;" points="221.094,281.929 220.238,281.592 233.287,267.178 234.143,267.516 						"/>
					</g>
					<rect x="219.085" y="281.176" style="fill:#BE892D;" width="16.206" height="1.168"/>
					<rect x="219.085" y="266.764" style="fill:#BE892D;" width="16.206" height="1.168"/>
				</g>
			</g>
			<g>
				<g>
					<g>
						<rect x="223.38" y="262.272" style="fill:#BE892D;" width="1.371" height="5.073"/>
						<rect x="228.699" y="262.272" style="fill:#BE892D;" width="1.371" height="5.073"/>
					</g>
					<g>
						<rect x="223.38" y="242.783" style="fill:#BE892D;" width="1.371" height="5.075"/>
						<rect x="228.699" y="242.783" style="fill:#BE892D;" width="1.371" height="5.075"/>
					</g>
				</g>
				<g>
					<g>
						<polygon style="fill:#AA7A26;" points="232.784,262.437 220.234,248.021 221.099,247.694 233.648,262.108 						"/>
					</g>
					<rect x="219.085" y="261.689" style="fill:#BE892D;" width="16.206" height="1.168"/>
					<rect x="219.085" y="247.273" style="fill:#BE892D;" width="16.206" height="1.169"/>
				</g>
				<g>
					<g>
						<polygon style="fill:#AA7A26;" points="221.094,242.783 220.238,242.446 233.287,228.032 234.143,228.371 						"/>
					</g>
					<rect x="219.085" y="242.031" style="fill:#BE892D;" width="16.206" height="1.168"/>
					<rect x="219.085" y="227.618" style="fill:#BE892D;" width="16.206" height="1.167"/>
				</g>
			</g>
			<g>
				<g>
					<g>
						<rect x="223.38" y="223.127" style="fill:#BE892D;" width="1.371" height="5.074"/>
						<rect x="228.699" y="223.127" style="fill:#BE892D;" width="1.371" height="5.074"/>
					</g>
					<g>
						<rect x="223.38" y="203.639" style="fill:#BE892D;" width="1.371" height="5.074"/>
						<rect x="228.699" y="203.639" style="fill:#BE892D;" width="1.371" height="5.074"/>
					</g>
				</g>
				<g>
					<g>
						<polygon style="fill:#AA7A26;" points="232.784,223.291 220.234,208.877 221.099,208.549 233.648,222.963 						"/>
					</g>
					<rect x="219.085" y="222.543" style="fill:#BE892D;" width="16.206" height="1.168"/>
					<rect x="219.085" y="208.129" style="fill:#BE892D;" width="16.206" height="1.169"/>
				</g>
				<g>
					<g>
						<polygon style="fill:#AA7A26;" points="221.094,203.639 220.238,203.302 233.287,188.888 234.143,189.225 						"/>
					</g>
					<rect x="219.085" y="202.887" style="fill:#BE892D;" width="16.206" height="1.168"/>
					<rect x="219.085" y="188.471" style="fill:#BE892D;" width="16.206" height="1.169"/>
				</g>
			</g>
			<g>
				<g>
					<g>
						<rect x="223.38" y="183.982" style="fill:#BE892D;" width="1.371" height="5.075"/>
						<rect x="228.699" y="183.982" style="fill:#BE892D;" width="1.371" height="5.075"/>
					</g>
					<g>
						<rect x="223.38" y="164.494" style="fill:#BE892D;" width="1.371" height="5.074"/>
						<rect x="228.699" y="164.494" style="fill:#BE892D;" width="1.371" height="5.074"/>
					</g>
				</g>
				<g>
					<g>
						<polygon style="fill:#AA7A26;" points="232.784,184.145 220.234,169.732 221.099,169.404 233.648,183.818 						"/>
					</g>
					<rect x="219.085" y="183.398" style="fill:#BE892D;" width="16.206" height="1.168"/>
					<rect x="219.085" y="168.983" style="fill:#BE892D;" width="16.206" height="1.168"/>
				</g>
				<g>
					<g>
						<polygon style="fill:#AA7A26;" points="221.094,164.494 220.238,164.156 233.287,149.742 234.143,150.08 						"/>
					</g>
					<rect x="219.085" y="163.741" style="fill:#BE892D;" width="16.206" height="1.168"/>
					<rect x="219.085" y="149.328" style="fill:#BE892D;" width="16.206" height="1.167"/>
				</g>
			</g>
			<g>
				<g>
					<g>
						<rect x="223.38" y="145.064" style="fill:#BE892D;" width="1.371" height="5.075"/>
						<rect x="228.699" y="145.064" style="fill:#BE892D;" width="1.371" height="5.075"/>
					</g>
					<g>
						<rect x="223.38" y="125.577" style="fill:#BE892D;" width="1.371" height="5.073"/>
						<rect x="228.699" y="125.577" style="fill:#BE892D;" width="1.371" height="5.073"/>
					</g>
				</g>
				<g>
					<g>
						<polygon style="fill:#AA7A26;" points="232.784,145.229 220.234,130.814 221.099,130.487 233.648,144.9 						"/>
					</g>
					<rect x="219.085" y="144.48" style="fill:#BE892D;" width="16.206" height="1.168"/>
					<rect x="219.085" y="130.067" style="fill:#BE892D;" width="16.206" height="1.167"/>
				</g>
				<g>
					<g>
						<polygon style="fill:#AA7A26;" points="221.094,125.577 220.238,125.239 233.287,110.825 234.143,111.163 						"/>
					</g>
					<rect x="219.085" y="124.824" style="fill:#BE892D;" width="16.206" height="1.169"/>
					<rect x="219.085" y="110.41" style="fill:#BE892D;" width="16.206" height="1.168"/>
				</g>
			</g>
			<g>
				<g>
					<g>
						<rect x="223.38" y="105.92" style="fill:#BE892D;" width="1.371" height="5.075"/>
						<rect x="228.699" y="105.92" style="fill:#BE892D;" width="1.371" height="5.075"/>
					</g>
					<g>
						<rect x="223.38" y="86.432" style="fill:#BE892D;" width="1.371" height="5.073"/>
						<rect x="228.699" y="86.432" style="fill:#BE892D;" width="1.371" height="5.073"/>
					</g>
				</g>
				<g>
					<g>
						<polygon style="fill:#AA7A26;" points="232.784,106.084 220.234,91.669 221.099,91.342 233.648,105.756 						"/>
					</g>
					<rect x="219.085" y="105.335" style="fill:#BE892D;" width="16.206" height="1.169"/>
					<rect x="219.085" y="90.922" style="fill:#BE892D;" width="16.206" height="1.168"/>
				</g>
				<g>
					<rect x="219.085" y="85.678" style="fill:#BE892D;" width="16.206" height="1.169"/>
				</g>
			</g>
			<rect x="217.59" y="83.287" style="fill:#DFAF36;" width="3.325" height="310.74"/>
			<rect x="232.882" y="83.287" style="fill:#DFAF36;" width="3.325" height="310.74"/>
			<rect x="214.807" y="80.179" style="fill:#B38E28;" width="23.37" height="6.216"/>
			<rect x="214.807" y="83.868" style="fill:#B38E28;" width="23.37" height="2.526"/>
		</g>
		<g>
			<rect x="204.513" y="85.678" style="fill:#B38E28;" width="40.171" height="8.082"/>
			<rect x="204.513" y="85.678" style="fill:#5D4B0A;" width="40.171" height="4.041"/>
			<g>
				
					<rect x="29.314" y="44.139" transform="matrix(0.9379 -0.3469 0.3469 0.9379 -7.4739 48.1942)" style="fill:#5A5B5D;" width="203.087" height="1.662"/>
				<polygon style="fill:#5A5B5D;" points="291.952,80.748 226.585,10.929 159.206,72.566 158.083,71.34 226.675,8.593 
					293.165,79.612 				"/>
				<g>
					
						<rect x="231.873" y="77.973" transform="matrix(0.5656 -0.8247 0.8247 0.5656 39.575 231.7351)" style="fill:#DC9134;" width="15.731" height="0.665"/>
					
						<rect x="238.377" y="67.669" transform="matrix(0.8537 -0.5208 0.5208 0.8537 -5.3707 135.6556)" style="fill:#DC9134;" width="0.665" height="19.432"/>
				</g>
				<path style="fill:#DC9134;" d="M293.39,86.509H34.783v-7.106l0.775-0.053l172.326-11.522l25.924,0.018l59.582,11.651V86.509z
					 M36.445,84.849h255.282v-3.986L233.568,69.49h-25.63L36.445,80.956V84.849z"/>
				<g>
					<path style="fill:#B38E28;" d="M235.291,83.952c-0.333,0-0.62-0.25-0.659-0.59l-8.191-70.756l-8.19,70.756
						c-0.042,0.366-0.374,0.627-0.736,0.586c-0.365-0.043-0.627-0.373-0.585-0.737l8.852-76.464c0.038-0.335,0.322-0.588,0.66-0.588
						c0.338,0,0.622,0.253,0.661,0.588l8.851,76.464c0.042,0.364-0.219,0.694-0.584,0.737
						C235.343,83.951,235.317,83.952,235.291,83.952z"/>
					<path style="fill:#B38E28;" d="M233.481,68.306h-14.08c-0.367,0-0.665-0.299-0.665-0.664c0-0.366,0.298-0.667,0.665-0.667
						h14.08c0.367,0,0.664,0.301,0.664,0.667C234.145,68.007,233.848,68.306,233.481,68.306z"/>
					<path style="fill:#B38E28;" d="M231.601,51.537h-9.941c-0.367,0-0.665-0.298-0.665-0.664c0-0.367,0.298-0.665,0.665-0.665
						h9.941c0.366,0,0.665,0.298,0.665,0.665C232.265,51.239,231.967,51.537,231.601,51.537z"/>
					<path style="fill:#B38E28;" d="M222.327,51.537c-0.07,0-0.143-0.011-0.214-0.035c-0.348-0.118-0.533-0.496-0.415-0.843
						l6.875-20.194c0.118-0.347,0.496-0.533,0.844-0.415c0.347,0.119,0.533,0.497,0.415,0.845l-6.876,20.193
						C222.863,51.363,222.604,51.537,222.327,51.537z"/>
					<path style="fill:#B38E28;" d="M230.805,51.537c-0.275,0-0.531-0.17-0.627-0.442l-7.125-20.193
						c-0.122-0.347,0.059-0.727,0.405-0.85c0.347-0.121,0.727,0.06,0.849,0.408l7.125,20.192c0.124,0.346-0.059,0.726-0.406,0.848
						C230.953,51.525,230.878,51.537,230.805,51.537z"/>
					<path style="fill:#B38E28;" d="M233.482,68.306c-0.207,0-0.411-0.097-0.541-0.277L221.12,51.595
						c-0.214-0.298-0.146-0.714,0.151-0.928c0.298-0.215,0.714-0.147,0.928,0.151l11.821,16.433
						c0.214,0.299,0.147,0.715-0.151,0.929C233.751,68.264,233.616,68.306,233.482,68.306z"/>
					<path style="fill:#B38E28;" d="M219.751,68.306c-0.13,0-0.26-0.038-0.374-0.116c-0.304-0.207-0.382-0.62-0.174-0.923
						l11.054-16.188c0.207-0.303,0.621-0.38,0.924-0.174c0.303,0.208,0.381,0.621,0.174,0.925l-11.054,16.186
						C220.172,68.204,219.962,68.306,219.751,68.306z"/>
				</g>
				<g>
					<rect x="208.176" y="83.25" style="fill:#473901;" width="14.157" height="2.428"/>
				</g>
				<g>
					<rect x="206.662" y="67.642" style="fill:#DFAF36;" width="16.29" height="17.15"/>
					<rect x="207.912" y="68.658" style="fill:#E2C534;" width="13.748" height="15.21"/>
				</g>
				<rect x="53.86" y="78.903" style="fill:#DC9134;" width="1.662" height="6.228"/>
				<rect x="73.806" y="77.169" style="fill:#DC9134;" width="1.663" height="7.963"/>
				<rect x="99.848" y="75.8" style="fill:#DC9134;" width="1.662" height="9.332"/>
				<rect x="151.82" y="72.317" style="fill:#DC9134;" width="1.662" height="12.814"/>
				<rect x="187.392" y="69.976" style="fill:#DC9134;" width="1.663" height="15.156"/>
				<rect x="243.354" y="70.523" style="fill:#DC9134;" width="1.663" height="15.154"/>
				<rect x="261.639" y="74.297" style="fill:#DC9134;" width="1.662" height="11.381"/>
				<g>
					<polygon style="fill:#DC9134;" points="262.609,85.98 262.332,85.376 278.954,77.798 279.231,78.402 					"/>
					<polygon style="fill:#DC9134;" points="279.425,85.451 262.3,75.262 262.64,74.689 278.76,84.28 278.76,78.102 279.425,78.102 
											"/>
				</g>
				
					<rect x="285.825" y="74.452" transform="matrix(0.5094 -0.8605 0.8605 0.5094 69.9281 286.4312)" style="fill:#DC9134;" width="0.665" height="14.876"/>
				
					<rect x="279.192" y="82.597" transform="matrix(0.9188 -0.3947 0.3947 0.9188 -9.4976 119.6914)" style="fill:#DC9134;" width="13.932" height="0.664"/>
				<g>
					
						<rect x="253.079" y="67.095" transform="matrix(0.6206 -0.7841 0.7841 0.6206 34.8028 228.3802)" style="fill:#DC9134;" width="0.665" height="22.258"/>
					
						<rect x="242.87" y="79.722" transform="matrix(0.8741 -0.4857 0.4857 0.8741 -6.9966 133.1087)" style="fill:#DC9134;" width="20.916" height="0.664"/>
				</g>
				
					<rect x="170.05" y="60.622" transform="matrix(0.3356 -0.942 0.942 0.3356 38.8136 212.9753)" style="fill:#DC9134;" width="0.665" height="36.703"/>
				
					<rect x="151.604" y="77.958" transform="matrix(0.9218 -0.3876 0.3876 0.9218 -17.0048 72.2691)" style="fill:#DC9134;" width="38.11" height="0.666"/>
				
					<rect x="197.726" y="65.968" transform="matrix(0.6246 -0.7809 0.7809 0.6246 13.3567 183.9879)" style="fill:#DC9134;" width="0.665" height="24.265"/>
				
					<rect x="185.644" y="76.779" transform="matrix(0.7637 -0.6456 0.6456 0.7637 -2.9796 146.0824)" style="fill:#DC9134;" width="24.828" height="0.665"/>
				
					<rect x="137.968" y="65.352" transform="matrix(0.3454 -0.9385 0.9385 0.3454 15.4103 182.1976)" style="fill:#DC9134;" width="0.665" height="29.402"/>
				
					<rect x="122.897" y="78.641" transform="matrix(0.9178 -0.3971 0.3971 0.9178 -19.9799 61.4628)" style="fill:#DC9134;" width="31.029" height="0.664"/>
				
					<rect x="112.121" y="68.634" transform="matrix(0.3675 -0.93 0.93 0.3675 -3.9243 155.6258)" style="fill:#DC9134;" width="0.664" height="24.129"/>
				<rect x="123.673" y="74.297" style="fill:#DC9134;" width="1.662" height="11.381"/>
				<polygon style="fill:#DC9134;" points="101.363,85.984 101.104,85.371 124.374,75.494 124.635,76.106 				"/>
				
					<rect x="87.575" y="68.691" transform="matrix(0.2778 -0.9606 0.9606 0.2778 -15.272 143.6566)" style="fill:#DC9134;" width="0.665" height="26.59"/>
				
					<rect x="74.581" y="80.615" transform="matrix(0.9322 -0.362 0.362 0.9322 -23.3591 37.2178)" style="fill:#DC9134;" width="26.125" height="0.665"/>
				
					<rect x="64.082" y="72.354" transform="matrix(0.3362 -0.9418 0.9418 0.3362 -34.7739 115.3184)" style="fill:#DC9134;" width="0.665" height="19.944"/>
				<polygon style="fill:#DC9134;" points="54.812,85.989 54.57,85.369 75.015,77.373 75.257,77.989 				"/>
				
					<rect x="44.675" y="74.163" transform="matrix(0.2926 -0.9562 0.9562 0.2926 -47.5973 101.8072)" style="fill:#DC9134;" width="0.666" height="17.818"/>
				
					<rect x="35.03" y="81.959" transform="matrix(0.9425 -0.3343 0.3343 0.9425 -24.9128 19.8296)" style="fill:#DC9134;" width="20.244" height="0.664"/>
			</g>
		</g>
		<rect x="223.685" y="8.593" style="fill:#473901;" width="5.864" height="5.863"/>
		<path style="fill:#B38E28;" d="M228.343,11.524c0,0.981-0.795,1.776-1.775,1.776c-0.979,0-1.775-0.795-1.775-1.776
			c0-0.98,0.795-1.775,1.775-1.775C227.548,9.748,228.343,10.544,228.343,11.524z"/>
	</g>
	<g>
		<path style="fill:#E2C534;" d="M41.193,83.072c0,2.651-2.149,4.801-4.802,4.801c-2.651,0-4.801-2.149-4.801-4.801
			c0-2.652,2.15-4.802,4.801-4.802C39.043,78.271,41.193,80.42,41.193,83.072z"/>
		<path style="fill:#633F02;" d="M39.822,83.072c0,1.894-1.536,3.431-3.431,3.431c-1.895,0-3.43-1.537-3.43-3.431
			c0-1.896,1.536-3.432,3.43-3.432C38.286,79.641,39.822,81.177,39.822,83.072z"/>
		<path style="fill:#DC9134;" d="M38.484,83.072c0,1.156-0.937,2.093-2.093,2.093c-1.155,0-2.092-0.937-2.092-2.093
			c0-1.156,0.937-2.093,2.092-2.093C37.547,80.979,38.484,81.916,38.484,83.072z"/>
	</g>
	<rect x="215.254" y="93.76" style="fill:#231F20;" width="24.485" height="5.913"/>
	<g>
		<g>
			<rect x="205.188" y="385.511" style="fill:#5A5B5D;" width="43.507" height="13.021"/>
			<rect x="205.188" y="385.511" style="fill:#333536;" width="43.507" height="2.797"/>
		</g>
		<g>
			<rect x="192.593" y="396.147" style="fill:#5A5B5D;" width="68.697" height="8.339"/>
			<rect x="192.593" y="396.147" style="fill:#333536;" width="68.697" height="1.792"/>
		</g>
	</g>
</g>
</svg>
