<svg width="1345" height="470" viewBox="0 0 1345 470" fill="none" xmlns="http://www.w3.org/2000/svg">
<g filter="url(#filter0_d_551_10955)">
<path d="M693.963 187.815V298.46L750.282 319.592L755.713 311.687L774.207 311.714L774.571 311.287L734.79 229.633L734.745 229.551L702.36 228.76L734.59 227.968L736.464 170.449L738.338 227.877L930.01 223.193L911.043 149.18L700.941 169.048L693.963 187.815ZM787.152 176.371C793.165 175.998 800.179 175.689 807.693 175.488C811.45 175.416 815.334 175.252 819.282 175.243C823.23 175.206 827.233 175.179 831.245 175.143C835.257 175.179 839.259 175.206 843.207 175.243C847.155 175.243 851.04 175.416 854.797 175.488C862.311 175.689 869.324 175.998 875.337 176.371C887.364 177.053 895.378 178.026 895.378 178.026C895.378 178.026 887.364 178.991 875.337 179.682C869.324 180.055 862.311 180.364 854.797 180.564C851.04 180.637 847.155 180.81 843.207 180.81C839.259 180.846 835.257 180.874 831.245 180.91C827.233 180.874 823.23 180.846 819.282 180.81C815.334 180.801 811.45 180.637 807.693 180.564C800.179 180.355 793.165 180.055 787.152 179.682C775.126 179 767.112 178.036 767.112 178.036C767.112 178.036 775.126 177.053 787.152 176.371ZM787.152 192.227C793.165 191.854 800.179 191.544 807.693 191.344C811.45 191.271 815.334 191.108 819.282 191.099C823.23 191.062 827.233 191.035 831.245 190.999C835.257 191.026 839.259 191.062 843.207 191.099C847.155 191.099 851.04 191.271 854.797 191.344C862.311 191.544 869.324 191.854 875.337 192.227C887.364 192.909 895.378 193.882 895.378 193.882C895.378 193.882 887.364 194.856 875.337 195.538C869.324 195.911 862.311 196.22 854.797 196.42C851.04 196.493 847.155 196.666 843.207 196.666C839.259 196.702 835.257 196.73 831.245 196.766C827.233 196.73 823.23 196.702 819.282 196.666C815.334 196.657 811.45 196.493 807.693 196.42C800.179 196.211 793.165 195.911 787.152 195.538C775.126 194.856 767.112 193.891 767.112 193.891C767.112 193.891 775.126 192.909 787.152 192.227ZM787.152 208.083C793.165 207.71 800.179 207.4 807.693 207.2C811.45 207.127 815.334 206.964 819.282 206.955C823.23 206.918 827.233 206.891 831.245 206.854C835.257 206.891 839.259 206.918 843.207 206.955C847.155 206.955 851.04 207.127 854.797 207.2C862.311 207.4 869.324 207.71 875.337 208.083C887.364 208.765 895.378 209.738 895.378 209.738C895.378 209.738 887.364 210.712 875.337 211.394C869.324 211.767 862.311 212.076 854.797 212.276C851.04 212.349 847.155 212.522 843.207 212.522C839.259 212.558 835.257 212.586 831.245 212.622C827.233 212.586 823.23 212.558 819.282 212.522C815.334 212.513 811.45 212.349 807.693 212.276C800.179 212.067 793.165 211.767 787.152 211.394C775.126 210.712 767.112 209.747 767.112 209.747C767.112 209.747 775.126 208.765 787.152 208.083ZM715.432 176.753C720.153 176.753 723.992 180.583 723.992 185.313C723.992 190.043 720.162 193.873 715.432 193.873C710.702 193.873 706.872 190.043 706.872 185.313C706.872 180.592 710.702 176.753 715.432 176.753ZM715.432 204.507C720.153 204.507 723.992 208.337 723.992 213.068C723.992 217.798 720.162 221.628 715.432 221.628C710.702 221.628 706.872 217.798 706.872 213.068C706.872 208.337 710.702 204.507 715.432 204.507ZM701.741 239.949H729.123V245.289H701.741V239.949ZM701.741 255.223H729.123V260.563H701.741V255.223ZM701.741 270.496H729.123V275.836H701.741V270.496ZM701.741 285.779H729.123V291.119H701.741V285.779Z" fill="#FFC629"/>
<path d="M1151.85 161.634L1146.29 256.578L1140.83 163.353L1042.02 178.79L1036.82 256.578L1034.95 228.769H944.41L971.773 258.379H1220.07L1234.18 222.947L1170.26 158.759L1151.85 161.634ZM1134.61 250.447H1048.49V228.76H1134.61V250.447ZM1121.43 174.397C1117.45 175.461 1112.79 176.571 1107.78 177.635C1105.27 178.145 1102.7 178.754 1100.04 179.209C1097.39 179.7 1094.71 180.191 1092.03 180.683C1089.32 181.11 1086.63 181.538 1083.97 181.965C1081.33 182.411 1078.69 182.693 1076.15 183.057C1071.07 183.721 1066.31 184.221 1062.21 184.549C1054.02 185.258 1048.47 185.231 1048.47 185.231C1048.47 185.231 1053.69 183.357 1061.65 181.301C1065.63 180.246 1070.28 179.127 1075.3 178.063C1077.81 177.553 1080.39 176.953 1083.04 176.48C1085.68 175.989 1088.37 175.497 1091.05 175.006C1093.74 174.579 1096.45 174.151 1099.1 173.723C1101.75 173.269 1104.39 172.996 1106.93 172.632C1112 171.968 1116.77 171.458 1120.87 171.14C1129.06 170.43 1134.61 170.458 1134.61 170.458C1134.61 170.458 1129.39 172.341 1121.43 174.397ZM1200.7 236.519H1215.11V250.929H1200.7V236.519ZM1177.1 236.519H1191.51V250.929H1177.1V236.519Z" fill="#FFC629"/>
<path d="M1054.15 232.681V246.535L1128.95 232.681H1054.15Z" fill="#FFC629"/>
<path d="M643.239 279.429C645.495 273.826 647.687 268.613 649.679 264.11C654.109 253.967 657.539 247.372 657.539 247.372C657.539 247.372 655.929 254.622 652.79 265.238C651.417 269.969 649.734 275.4 647.851 281.149L649.734 281.858L663.343 245.28L652.345 241.768L640.255 274.263C640.537 275.663 640.773 277.082 640.882 278.529L643.239 279.429Z" fill="white"/>
<path d="M605.714 256.969C607.943 256.969 610.181 257.433 612.373 258.024C614.511 258.77 616.621 259.653 618.468 260.908C619.423 261.481 620.296 262.154 621.106 262.882C621.961 263.546 622.68 264.356 623.389 265.111C624.79 266.667 625.891 268.368 626.773 270.032C627.155 270.906 627.556 271.724 627.865 272.543C628.12 273.389 628.393 274.19 628.593 274.972C628.929 276.564 629.093 278.01 629.093 279.302C629.193 280.557 628.948 281.749 628.875 282.623C628.729 283.487 628.493 284.151 628.384 284.615C628.247 285.07 628.174 285.315 628.174 285.315C628.174 285.315 627.765 284.36 627.174 282.723C626.783 281.94 626.446 281.067 625.891 280.066C625.4 279.056 624.69 278.01 623.99 276.901C623.217 275.818 622.352 274.717 621.388 273.644C620.378 272.589 619.296 271.561 618.086 270.624C616.858 269.714 615.584 268.804 614.174 268.104C612.801 267.349 611.318 266.785 609.817 266.284C609.207 266.112 608.589 265.966 607.961 265.821L608.452 266.949C608.925 268.031 609.162 269.205 609.162 270.387V307.939C615.994 307.002 622.016 303.518 626.209 298.442L727.331 336.385L632.705 297.978L773.243 345.782C775.017 343.417 776.663 341.216 778.1 339.269L632.15 284.496C632.268 283.459 632.35 282.413 632.35 281.34C632.35 266.503 620.324 254.477 605.487 254.477C604.686 254.477 603.904 254.559 603.121 254.622L604.122 256.942L605.714 256.969Z" fill="#FFC629"/>
<path d="M753.694 365.604C753.757 362.311 754.248 359.137 755.222 356.089L743.569 351.714C741.758 356.317 740.812 361.192 740.803 366.45L753.694 365.604Z" fill="#999999"/>
<path d="M725.02 53.7717C724.674 53.8627 724.329 53.9627 724.001 54.1174C722.6 54.7542 721.527 55.9095 720.99 57.3468L653.509 238.648L655.765 238.193L725.02 53.7717Z" fill="white"/>
<path d="M1140.79 262.527C1127.27 262.464 1112.84 262.4 1098.42 262.336C1083.99 262.4 1069.57 262.464 1056.04 262.527C1042.51 262.582 1029.89 262.846 1019.07 262.964C1008.25 263.182 999.228 263.364 992.924 263.492C986.611 263.674 983.008 263.774 983.008 263.774C983.008 263.774 986.611 263.874 992.924 264.056C999.237 264.183 1008.25 264.365 1019.07 264.583C1029.88 264.702 1042.51 264.965 1056.04 265.02C1069.57 265.084 1083.99 265.147 1098.42 265.211C1112.85 265.147 1127.28 265.084 1140.79 265.02C1154.32 264.975 1166.94 264.702 1177.76 264.583C1188.58 264.456 1197.6 264.165 1203.91 264.056C1210.22 263.874 1213.82 263.774 1213.82 263.774C1213.82 263.774 1210.22 263.674 1203.91 263.492C1197.6 263.373 1188.58 263.091 1177.76 262.964C1166.95 262.855 1154.32 262.582 1140.79 262.527Z" fill="#FFC629"/>
<path d="M1115.32 74.7492V46.658H1081.62V118.378H1092.57C1093.51 111.182 1095.91 97.737 1100.69 97.737C1100.69 97.737 1094.16 74.7492 1115.32 74.7492Z" fill="#999999"/>
<path d="M1072.99 46.6671H1039.29V118.387H1072.99V46.6671Z" fill="#999999"/>
<path d="M1153.74 46.6671H1146.29V118.387H1153.74V46.6671Z" fill="#999999"/>
<path d="M1039.29 131.541H1040.68V143.076H1043.48V131.541H1047.08V143.076H1049.6V131.541H1053.2V143.076H1087.08L1090.86 125.838H1039.29V131.541Z" fill="#999999"/>
<path d="M1161.44 132.933C1162.13 144.35 1163.1 151.964 1163.1 151.964C1163.1 151.964 1164.07 144.35 1164.76 132.933C1165.13 127.22 1165.44 120.561 1165.64 113.429C1165.71 109.863 1165.88 106.17 1165.88 102.431C1165.92 98.6832 1165.95 94.8807 1165.98 91.0691C1165.95 87.2666 1165.92 83.455 1165.88 79.7071C1165.87 75.9592 1165.71 72.2749 1165.64 68.709C1165.44 61.577 1165.13 54.918 1164.76 49.2052C1164.07 37.7886 1163.11 30.1744 1163.11 30.1744C1163.11 30.1744 1162.14 37.7886 1161.46 49.2052C1161.09 54.9089 1160.78 61.577 1160.58 68.709C1160.51 72.2749 1160.34 75.9683 1160.33 79.7071C1160.3 83.455 1160.27 87.2575 1160.23 91.0691C1160.27 94.8716 1160.3 98.6832 1160.33 102.431C1160.33 106.179 1160.51 109.863 1160.58 113.429C1160.76 120.561 1161.07 127.22 1161.44 132.933Z" fill="#999999"/>
<path d="M940.244 159.842L943.655 170.913L956.636 165.773L966.352 194.919L980.252 186.769L984.382 57.4379L988.366 182.002L989.913 181.092V43.1376H965.115L957.837 75.0131L960.457 75.3042L957.546 108.153H950.269L948.995 113.748L959.238 114.576L956.6 159.36L940.244 159.842Z" fill="#999999"/>
<path d="M1031.67 178.09C1031.85 181.974 1031.95 184.194 1031.95 184.194C1031.95 184.194 1032.05 181.974 1032.23 178.09C1032.35 174.206 1032.63 168.657 1032.76 161.998C1032.88 155.339 1033.15 147.57 1033.2 139.246C1033.26 130.923 1033.32 122.044 1033.39 113.165C1033.32 104.287 1033.26 95.4083 1033.2 87.0846C1033.14 78.761 1032.88 70.9922 1032.76 64.3333C1032.63 57.6743 1032.35 52.1252 1032.23 48.2408C1032.05 44.3565 1031.95 42.1368 1031.95 42.1368C1031.95 42.1368 1031.85 44.3565 1031.67 48.2408C1031.55 52.1252 1031.27 57.6743 1031.14 64.3333C1031.02 70.9922 1030.76 78.761 1030.7 87.0846C1030.64 95.4083 1030.58 104.287 1030.51 113.165C1030.58 122.044 1030.64 130.923 1030.7 139.246C1030.75 147.57 1031.02 155.339 1031.14 161.998C1031.26 168.657 1031.55 174.206 1031.67 178.09Z" fill="#999999"/>
<path d="M806.683 65.7888L808.138 100.166V63.8511H805.518C803.008 63.8511 800.979 65.8888 800.979 68.3904V130.268L803.963 129.995L806.683 65.7888Z" fill="white"/>
<path d="M747.808 144.886C757.25 144.422 768.249 143.758 780.029 142.921C785.915 142.476 792.01 142.103 798.177 141.566C804.354 141.057 810.631 140.529 816.908 140.01C823.176 139.419 829.443 138.837 835.62 138.255C841.797 137.709 847.856 136.999 853.732 136.408C865.476 135.171 876.42 133.888 885.799 132.678C895.178 131.523 902.974 130.304 908.441 129.576C913.899 128.785 917.019 128.257 917.019 128.257C917.019 128.257 913.863 128.285 908.35 128.457C902.837 128.694 894.95 128.867 885.517 129.385C876.074 129.849 865.076 130.513 853.296 131.35C847.41 131.796 841.315 132.169 835.147 132.715C828.97 133.233 822.694 133.752 816.417 134.279C810.149 134.871 803.881 135.453 797.704 136.035C791.528 136.59 785.469 137.29 779.592 137.891C767.848 139.137 756.905 140.42 747.526 141.621C738.147 142.776 730.351 143.986 724.884 144.723C719.426 145.514 716.305 146.042 716.305 146.042C716.305 146.042 719.462 146.014 724.975 145.832C730.487 145.569 738.374 145.396 747.808 144.886Z" fill="#999999"/>
<path d="M945.511 66.9441L953.807 41.7002L961.276 18.3484C979.615 18.3848 997.954 18.5031 1016.29 18.403C1035.31 18.3848 1054.32 18.2393 1073.33 18.0573C1092.34 17.839 1111.36 17.5843 1130.37 17.184L1158.89 16.4653C1168.39 16.2197 1177.9 15.9559 1187.41 15.5648C1177.9 15.1827 1168.39 14.9189 1158.89 14.6733L1130.37 13.9546C1111.36 13.5453 1092.34 13.2905 1073.33 13.0813C1054.32 12.8994 1035.31 12.7538 1016.29 12.7356C997.281 12.6265 978.269 12.7629 959.256 12.7993H959.22C958.046 12.7993 956.964 13.5725 956.609 14.7551L949.086 40.2447L941.763 65.7888C939.416 74.3308 936.978 82.8455 934.74 91.433C932.475 100.002 930.137 108.553 928.026 117.168C931.119 108.853 933.985 100.466 936.923 92.1061C939.889 83.7551 942.654 75.3314 945.511 66.9441Z" fill="#999999"/>
<path d="M1043.62 4.43933C1047.84 4.56669 1052.77 4.8032 1058.05 4.89417C1063.32 5.01243 1068.96 5.03973 1074.59 5.06702C1080.22 5.03973 1085.85 5.02153 1091.12 4.89417C1096.4 4.8123 1101.33 4.56669 1105.55 4.43933C1109.77 4.31198 1113.29 4.02089 1115.76 3.91172C1118.22 3.72979 1119.63 3.6297 1119.63 3.6297C1119.63 3.6297 1118.22 3.52965 1115.76 3.34771C1113.29 3.22945 1109.77 2.94743 1105.55 2.82007C1101.33 2.69271 1096.4 2.44711 1091.12 2.36523C1085.85 2.23788 1080.22 2.21967 1074.59 2.19238C1068.96 2.21967 1063.32 2.24697 1058.05 2.36523C1052.77 2.4562 1047.84 2.69271 1043.62 2.82007C1039.4 2.94743 1035.88 3.22945 1033.41 3.34771C1030.95 3.52965 1029.54 3.6297 1029.54 3.6297C1029.54 3.6297 1030.95 3.72979 1033.41 3.91172C1035.88 4.02089 1039.39 4.30288 1043.62 4.43933Z" fill="white"/>
<path d="M857.78 125.028L859.709 124.846C859.827 123.045 859.927 121.134 860 119.069C860.036 117.605 860.118 116.095 860.127 114.566C860.136 113.966 860.173 113.02 860.273 112.374C860.364 111.728 860.509 111.055 860.718 110.373C861.483 107.662 863.147 105.251 865.194 103.541C866.213 102.677 867.332 102.003 868.46 101.476C869.579 100.93 870.734 100.648 871.817 100.393C873.964 100.057 876.047 99.9202 877.375 99.7565C878.739 99.6018 879.522 99.4745 879.522 99.4745C879.522 99.4745 878.739 99.3471 877.375 99.1925C876.693 99.1197 875.865 99.0378 874.919 98.9378C873.982 98.8286 872.899 98.7103 871.644 98.7467C870.416 98.8286 869.051 98.9651 867.696 99.4654C866.34 99.9202 864.921 100.557 863.657 101.53C862.392 102.476 861.146 103.604 860.2 104.996C859.245 106.379 858.481 107.926 857.971 109.563C857.744 110.382 857.571 111.237 857.471 112.128C857.38 113.029 857.371 113.629 857.362 114.557C857.371 116.095 857.444 117.605 857.489 119.06C857.553 121.207 857.662 123.172 857.78 125.028Z" fill="white"/>
<path d="M1196.39 343.253C1197.47 343.417 1198.7 343.563 1200.02 343.808C1201.32 344.154 1202.78 344.427 1204.22 345.046C1207.2 346.055 1210.4 347.766 1213.5 350.231C1216.59 352.669 1219.61 355.889 1221.9 359.91C1222.46 360.874 1222.98 361.884 1223.47 362.93C1218.02 349.53 1204.87 340.042 1189.54 340.042C1169.33 340.042 1152.89 356.471 1152.89 376.675C1152.89 391.958 1162.3 405.067 1175.63 410.552C1170.33 408.087 1166.04 404.485 1163.07 400.655C1160.61 397.562 1158.9 394.36 1157.89 391.376C1157.28 389.93 1157 388.465 1156.65 387.182C1156.4 385.854 1156.26 384.626 1156.09 383.544C1155.96 381.324 1155.96 379.614 1156.1 378.449C1156.2 377.294 1156.27 376.675 1156.27 376.675C1156.27 376.675 1156.39 377.285 1156.6 378.422C1156.74 379.559 1157.24 381.178 1157.79 383.198C1158.17 384.18 1158.55 385.272 1159.04 386.418C1159.66 387.519 1160.08 388.793 1160.89 389.984C1162.28 392.468 1164.31 394.96 1166.75 397.325C1168.68 399.136 1170.94 400.791 1173.47 402.192C1165 396.852 1159.36 387.437 1159.36 376.685C1159.36 360.028 1172.87 346.519 1189.53 346.519C1200.33 346.519 1209.78 352.223 1215.12 360.765C1213.71 358.181 1212.02 355.853 1210.18 353.897C1207.81 351.459 1205.31 349.421 1202.83 348.038C1201.63 347.229 1200.36 346.801 1199.26 346.192C1198.11 345.701 1197.02 345.318 1196.04 344.936C1194.06 344.4 1192.42 343.89 1191.26 343.763C1190.13 343.545 1189.52 343.426 1189.52 343.426C1189.52 343.426 1190.14 343.372 1191.29 343.272C1192.45 343.126 1194.14 343.117 1196.39 343.253Z" fill="white"/>
<path d="M819.81 410.107L797.377 411.316C800.342 412.044 803.426 412.481 806.61 412.481C811.259 412.481 815.689 411.617 819.81 410.107Z" fill="white"/>
<path d="M1089.8 348.202C1091.1 348.275 1092.75 348.375 1094.55 348.966C1096.38 349.476 1098.39 350.394 1100.33 351.823C1100.69 352.077 1101.05 352.378 1101.4 352.669C1097.43 348.584 1091.89 346.037 1085.76 346.037C1073.7 346.037 1063.9 355.844 1063.9 367.897C1063.9 373.992 1066.41 379.505 1070.45 383.471C1070.18 383.143 1069.91 382.816 1069.67 382.479C1068.25 380.533 1067.32 378.531 1066.82 376.703C1066.23 374.902 1066.13 373.246 1066.05 371.945C1066.06 370.617 1066.17 369.607 1066.31 368.934C1066.44 368.261 1066.51 367.906 1066.51 367.906C1066.51 367.906 1066.61 368.252 1066.81 368.907C1066.95 369.562 1067.34 370.48 1067.75 371.599C1068.25 372.709 1068.9 373.992 1069.82 375.302C1070.7 376.63 1071.95 377.931 1073.36 379.141C1076.2 381.506 1080.35 383.262 1084.43 383.243C1086.79 383.271 1088.8 382.843 1090.87 382.052C1092.88 381.224 1094.77 380.023 1096.33 378.458C1097.89 376.903 1099.1 375.011 1099.93 373C1100.35 372.009 1100.64 370.881 1100.83 370.026C1100.98 369.671 1100.99 368.779 1101.07 368.17C1101.15 367.842 1101.1 367.151 1101.14 366.66C1101.16 362.366 1099.41 358.363 1097.03 355.471C1095.81 354.061 1094.52 352.814 1093.18 351.932C1091.86 351.013 1090.58 350.358 1089.47 349.858C1088.38 349.458 1087.44 349.057 1086.78 348.93C1086.12 348.739 1085.78 348.63 1085.78 348.63C1085.78 348.63 1086.13 348.566 1086.8 348.439C1087.45 348.32 1088.44 348.202 1089.8 348.202Z" fill="white"/>
<path d="M1073.74 300.889H893.576C893.522 300.889 893.176 300.889 892.576 300.889C883.097 300.889 808.766 301.717 767.666 326.124L779.356 330.509C820.847 307.939 899.007 308.476 902.764 308.53H1068.85C1075.83 308.53 1239.84 309.313 1239.84 377.276C1239.84 408.342 1211.42 426.163 1161.88 426.163H834.938C816.435 426.163 790.372 426.135 772.788 412.645L753.22 413.7C769.149 434.905 797.431 434.932 820.073 434.932H1165.98C1206.75 434.932 1250.3 420.732 1250.3 380.887C1250.3 301.844 1075.51 300.889 1073.74 300.889Z" fill="#999999"/>
<path d="M1074.92 330.927C1076.28 331 1077.64 331.073 1078.98 331.173C1086.9 331.737 1094.32 332.583 1101.16 333.401C1114.84 335.012 1126.18 336.74 1134.11 338.013C1142.03 339.296 1146.55 340.151 1146.55 340.151C1146.55 340.151 1141.97 339.997 1133.94 339.733C1125.94 339.405 1114.49 338.923 1100.77 338.359C1097.24 338.223 1093.55 338.077 1089.75 337.95C1104.55 339.915 1116.01 352.587 1116.01 367.915C1116.01 369.007 1115.95 370.089 1115.83 371.153C1116.91 385.417 1112.27 402.119 1091.54 403.957C1080.24 404.958 1021.72 408.06 961.913 411.043L1094.88 413.873L911.179 417.775H1161.88C1164.65 417.775 1167.62 417.711 1170.7 417.566C1155.25 410.425 1144.48 394.815 1144.48 376.703C1144.48 360.719 1152.87 346.683 1165.46 338.687C1151.92 336.249 1118.68 330.936 1085.74 330.936C1082.61 330.927 1078.94 330.927 1074.92 330.927ZM1131.01 412.281C1127.09 412.281 1123.91 409.097 1123.91 405.176C1123.91 401.255 1127.08 398.071 1131.01 398.071C1134.94 398.071 1138.12 401.255 1138.12 405.176C1138.12 409.097 1134.94 412.281 1131.01 412.281ZM1131.01 387.155C1127.09 387.155 1123.91 383.98 1123.91 380.05C1123.91 376.13 1127.08 372.946 1131.01 372.946C1134.94 372.946 1138.12 376.12 1138.12 380.05C1138.12 383.98 1134.94 387.155 1131.01 387.155ZM1131.01 362.038C1127.09 362.038 1123.91 358.854 1123.91 354.934C1123.91 351.013 1127.08 347.829 1131.01 347.829C1134.94 347.829 1138.12 351.013 1138.12 354.934C1138.12 358.854 1134.94 362.038 1131.01 362.038Z" fill="#999999"/>
<path d="M1310.6 271.961L1291.47 219.454H1255.61L1233.25 276.991H975.13L958.601 256.86L937.951 234.518L739.147 229.66L780.384 304.537L786.015 297.987L809.294 300.534L827.124 287.08L847.692 293.966L867.714 282.741L886.272 291.892L906.731 281.112L926.153 291.337L945.574 281.112L964.996 291.337L984.418 281.112L1003.84 291.337L1023.26 281.112L1042.68 291.337L1062.11 281.112L1082.9 292.065L1108.16 281.622L1127.79 294.403L1150.68 287.853L1169.38 303.318L1194.65 300.18L1209.59 317.054L1236.07 322.012L1244.85 341.916L1258.25 352.787H1263.37L1267.45 288.062L1271.53 352.787H1292.93L1297.02 288.062L1301.1 352.787H1311.59V282.095L1237.84 276.991L1310.6 271.961ZM917.647 245.289H932.056V259.698H917.647V245.289ZM771.833 259.698V245.289H786.242V259.698H771.833ZM931.028 273.689C925.443 273.971 919.848 274.081 914.263 274.281C908.677 274.472 903.083 274.526 897.497 274.654C891.912 274.799 886.317 274.79 880.732 274.836C875.137 274.872 869.552 274.926 863.966 274.863C852.995 274.845 842.033 274.663 831.063 274.426L819.564 280.285C815.516 282.377 811.395 284.342 807.311 286.37C799.114 290.373 790.882 294.321 782.503 297.996C790.099 292.893 797.841 288.062 805.619 283.277C809.521 280.921 813.387 278.502 817.326 276.191L829.098 269.232L829.643 268.904L830.426 268.886C841.606 268.641 852.786 268.449 863.966 268.431C869.552 268.368 875.146 268.413 880.732 268.459C886.317 268.504 891.912 268.495 897.497 268.641C903.092 268.768 908.677 268.813 914.263 269.004C919.848 269.205 925.443 269.314 931.028 269.596C942.209 270.06 953.389 270.678 964.569 271.643C953.389 272.607 942.209 273.225 931.028 273.689Z" fill="#FFC629"/>
<path d="M839.059 352.814C832.837 343.226 822.512 336.54 810.567 335.321C817.144 339.251 826.278 344.854 839.059 352.814Z" fill="white"/>
<path d="M899.499 331.764C906.421 331.355 913.863 331.118 921.731 330.918C921.759 330.918 921.777 330.918 921.804 330.918C904.72 330.918 890.966 330.918 883.497 330.918C861.31 330.918 841.806 333.647 833.291 335.039C841.915 340.988 848.465 349.73 851.622 359.964L890.711 357.181V341.843H906.731V356.044L1006.01 348.966V341.843H1022.03V347.82L1066.42 344.654C1071.16 340.697 1077.13 338.195 1083.66 337.75C1082.02 337.704 1080.36 337.659 1078.69 337.622C1071.02 337.45 1062.67 337.895 1054.08 337.95C1045.49 338.059 1036.63 338.314 1027.61 338.323C1018.6 338.368 1009.43 338.423 1000.28 338.468C991.123 338.414 981.971 338.368 972.956 338.314C963.941 338.296 955.072 338.05 946.484 337.941C937.897 337.841 929.6 337.568 921.731 337.359C913.881 337.131 906.458 336.913 899.599 336.713C885.935 336.458 874.518 336.758 866.531 337.195C858.535 337.613 853.978 338.168 853.978 338.168C853.978 338.168 858.399 336.904 866.34 335.494C874.255 334.093 885.689 332.537 899.499 331.764Z" fill="#999999"/>
<path d="M996.417 173.114C997.099 189.461 998.073 200.359 998.073 200.359C998.073 200.359 999.046 189.461 999.728 173.114C1000.1 164.936 1000.41 155.402 1000.61 145.186C1000.68 140.074 1000.86 134.798 1000.86 129.431C1000.89 124.063 1000.92 118.614 1000.96 113.165C1000.92 107.716 1000.89 102.267 1000.86 96.9001C1000.85 91.5329 1000.68 86.2567 1000.61 81.1443C1000.4 70.9284 1000.1 61.3858 999.728 53.2168C999.046 36.8696 998.082 25.9716 998.082 25.9716C998.082 25.9716 997.118 36.8696 996.435 53.2168C996.062 61.3949 995.753 70.9284 995.553 81.1443C995.48 86.2567 995.316 91.5329 995.307 96.9001C995.271 102.267 995.244 107.716 995.207 113.165C995.244 118.614 995.271 124.063 995.307 129.431C995.307 134.798 995.48 140.074 995.553 145.186C995.735 155.402 996.044 164.945 996.417 173.114Z" fill="#999999"/>
<path d="M616.848 408.633L1057.26 377.994C1056.14 374.838 1055.49 371.454 1055.49 367.906C1055.49 362.839 1056.76 358.063 1058.98 353.86L848.419 368.87C848.419 368.87 793.965 334.72 791.791 334.72C791.746 334.72 791.727 334.739 791.727 334.766C791.727 335.812 776.545 355.844 768.212 366.742L835.074 368.779L762.927 373.637L762.899 373.673L623.098 382.798L607.242 365.595V395.934L587.784 410.07L600.52 394.933V358.291V273.908L555.235 275.845L598.837 266.494L541.417 133.925H525.079L551.505 276.127L518.838 418.339L474.637 450.524L558.028 431.375L523.341 419.058L571.018 426.99L586.101 414.009L989.749 392.286L616.848 408.633ZM646.231 387.628C657.73 386.627 674.141 385.026 693.863 383.407C713.576 381.742 736.582 379.923 761.244 378.113C773.579 377.221 786.315 376.312 799.26 375.375C812.214 374.492 825.368 373.601 838.522 372.709C851.685 371.881 864.839 371.054 877.793 370.235C890.747 369.471 903.501 368.716 915.845 367.988C940.534 366.578 963.577 365.377 983.344 364.449C1003.1 363.485 1019.59 362.921 1031.11 362.411C1042.65 362.011 1049.24 361.784 1049.24 361.784C1049.24 361.784 1042.67 362.421 1031.19 363.53C1019.69 364.531 1003.28 366.123 983.554 367.742C963.841 369.407 940.835 371.217 916.173 373.046C903.847 373.937 891.102 374.856 878.157 375.784C865.203 376.666 852.049 377.558 838.895 378.458C825.732 379.286 812.577 380.114 799.623 380.933C786.669 381.697 773.916 382.452 761.571 383.18C736.882 384.599 713.84 385.791 694.072 386.718C674.314 387.692 657.83 388.247 646.304 388.756C634.769 389.156 628.174 389.384 628.174 389.384C628.174 389.384 634.742 388.738 646.231 387.628ZM544.492 160.051C540.207 148.325 537.824 140.311 537.824 140.311C537.824 140.311 541.981 147.57 547.521 158.759C550.314 164.345 553.461 170.903 556.718 177.981C558.319 181.529 560.057 185.167 561.676 188.924C563.313 192.672 564.987 196.475 566.652 200.286C568.262 204.116 569.863 207.946 571.446 211.721C573.056 215.478 574.484 219.244 575.949 222.856C578.833 230.097 581.416 236.901 583.527 242.778C587.802 254.504 590.185 262.527 590.185 262.527C590.185 262.527 586.019 255.268 580.479 244.088C577.686 238.503 574.53 231.944 571.282 224.866C569.681 221.319 567.944 217.68 566.324 213.923C564.687 210.175 563.022 206.372 561.348 202.57C559.738 198.74 558.137 194.901 556.554 191.135C554.953 187.369 553.516 183.612 552.051 180C549.186 172.732 546.602 165.927 544.492 160.051ZM583.372 405.558C579.215 410.116 575.075 414.682 570.727 419.076C574.066 413.864 577.614 408.824 581.143 403.775C584.554 398.999 587.993 394.251 591.505 389.548C591.332 385.217 591.259 380.887 591.159 376.557C591.031 371.99 591.004 367.424 590.977 362.866C590.95 358.3 590.886 353.742 590.95 349.175C590.995 344.609 590.986 340.051 591.077 335.485C591.241 326.36 591.495 317.227 591.914 308.103C592.351 298.979 592.887 289.845 593.788 280.721C594.688 289.845 595.225 298.979 595.662 308.103C596.08 317.236 596.335 326.36 596.508 335.485C596.599 340.051 596.59 344.618 596.635 349.175C596.699 353.742 596.635 358.309 596.608 362.866C596.581 367.433 596.553 371.99 596.426 376.557C596.317 381.124 596.253 385.681 596.053 390.248L596.017 391.121L595.562 391.658C591.559 396.352 587.475 400.964 583.372 405.558Z" fill="#FFC629"/>
<path d="M1189.53 354.506C1177.28 354.506 1167.35 364.431 1167.35 376.685C1167.35 388.929 1177.27 398.863 1189.53 398.863C1201.78 398.863 1211.7 388.938 1211.7 376.685C1211.7 364.44 1201.77 354.506 1189.53 354.506ZM1189.53 395.506C1179.13 395.506 1170.7 387.082 1170.7 376.685C1170.7 366.287 1179.13 357.863 1189.53 357.863C1199.92 357.863 1208.35 366.287 1208.35 376.685C1208.35 387.082 1199.92 395.506 1189.53 395.506Z" fill="white"/>
<path d="M638.427 312.26L637.062 311.751C636.78 312.506 636.489 313.279 636.207 314.025C634.952 317.427 633.578 320.729 632.332 323.941C629.776 330.354 627.274 336.312 625.036 341.37C620.615 351.522 617.186 358.109 617.186 358.109C617.186 358.109 618.805 350.858 621.943 340.242C623.49 334.921 625.4 328.762 627.574 322.203C628.684 318.928 629.757 315.526 630.986 312.115C631.258 311.341 631.54 310.55 631.813 309.768L628.384 308.485C627.993 308.812 627.574 309.113 627.174 309.422L609.935 355.743L618.696 365.25L638.427 312.26Z" fill="white"/>
<path d="M1326.69 275.663C1326.69 274.736 1326.53 273.808 1326.24 272.925L1307.5 216.715C1306.33 213.186 1303.02 210.802 1299.3 210.802H1299.08V200.123C1299.08 196.675 1296.28 193.873 1292.83 193.873H1286.11C1282.66 193.873 1279.86 196.675 1279.86 200.123V210.812H1270.72V200.123C1270.72 196.675 1267.91 193.873 1264.47 193.873H1257.74C1254.3 193.873 1251.49 196.675 1251.49 200.123V210.812H1243.73L1184.71 153.128V78.2152C1189.49 78.2152 1193.36 74.3398 1193.36 69.564V17.6753C1193.36 12.8994 1189.49 9.02413 1184.71 9.02413H1135.28C1135.26 4.03903 1131.22 0 1126.23 0H1029.88C1024.9 0 1020.85 4.03903 1020.83 9.02413H959.875C956.027 9.02413 952.643 11.5712 951.569 15.2646L921.504 119.142L895.387 121.553V113.557C895.387 104.15 887.763 96.5363 878.366 96.5363H871.162C861.755 96.5363 854.141 104.16 854.141 113.557V125.355L820.292 128.476V66.8804C820.292 63.178 817.29 60.1851 813.596 60.1851H804.745C801.052 60.1851 798.05 63.178 798.05 66.8804V130.522L712.348 138.437L739.912 64.3606C742.686 56.9102 738.874 48.5956 731.433 45.8302C727.831 44.4838 723.91 44.6294 720.408 46.2304C716.905 47.8315 714.231 50.7061 712.894 54.3085L635.479 262.346C629.175 252.421 618.104 245.807 605.496 245.807C603.485 245.807 601.502 246.017 599.555 246.344L549.377 130.477C548.003 127.311 544.892 125.264 541.444 125.264H525.106C522.532 125.264 520.094 126.411 518.457 128.385C516.81 130.359 516.137 132.969 516.601 135.489L542.7 275.927L511.143 413.263L469.561 443.547C466.24 445.967 465.076 450.388 466.777 454.126C468.205 457.265 471.316 459.193 474.646 459.193C475.292 459.193 475.938 459.121 476.584 458.975L570.746 437.352C572.119 437.033 573.384 436.397 574.457 435.478L589.522 422.506L741.403 414.328L747.453 431.584L768.749 437.343L786.388 450.852L807.838 443.838L826.869 453.863L845.608 443.993L864.348 453.863L883.088 443.993L901.827 453.863L920.567 443.993L939.307 453.863L958.046 443.993L976.786 453.863L995.525 443.993L1014.27 453.863L1033 443.993L1051.74 453.863L1070.48 443.993L1089.22 453.863L1107.96 443.993L1126.7 453.863L1145.44 443.993L1164.18 453.863L1185.75 442.501C1186.01 442.473 1186.29 442.437 1186.55 442.41L1207.21 447.913L1222.43 434.85L1243.63 429.883L1251.22 410.361L1263.15 398.18L1259.31 378.722H1318.11C1322.89 378.722 1326.76 374.847 1326.76 370.071V353.142H1335.05V345.573H1326.76V339.624H1335.05V332.055H1326.76V326.115H1335.05V318.546H1326.76V275.663H1326.69ZM1289.47 197.73C1291.98 197.73 1294.02 199.768 1294.02 202.288C1294.02 204.799 1291.98 206.836 1289.47 206.836C1286.96 206.836 1284.92 204.799 1284.92 202.288C1284.92 199.768 1286.96 197.73 1289.47 197.73ZM1261.11 197.73C1263.62 197.73 1265.66 199.768 1265.66 202.288C1265.66 204.799 1263.62 206.836 1261.11 206.836C1258.6 206.836 1256.56 204.799 1256.56 202.288C1256.56 199.768 1258.6 197.73 1261.11 197.73ZM1234.17 222.947L1220.06 258.379H971.773L944.41 228.769H1034.95L1036.82 256.578L1042.02 178.791L1140.83 163.353L1146.29 256.578L1151.85 161.634L1170.25 158.759L1234.17 222.947ZM1213.83 263.783C1213.83 263.783 1210.23 263.883 1203.92 264.065C1197.6 264.183 1188.59 264.465 1177.77 264.593C1166.96 264.711 1154.33 264.984 1140.8 265.029C1127.28 265.093 1112.85 265.157 1098.43 265.22C1084 265.157 1069.57 265.093 1056.05 265.029C1042.52 264.975 1029.9 264.711 1019.08 264.593C1008.26 264.374 999.237 264.192 992.933 264.065C986.62 263.883 983.017 263.783 983.017 263.783C983.017 263.783 986.62 263.683 992.933 263.501C999.246 263.373 1008.26 263.192 1019.08 262.973C1029.89 262.855 1042.52 262.591 1056.05 262.537C1069.57 262.473 1084 262.409 1098.43 262.346C1112.86 262.409 1127.28 262.473 1140.8 262.537C1154.33 262.582 1166.95 262.855 1177.77 262.973C1188.59 263.101 1197.61 263.392 1203.92 263.501C1210.22 263.683 1213.83 263.783 1213.83 263.783ZM948.995 113.748L950.277 108.153H957.555L960.466 75.3133L957.846 75.0222L965.124 43.1466H989.922V181.101L988.375 182.011L984.391 57.447L980.252 186.778L966.352 194.928L956.636 165.782L943.655 170.922L940.244 159.851L956.6 159.369L959.238 114.594L948.995 113.748ZM995.198 113.165C995.234 107.716 995.262 102.267 995.298 96.9002C995.307 91.533 995.471 86.2568 995.544 81.1444C995.753 70.9285 996.053 61.3859 996.426 53.2169C997.108 36.8697 998.073 25.9717 998.073 25.9717C998.073 25.9717 999.037 36.8697 999.719 53.2169C1000.09 61.395 1000.4 70.9285 1000.6 81.1444C1000.67 86.2568 1000.84 91.533 1000.85 96.9002C1000.88 102.267 1000.91 107.716 1000.95 113.165C1000.91 118.615 1000.88 124.064 1000.85 129.431C1000.85 134.798 1000.67 140.074 1000.6 145.187C1000.4 155.402 1000.09 164.945 999.719 173.114C999.037 189.461 998.063 200.359 998.063 200.359C998.063 200.359 997.09 189.461 996.408 173.114C996.035 164.936 995.726 155.402 995.525 145.187C995.453 140.074 995.28 134.798 995.28 129.431C995.262 124.064 995.225 118.615 995.198 113.165ZM1030.5 113.165C1030.57 104.287 1030.63 95.4083 1030.69 87.0846C1030.75 78.761 1031.01 70.9922 1031.13 64.3333C1031.26 57.6744 1031.54 52.1252 1031.66 48.2409C1031.84 44.3565 1031.94 42.1369 1031.94 42.1369C1031.94 42.1369 1032.04 44.3565 1032.22 48.2409C1032.34 52.1252 1032.62 57.6744 1032.75 64.3333C1032.87 70.9922 1033.13 78.761 1033.19 87.0846C1033.25 95.4083 1033.31 104.287 1033.38 113.165C1033.31 122.044 1033.25 130.923 1033.19 139.246C1033.14 147.57 1032.87 155.339 1032.75 161.998C1032.62 168.657 1032.33 174.206 1032.22 178.09C1032.04 181.974 1031.94 184.194 1031.94 184.194C1031.94 184.194 1031.84 181.974 1031.66 178.09C1031.54 174.206 1031.26 168.657 1031.13 161.998C1031.01 155.339 1030.74 147.57 1030.69 139.246C1030.63 130.923 1030.57 122.044 1030.5 113.165ZM1090.86 125.837L1087.08 143.085H1053.21V131.55H1049.61V143.085H1047.09V131.55H1043.48V143.085H1040.69V131.55H1039.3V125.837H1090.86ZM1039.29 118.387V46.6671H1072.99V118.387H1039.29ZM1100.69 97.7462C1095.91 97.7462 1093.52 111.191 1092.57 118.387H1081.62V46.6671H1115.32V74.7584C1094.16 74.7493 1100.69 97.7462 1100.69 97.7462ZM1146.29 118.387V46.6671H1153.74V118.387H1146.29ZM1160.22 91.0691C1160.26 87.2666 1160.29 83.455 1160.32 79.7071C1160.33 75.9591 1160.5 72.2749 1160.57 68.7089C1160.77 61.5769 1161.08 54.918 1161.45 49.2052C1162.14 37.7885 1163.1 30.1744 1163.1 30.1744C1163.1 30.1744 1164.06 37.7885 1164.75 49.2052C1165.12 54.9089 1165.43 61.5769 1165.63 68.7089C1165.7 72.2749 1165.86 75.9682 1165.87 79.7071C1165.91 83.455 1165.94 87.2575 1165.97 91.0691C1165.94 94.8716 1165.91 98.6832 1165.87 102.431C1165.87 106.179 1165.7 109.863 1165.63 113.429C1165.43 120.561 1165.12 127.229 1164.75 132.933C1164.06 144.35 1163.09 151.964 1163.09 151.964C1163.09 151.964 1162.12 144.35 1161.43 132.933C1161.06 127.22 1160.75 120.561 1160.55 113.429C1160.48 109.863 1160.31 106.17 1160.31 102.431C1160.29 98.6741 1160.25 94.8716 1160.22 91.0691ZM1033.41 3.34766C1035.88 3.2294 1039.39 2.94737 1043.62 2.82002C1047.84 2.69266 1052.77 2.45615 1058.05 2.36518C1063.32 2.24692 1068.96 2.21962 1074.59 2.19233C1080.22 2.21962 1085.85 2.23782 1091.12 2.36518C1096.4 2.44705 1101.33 2.69266 1105.55 2.82002C1109.77 2.94737 1113.29 3.2385 1115.76 3.34766C1118.22 3.5296 1119.63 3.62965 1119.63 3.62965C1119.63 3.62965 1118.22 3.72973 1115.76 3.91167C1113.29 4.02993 1109.77 4.31192 1105.55 4.43928C1101.33 4.56664 1096.4 4.81225 1091.12 4.89412C1085.85 5.02147 1080.22 5.03968 1074.59 5.06697C1068.96 5.03968 1063.32 5.01238 1058.05 4.89412C1052.77 4.80315 1047.84 4.56664 1043.62 4.43928C1039.4 4.31192 1035.88 4.02993 1033.41 3.91167C1030.95 3.72973 1029.54 3.62965 1029.54 3.62965C1029.54 3.62965 1030.95 3.5296 1033.41 3.34766ZM934.731 91.433C936.96 82.8546 939.407 74.3399 941.754 65.7888L949.077 40.2447L956.6 14.7552C956.945 13.5726 958.037 12.7993 959.211 12.7993H959.247C978.259 12.7629 997.272 12.6356 1016.28 12.7356C1035.3 12.7447 1054.31 12.8903 1073.32 13.0813C1092.33 13.2906 1111.35 13.5453 1130.36 13.9547L1158.88 14.6733C1168.38 14.9189 1177.89 15.1827 1187.4 15.5648C1177.89 15.9469 1168.38 16.2107 1158.88 16.4654L1130.36 17.184C1111.35 17.5934 1092.33 17.8481 1073.32 18.0574C1054.31 18.2393 1035.3 18.3848 1016.28 18.403C997.945 18.5031 979.606 18.3848 961.266 18.3484L953.798 41.7002L945.502 66.9441C942.645 75.3315 939.88 83.7461 936.905 92.097C933.958 100.457 931.101 108.844 928.008 117.159C930.128 108.553 932.475 100.002 934.731 91.433ZM857.453 112.137C857.544 111.237 857.726 110.382 857.953 109.572C858.453 107.935 859.227 106.388 860.182 105.006C861.128 103.614 862.374 102.495 863.639 101.54C864.903 100.575 866.322 99.9386 867.678 99.4746C869.033 98.9743 870.398 98.8378 871.626 98.7559C872.881 98.7195 873.963 98.8378 874.9 98.947C875.847 99.0471 876.674 99.1289 877.357 99.2017C878.721 99.3564 879.503 99.4837 879.503 99.4837C879.503 99.4837 878.721 99.611 877.357 99.7657C876.038 99.9294 873.954 100.066 871.798 100.402C870.725 100.648 869.57 100.939 868.442 101.485C867.314 102.013 866.195 102.686 865.176 103.55C863.129 105.26 861.464 107.671 860.7 110.382C860.491 111.064 860.345 111.737 860.254 112.383C860.154 113.02 860.118 113.966 860.109 114.576C860.1 116.113 860.018 117.623 859.982 119.078C859.909 121.143 859.809 123.054 859.69 124.855L857.762 125.037C857.635 123.19 857.525 121.216 857.453 119.078C857.416 117.614 857.334 116.104 857.325 114.576C857.353 113.639 857.362 113.029 857.453 112.137ZM800.979 68.3905C800.979 65.8797 803.017 63.8511 805.518 63.8511H808.129V100.166L806.674 65.7888L803.954 129.995L800.97 130.268L800.979 68.3905ZM724.874 144.704C730.342 143.968 738.138 142.758 747.517 141.602C756.886 140.402 767.839 139.119 779.583 137.873C785.46 137.281 791.518 136.581 797.695 136.017C803.863 135.435 810.131 134.843 816.407 134.261C822.684 133.734 828.961 133.215 835.138 132.697C841.315 132.151 847.401 131.778 853.286 131.332C865.067 130.495 876.065 129.831 885.507 129.367C894.941 128.858 902.828 128.685 908.341 128.439C913.853 128.257 917.01 128.239 917.01 128.239C917.01 128.239 913.899 128.776 908.432 129.558C902.964 130.295 895.168 131.505 885.789 132.66C876.411 133.861 865.467 135.144 853.723 136.39C847.846 136.981 841.788 137.691 835.611 138.237C829.443 138.819 823.175 139.401 816.899 139.992C810.622 140.511 804.345 141.038 798.168 141.548C791.991 142.085 785.905 142.457 780.02 142.903C768.239 143.74 757.241 144.404 747.799 144.868C738.365 145.378 730.478 145.56 724.965 145.796C719.453 145.978 716.296 146.005 716.296 146.005C716.296 146.005 719.416 145.487 724.874 144.704ZM911.042 149.18L930.019 223.202L738.347 227.887L736.473 170.458L734.599 227.977L702.369 228.769L734.754 229.56L734.799 229.642L774.58 311.296L774.216 311.724L755.722 311.696L750.291 319.601L693.972 298.469V187.815L700.959 169.048L911.042 149.18ZM720.981 57.3469C721.518 55.9005 722.591 54.7542 723.992 54.1175C724.319 53.9628 724.665 53.8628 725.011 53.7718L655.765 238.202L653.509 238.657L720.981 57.3469ZM652.345 241.787L663.343 245.298L649.734 281.877L647.851 281.167C649.734 275.409 651.417 269.987 652.791 265.257C655.929 254.64 657.539 247.39 657.539 247.39C657.539 247.39 654.11 253.976 649.679 264.129C647.687 268.622 645.495 273.844 643.239 279.448L640.892 278.565C640.774 277.11 640.546 275.691 640.264 274.299L652.345 241.787ZM685.312 211.048V295.213L657.83 284.897L685.312 211.048ZM605.478 254.477C620.315 254.477 632.341 266.503 632.341 281.34C632.341 282.413 632.259 283.46 632.141 284.497L778.091 339.269C776.654 341.216 775.017 343.417 773.234 345.782L632.695 297.978L727.321 336.385L626.2 298.442C622.016 303.518 615.994 307.002 609.153 307.939V270.387C609.153 269.205 608.907 268.04 608.443 266.949L607.952 265.821C608.57 265.966 609.189 266.112 609.808 266.284C611.3 266.785 612.782 267.349 614.165 268.104C615.575 268.804 616.849 269.714 618.077 270.624C619.287 271.561 620.378 272.598 621.379 273.644C622.352 274.717 623.207 275.818 623.981 276.901C624.681 278.01 625.382 279.057 625.882 280.066C626.437 281.067 626.773 281.949 627.165 282.723C627.765 284.36 628.165 285.315 628.165 285.315C628.165 285.315 628.238 285.07 628.374 284.615C628.484 284.151 628.72 283.487 628.866 282.623C628.938 281.749 629.184 280.567 629.084 279.302C629.084 278.01 628.92 276.555 628.584 274.972C628.384 274.19 628.111 273.398 627.856 272.543C627.556 271.715 627.146 270.906 626.764 270.032C625.882 268.368 624.781 266.667 623.38 265.111C622.671 264.347 621.952 263.546 621.097 262.882C620.287 262.155 619.414 261.481 618.459 260.908C616.621 259.653 614.502 258.77 612.364 258.025C610.172 257.433 607.934 256.969 605.705 256.969L604.113 256.951L603.112 254.631C603.904 254.559 604.677 254.477 605.478 254.477ZM755.222 356.089C754.248 359.137 753.757 362.321 753.693 365.605L740.803 366.441C740.812 361.202 741.749 356.317 743.568 351.714L755.222 356.089ZM728.886 367.233L626.655 373.91L625.263 372.409L646.514 315.308L732.243 347.474L725.702 355.016L728.886 367.233ZM627.174 309.431C627.574 309.122 627.992 308.822 628.384 308.494L631.813 309.777C631.54 310.55 631.258 311.351 630.985 312.124C629.757 315.535 628.684 318.937 627.574 322.212C625.4 328.771 623.48 334.93 621.943 340.251C618.804 350.868 617.185 358.118 617.185 358.118C617.185 358.118 620.615 351.523 625.036 341.379C627.274 336.313 629.775 330.363 632.332 323.95C633.587 320.73 634.961 317.436 636.207 314.034C636.489 313.279 636.78 312.515 637.062 311.76L638.427 312.269L618.704 365.277L609.944 355.771L627.174 309.431ZM609.162 333.019V316.645C611.409 316.408 613.61 315.963 615.748 315.317L609.162 333.019ZM586.101 414.027L571.018 427.009L523.342 419.076L558.028 431.393L474.637 450.542L518.839 418.357L551.506 276.146L525.079 133.943H541.417L598.837 266.512L555.235 275.864L600.52 273.926V358.309V394.951L587.784 410.088L607.242 395.952V365.595L623.098 382.798L762.899 373.673C762.899 373.673 762.918 373.646 762.927 373.637L835.074 368.779L768.212 366.742C776.536 355.834 791.728 335.812 791.728 334.766C791.728 334.739 791.746 334.721 791.791 334.721C793.956 334.721 848.419 368.87 848.419 368.87L1058.98 353.86C1056.77 358.063 1055.49 362.839 1055.49 367.906C1055.49 371.445 1056.14 374.829 1057.26 377.995L616.849 408.633L989.749 392.304L586.101 414.027ZM866.522 337.195C874.509 336.758 885.926 336.458 899.589 336.713C906.439 336.913 913.863 337.131 921.722 337.359C929.591 337.568 937.887 337.841 946.475 337.941C955.062 338.05 963.932 338.296 972.947 338.314C981.962 338.359 991.122 338.414 1000.27 338.468C1009.43 338.423 1018.6 338.368 1027.6 338.323C1036.62 338.323 1045.49 338.068 1054.07 337.95C1062.66 337.886 1071 337.45 1078.68 337.622C1080.35 337.659 1082.01 337.704 1083.65 337.75C1077.12 338.205 1071.15 340.706 1066.41 344.654L1022.02 347.82V341.843H1006.01V348.966L906.721 356.044V341.843H890.702V357.181L851.612 359.964C848.465 349.73 841.906 340.997 833.282 335.039C841.797 333.647 861.301 330.918 883.488 330.918C890.957 330.918 904.711 330.918 921.795 330.918C921.768 330.918 921.75 330.918 921.722 330.918C913.863 331.109 906.412 331.355 899.489 331.764C885.68 332.528 874.255 334.093 866.322 335.494C858.39 336.895 853.959 338.168 853.959 338.168C853.959 338.168 858.535 337.613 866.522 337.195ZM1191.27 343.754C1192.43 343.881 1194.07 344.391 1196.05 344.927C1197.03 345.309 1198.12 345.691 1199.27 346.183C1200.37 346.801 1201.64 347.22 1202.83 348.029C1205.32 349.421 1207.82 351.45 1210.18 353.888C1212.03 355.844 1213.71 358.163 1215.12 360.756C1209.79 352.214 1200.34 346.51 1189.53 346.51C1172.88 346.51 1159.37 360.019 1159.37 376.675C1159.37 387.428 1165.01 396.843 1173.48 402.183C1170.95 400.791 1168.68 399.127 1166.76 397.316C1164.31 394.951 1162.29 392.459 1160.9 389.975C1160.09 388.783 1159.66 387.51 1159.05 386.409C1158.56 385.263 1158.18 384.171 1157.8 383.189C1157.25 381.178 1156.75 379.55 1156.61 378.413C1156.39 377.276 1156.28 376.666 1156.28 376.666C1156.28 376.666 1156.22 377.285 1156.11 378.44C1155.97 379.605 1155.97 381.315 1156.1 383.534C1156.27 384.617 1156.41 385.845 1156.66 387.173C1157 388.465 1157.29 389.921 1157.9 391.367C1158.91 394.351 1160.62 397.553 1163.08 400.646C1166.04 404.476 1170.33 408.078 1175.63 410.543C1162.32 405.058 1152.9 391.949 1152.9 376.666C1152.9 356.462 1169.34 340.033 1189.54 340.033C1204.88 340.033 1218.03 349.512 1223.48 362.921C1222.99 361.875 1222.47 360.865 1221.91 359.901C1219.62 355.88 1216.61 352.66 1213.51 350.222C1210.41 347.756 1207.21 346.046 1204.23 345.036C1202.78 344.427 1201.32 344.154 1200.03 343.799C1198.7 343.554 1197.49 343.408 1196.39 343.244C1194.15 343.099 1192.46 343.108 1191.3 343.253C1190.14 343.354 1189.53 343.408 1189.53 343.408C1189.53 343.408 1190.14 343.535 1191.27 343.754ZM1211.7 376.685C1211.7 388.929 1201.78 398.863 1189.53 398.863C1177.27 398.863 1167.35 388.938 1167.35 376.685C1167.35 364.44 1177.27 354.506 1189.53 354.506C1201.78 354.506 1211.7 364.44 1211.7 376.685ZM1144.49 376.685C1144.49 394.796 1155.26 410.407 1170.71 417.548C1167.62 417.693 1164.65 417.757 1161.89 417.757H911.179L1094.88 413.854L961.912 411.025C1021.72 408.042 1080.24 404.94 1091.54 403.939C1112.27 402.101 1116.9 385.399 1115.83 371.135C1115.94 370.071 1116.01 368.989 1116.01 367.897C1116.01 352.569 1104.55 339.897 1089.75 337.932C1093.55 338.059 1097.24 338.196 1100.77 338.341C1114.49 338.905 1125.94 339.378 1133.94 339.715C1141.97 339.979 1146.55 340.133 1146.55 340.133C1146.55 340.133 1142.04 339.287 1134.11 337.995C1126.18 336.731 1114.84 334.993 1101.16 333.383C1094.32 332.565 1086.9 331.719 1078.98 331.155C1077.63 331.054 1076.28 330.982 1074.92 330.909C1078.93 330.909 1082.6 330.909 1085.75 330.909C1118.69 330.909 1151.93 336.212 1165.47 338.659C1152.88 346.665 1144.49 360.692 1144.49 376.685ZM1086.76 348.948C1087.43 349.085 1088.37 349.485 1089.45 349.876C1090.56 350.376 1091.84 351.031 1093.16 351.95C1094.49 352.832 1095.79 354.079 1097.01 355.489C1099.38 358.372 1101.13 362.384 1101.12 366.678C1101.09 367.169 1101.13 367.851 1101.05 368.188C1100.97 368.798 1100.96 369.689 1100.81 370.044C1100.62 370.899 1100.33 372.027 1099.91 373.018C1099.08 375.029 1097.88 376.921 1096.31 378.477C1094.75 380.041 1092.86 381.242 1090.85 382.07C1088.78 382.87 1086.78 383.289 1084.41 383.262C1080.34 383.289 1076.18 381.533 1073.34 379.159C1071.93 377.949 1070.69 376.648 1069.8 375.32C1068.88 374.01 1068.24 372.718 1067.73 371.618C1067.33 370.49 1066.93 369.571 1066.79 368.925C1066.6 368.27 1066.49 367.924 1066.49 367.924C1066.49 367.924 1066.43 368.279 1066.29 368.952C1066.15 369.634 1066.04 370.644 1066.04 371.963C1066.1 373.264 1066.21 374.92 1066.8 376.721C1067.3 378.558 1068.23 380.56 1069.66 382.497C1069.89 382.834 1070.17 383.162 1070.43 383.489C1066.39 379.523 1063.88 374.01 1063.88 367.915C1063.88 355.862 1073.69 346.055 1085.74 346.055C1091.87 346.055 1097.41 348.602 1101.39 352.687C1101.03 352.396 1100.67 352.096 1100.31 351.841C1098.37 350.413 1096.36 349.485 1094.54 348.984C1092.73 348.393 1091.09 348.293 1089.78 348.22C1088.42 348.22 1087.43 348.329 1086.77 348.475C1086.09 348.602 1085.74 348.666 1085.74 348.666C1085.74 348.666 1086.1 348.757 1086.76 348.948ZM839.059 352.814C826.278 344.845 817.144 339.242 810.567 335.321C822.511 336.54 832.836 343.235 839.059 352.814ZM819.81 410.107C815.68 411.617 811.249 412.472 806.61 412.472C803.426 412.472 800.342 412.044 797.377 411.307L819.81 410.107ZM1165.98 434.932H820.073C797.431 434.932 769.158 434.905 753.22 413.7L772.788 412.645C790.372 426.144 816.444 426.163 834.938 426.163H1161.88C1211.42 426.163 1239.84 408.342 1239.84 377.276C1239.84 309.313 1075.83 308.531 1068.85 308.531H902.773C899.025 308.476 820.856 307.939 779.365 330.509L767.675 326.124C808.775 301.717 883.097 300.889 892.585 300.889C893.185 300.889 893.522 300.889 893.586 300.889H1073.75C1075.51 300.889 1250.31 301.844 1250.31 380.878C1250.3 420.732 1206.75 434.932 1165.98 434.932ZM1311.55 352.778H1301.06L1296.98 288.053L1292.89 352.778H1271.5L1267.41 288.053L1263.33 352.778H1258.22L1244.82 341.907L1236.03 322.003L1209.56 317.045L1194.61 300.171L1169.34 303.309L1150.65 287.844L1127.75 294.394L1108.13 281.613L1082.86 292.056L1062.07 281.103L1042.65 291.328L1023.23 281.103L1003.8 291.328L984.382 281.103L964.96 291.328L945.538 281.103L926.116 291.328L906.694 281.103L886.235 291.883L867.678 282.732L847.655 293.957L827.087 287.071L809.257 300.525L785.978 297.978L780.347 304.528L739.111 229.651L937.915 234.509L958.565 256.851L975.094 276.982H1233.21L1255.57 219.445H1291.44L1310.56 271.952L1237.78 276.982L1311.52 282.086V352.778H1311.55Z" fill="#3F3F3F"/>
<path d="M694.072 386.718C713.83 385.8 736.882 384.599 761.571 383.18C773.916 382.452 786.66 381.697 799.623 380.933C812.577 380.114 825.741 379.286 838.895 378.458C852.049 377.567 865.212 376.666 878.157 375.784C891.102 374.847 903.847 373.937 916.173 373.046C940.835 371.226 963.841 369.407 983.554 367.742C1003.27 366.123 1019.69 364.531 1031.19 363.53C1042.67 362.42 1049.24 361.784 1049.24 361.784C1049.24 361.784 1042.65 362.011 1031.11 362.411C1019.59 362.921 1003.1 363.485 983.344 364.449C963.586 365.368 940.534 366.569 915.845 367.988C903.501 368.716 890.756 369.471 877.793 370.235C864.839 371.053 851.676 371.881 838.522 372.709C825.368 373.601 812.204 374.501 799.259 375.374C786.315 376.302 773.57 377.221 761.244 378.113C736.582 379.932 713.576 381.742 693.863 383.407C674.15 385.017 657.73 386.627 646.231 387.628C634.742 388.738 628.174 389.375 628.174 389.375C628.174 389.375 634.769 389.147 646.304 388.747C657.83 388.238 674.314 387.692 694.072 386.718Z" fill="#3F3F3F"/>
<path d="M561.358 202.552C563.022 206.354 564.687 210.166 566.334 213.905C567.944 217.662 569.69 221.3 571.291 224.848C574.548 231.925 577.696 238.493 580.488 244.07C586.028 255.259 590.195 262.509 590.195 262.509C590.195 262.509 587.811 254.486 583.536 242.76C581.425 236.883 578.842 230.079 575.958 222.838C574.494 219.226 573.065 215.46 571.455 211.703C569.872 207.928 568.271 204.098 566.661 200.268C564.996 196.466 563.323 192.654 561.685 188.906C560.066 185.149 558.328 181.52 556.727 177.963C553.471 170.885 550.323 164.317 547.53 158.741C541.99 147.552 537.833 140.292 537.833 140.292C537.833 140.292 540.216 148.307 544.501 160.033C546.612 165.909 549.195 172.714 552.079 179.955C553.543 183.566 554.981 187.332 556.582 191.089C558.146 194.883 559.747 198.713 561.358 202.552Z" fill="#3F3F3F"/>
<path d="M596.017 391.13L596.053 390.257C596.254 385.691 596.317 381.133 596.426 376.566C596.554 372 596.581 367.433 596.608 362.875C596.636 358.309 596.699 353.751 596.636 349.185C596.59 344.618 596.599 340.06 596.508 335.494C596.345 326.37 596.09 317.236 595.662 308.112C595.226 298.988 594.689 289.855 593.788 280.73C592.888 289.855 592.351 298.988 591.914 308.112C591.496 317.245 591.241 326.37 591.077 335.494C590.986 340.06 590.996 344.627 590.95 349.185C590.886 353.751 590.95 358.318 590.977 362.875C591.005 367.442 591.032 372 591.159 376.566C591.259 380.896 591.332 385.227 591.505 389.557C587.994 394.251 584.555 399.008 581.144 403.784C577.614 408.842 574.066 413.882 570.728 419.085C575.076 414.682 579.215 410.116 583.372 405.567C587.475 400.973 591.56 396.361 595.553 391.676L596.017 391.13Z" fill="#3F3F3F"/>
<path d="M914.263 269.005C908.677 268.813 903.083 268.768 897.497 268.641C891.912 268.495 886.317 268.504 880.732 268.459C875.137 268.422 869.552 268.368 863.966 268.431C852.786 268.45 841.606 268.632 830.426 268.886L829.643 268.904L829.098 269.232L817.326 276.191C813.387 278.493 809.521 280.921 805.618 283.278C797.85 288.053 790.099 292.884 782.503 297.996C790.881 294.321 799.114 290.373 807.31 286.37C811.395 284.333 815.516 282.368 819.564 280.285L831.062 274.426C842.033 274.663 852.995 274.845 863.966 274.863C869.552 274.927 875.146 274.872 880.732 274.836C886.317 274.79 891.912 274.799 897.497 274.654C903.092 274.526 908.677 274.481 914.263 274.281C919.848 274.081 925.443 273.971 931.028 273.689C942.208 273.225 953.389 272.607 964.569 271.643C953.389 270.678 942.208 270.06 931.028 269.596C925.443 269.314 919.848 269.205 914.263 269.005Z" fill="#3F3F3F"/>
<path d="M807.692 180.546C811.449 180.619 815.334 180.783 819.282 180.792C823.23 180.828 827.233 180.856 831.244 180.892C835.256 180.865 839.259 180.828 843.207 180.792C847.155 180.792 851.039 180.619 854.796 180.546C862.31 180.346 869.324 180.037 875.337 179.664C887.363 178.982 895.377 178.008 895.377 178.008C895.377 178.008 887.363 177.035 875.337 176.353C869.324 175.98 862.31 175.67 854.796 175.47C851.039 175.397 847.155 175.225 843.207 175.225C839.259 175.188 835.256 175.161 831.244 175.125C827.233 175.161 823.23 175.188 819.282 175.225C815.334 175.234 811.449 175.397 807.692 175.47C800.178 175.679 793.165 175.98 787.152 176.353C775.126 177.035 767.111 177.999 767.111 177.999C767.111 177.999 775.126 178.963 787.152 179.646C793.165 180.037 800.178 180.346 807.692 180.546Z" fill="#FFC629"/>
<path d="M807.692 196.402C811.449 196.475 815.334 196.639 819.282 196.648C823.23 196.684 827.233 196.711 831.244 196.748C835.256 196.711 839.259 196.684 843.207 196.648C847.155 196.648 851.039 196.475 854.796 196.402C862.31 196.202 869.324 195.893 875.337 195.52C887.363 194.837 895.377 193.864 895.377 193.864C895.377 193.864 887.363 192.891 875.337 192.208C869.324 191.835 862.31 191.526 854.796 191.326C851.039 191.253 847.155 191.08 843.207 191.08C839.259 191.044 835.256 191.017 831.244 190.98C827.233 191.017 823.23 191.044 819.282 191.08C815.334 191.089 811.449 191.253 807.692 191.326C800.178 191.526 793.165 191.835 787.152 192.208C775.126 192.891 767.111 193.855 767.111 193.855C767.111 193.855 775.126 194.819 787.152 195.501C793.165 195.893 800.178 196.202 807.692 196.402Z" fill="#FFC629"/>
<path d="M807.692 212.258C811.449 212.331 815.334 212.495 819.282 212.504C823.23 212.54 827.233 212.567 831.244 212.604C835.256 212.567 839.259 212.54 843.207 212.504C847.155 212.504 851.039 212.331 854.796 212.258C862.31 212.058 869.324 211.749 875.337 211.376C887.363 210.693 895.377 209.72 895.377 209.72C895.377 209.72 887.363 208.747 875.337 208.064C869.324 207.691 862.31 207.382 854.796 207.182C851.039 207.109 847.155 206.936 843.207 206.936C839.259 206.9 835.256 206.873 831.244 206.836C827.233 206.873 823.23 206.9 819.282 206.936C815.334 206.945 811.449 207.109 807.692 207.182C800.178 207.382 793.165 207.691 787.152 208.064C775.126 208.747 767.111 209.711 767.111 209.711C767.111 209.711 775.126 210.675 787.152 211.357C793.165 211.749 800.178 212.049 807.692 212.258Z" fill="#FFC629"/>
<path d="M1048.49 250.447H1134.61V228.76H1048.49V250.447ZM1054.16 232.681H1128.95L1054.16 246.535V232.681Z" fill="#3F3F3F"/>
<path d="M1215.11 236.519H1200.7V250.929H1215.11V236.519Z" fill="#3F3F3F"/>
<path d="M1191.51 236.519H1177.1V250.929H1191.51V236.519Z" fill="#3F3F3F"/>
<path d="M932.056 245.289H917.647V259.698H932.056V245.289Z" fill="#3F3F3F"/>
<path d="M786.242 245.289H771.833V259.698H786.242V245.289Z" fill="#3F3F3F"/>
<path d="M1106.93 172.632C1104.39 172.996 1101.76 173.269 1099.1 173.724C1096.45 174.151 1093.75 174.579 1091.05 175.006C1088.37 175.498 1085.68 175.998 1083.04 176.48C1080.39 176.944 1077.81 177.553 1075.3 178.063C1070.28 179.127 1065.63 180.246 1061.65 181.301C1053.69 183.357 1048.47 185.231 1048.47 185.231C1048.47 185.231 1054.02 185.258 1062.21 184.549C1066.31 184.221 1071.07 183.721 1076.15 183.057C1078.69 182.702 1081.32 182.411 1083.97 181.965C1086.63 181.547 1089.32 181.119 1092.03 180.683C1094.71 180.192 1097.39 179.691 1100.04 179.209C1102.69 178.754 1105.27 178.136 1107.78 177.635C1112.79 176.571 1117.45 175.461 1121.43 174.397C1129.39 172.341 1134.61 170.458 1134.61 170.458C1134.61 170.458 1129.06 170.421 1120.87 171.14C1116.77 171.458 1112.01 171.959 1106.93 172.632Z" fill="#3F3F3F"/>
<path d="M729.123 239.949H701.741V245.289H729.123V239.949Z" fill="#3F3F3F"/>
<path d="M729.123 255.223H701.741V260.563H729.123V255.223Z" fill="#3F3F3F"/>
<path d="M729.123 270.496H701.741V275.836H729.123V270.496Z" fill="#3F3F3F"/>
<path d="M729.123 285.779H701.741V291.119H729.123V285.779Z" fill="#3F3F3F"/>
<path d="M715.432 221.628C720.153 221.628 723.992 217.798 723.992 213.068C723.992 208.337 720.162 204.507 715.432 204.507C710.701 204.507 706.871 208.337 706.871 213.068C706.871 217.789 710.701 221.628 715.432 221.628Z" fill="#3F3F3F"/>
<path d="M715.432 193.873C720.153 193.873 723.992 190.043 723.992 185.313C723.992 180.582 720.162 176.753 715.432 176.753C710.701 176.753 706.871 180.582 706.871 185.313C706.871 190.043 710.701 193.873 715.432 193.873Z" fill="#3F3F3F"/>
<path d="M1189.53 357.863C1179.13 357.863 1170.7 366.287 1170.7 376.684C1170.7 387.082 1179.13 395.506 1189.53 395.506C1199.92 395.506 1208.35 387.082 1208.35 376.684C1208.35 366.287 1199.92 357.863 1189.53 357.863Z" fill="#3F3F3F"/>
<path d="M1131.01 347.829C1127.09 347.829 1123.91 351.013 1123.91 354.934C1123.91 358.855 1127.08 362.038 1131.01 362.038C1134.94 362.038 1138.12 358.855 1138.12 354.934C1138.12 351.013 1134.94 347.829 1131.01 347.829Z" fill="#3F3F3F"/>
<path d="M1131.01 372.955C1127.09 372.955 1123.91 376.13 1123.91 380.059C1123.91 383.98 1127.08 387.164 1131.01 387.164C1134.94 387.164 1138.12 383.989 1138.12 380.059C1138.12 376.13 1134.94 372.955 1131.01 372.955Z" fill="#3F3F3F"/>
<path d="M1131.01 398.071C1127.09 398.071 1123.91 401.255 1123.91 405.176C1123.91 409.097 1127.08 412.281 1131.01 412.281C1134.94 412.281 1138.12 409.097 1138.12 405.176C1138.12 401.255 1134.94 398.071 1131.01 398.071Z" fill="#3F3F3F"/>
</g>
<g filter="url(#filter1_d_551_10955)">
<path d="M48.1701 442.61C41.8067 442.61 35.9034 441.613 30.4601 439.62C25.0934 437.55 20.4167 434.637 16.4301 430.88C12.5201 427.123 9.45341 422.715 7.23008 417.655C5.00674 412.518 3.89508 406.883 3.89508 400.75C3.89508 394.617 5.00674 389.02 7.23008 383.96C9.45341 378.823 12.5201 374.377 16.4301 370.62C20.4167 366.863 25.0934 363.988 30.4601 361.995C35.9034 359.925 41.8067 358.89 48.1701 358.89C55.6067 358.89 62.2384 360.193 68.0651 362.8C73.9684 365.407 78.8751 369.163 82.7851 374.07L68.2951 387.18C65.6884 384.113 62.8134 381.775 59.6701 380.165C56.6034 378.555 53.1534 377.75 49.3201 377.75C46.0234 377.75 42.9951 378.287 40.2351 379.36C37.4751 380.433 35.0984 382.005 33.1051 384.075C31.1884 386.068 29.6551 388.483 28.5051 391.32C27.4317 394.157 26.8951 397.3 26.8951 400.75C26.8951 404.2 27.4317 407.343 28.5051 410.18C29.6551 413.017 31.1884 415.47 33.1051 417.54C35.0984 419.533 37.4751 421.067 40.2351 422.14C42.9951 423.213 46.0234 423.75 49.3201 423.75C53.1534 423.75 56.6034 422.945 59.6701 421.335C62.8134 419.725 65.6884 417.387 68.2951 414.32L82.7851 427.43C78.8751 432.26 73.9684 436.017 68.0651 438.7C62.2384 441.307 55.6067 442.61 48.1701 442.61ZM96.3236 422.945C100.847 424.248 104.527 424.67 107.364 424.21C110.277 423.673 112.845 421.757 115.069 418.46L118.979 412.71L120.934 410.525L146.004 360.5H168.199L134.849 422.715C131.552 428.848 127.604 433.602 123.004 436.975C118.48 440.348 113.497 442.265 108.054 442.725C102.61 443.185 96.8986 442.188 90.9186 439.735L96.3236 422.945ZM120.589 428.81L83.7886 360.5H107.824L133.009 412.71L120.589 428.81ZM175.503 441V360.5H194.248L227.483 415.24H217.593L250.138 360.5H268.883L269.113 441H248.068L247.953 392.355H251.518L227.253 433.065H217.133L192.178 392.355H196.433V441H175.503ZM319.702 441V360.5H342.127V422.945H373.062V360.5H395.487V441H319.702ZM385.712 457.445V435.94L390.427 441H373.062V422.945H406.527V457.445H385.712Z" fill="#3F3F3F"/>
</g>
<g filter="url(#filter2_d_551_10955)">
<path d="M432.473 434.855L387.753 367.92L403.339 357.506L461.48 384.495L453.256 389.99L449.812 326.458L465.398 316.044L510.31 382.852L492.906 394.479L465.691 354.159L468.656 352.178L471.095 399.508L462.68 405.13L419.315 385.144L422.948 382.716L449.972 423.164L432.473 434.855Z" fill="#3F3F3F"/>
</g>
<g filter="url(#filter3_d_551_10955)">
<path d="M512.627 354.512L434.212 336.309L438.451 318.05L499.314 297.942L497.078 307.576L451.089 263.607L455.328 245.348L533.795 263.327L529.062 283.715L481.625 272.939L482.431 269.466L516.6 302.309L514.311 312.166L469.013 327.269L470.001 323.013L517.386 334.013L512.627 354.512Z" fill="#3F3F3F"/>
</g>
<path d="M756.575 208.807C754.866 208.954 753.258 208.823 751.75 208.414C750.261 207.982 748.937 207.308 747.779 206.391C746.642 205.473 745.717 204.36 745.002 203.053C744.286 201.725 743.857 200.237 743.715 198.59C743.573 196.942 743.742 195.414 744.222 194.003C744.7 192.572 745.421 191.307 746.384 190.207C747.368 189.106 748.557 188.226 749.952 187.566C751.366 186.884 752.928 186.47 754.637 186.322C756.634 186.15 758.445 186.346 760.071 186.912C761.716 187.475 763.121 188.37 764.285 189.598L760.697 193.454C759.926 192.691 759.1 192.129 758.218 191.77C757.357 191.408 756.412 191.272 755.382 191.361C754.497 191.437 753.696 191.651 752.98 192.004C752.263 192.356 751.661 192.833 751.174 193.435C750.705 194.015 750.35 194.699 750.106 195.487C749.884 196.274 749.812 197.131 749.892 198.057C749.972 198.984 750.189 199.815 750.543 200.552C750.918 201.288 751.386 201.911 751.949 202.423C752.53 202.912 753.204 203.269 753.97 203.493C754.736 203.717 755.562 203.791 756.448 203.715C757.477 203.626 758.385 203.33 759.171 202.827C759.978 202.322 760.696 201.627 761.325 200.743L765.52 203.928C764.582 205.316 763.351 206.439 761.828 207.296C760.324 208.131 758.573 208.635 756.575 208.807ZM769.053 202.41C770.298 202.656 771.296 202.684 772.047 202.494C772.817 202.283 773.462 201.709 773.983 200.772L774.9 199.137L775.375 198.505L780.949 184.489L786.91 183.975L779.394 201.457C778.651 203.18 777.7 204.548 776.543 205.561C775.406 206.571 774.112 207.201 772.661 207.451C771.21 207.701 769.653 207.565 767.99 207.045L769.053 202.41ZM775.705 203.424L764.24 185.93L770.695 185.373L778.668 198.812L775.705 203.424ZM790.736 205.426L788.872 183.806L793.906 183.372L804.1 197.304L801.443 197.533L808.916 182.078L813.951 181.644L815.877 203.258L810.225 203.746L809.067 190.684L810.025 190.601L804.451 202.097L801.733 202.331L794.088 191.975L795.231 191.877L796.357 204.941L790.736 205.426ZM829.463 202.087L827.599 180.467L833.622 179.948L835.068 196.719L843.376 196.002L841.93 179.232L847.953 178.712L849.817 200.332L829.463 202.087ZM847.572 204.975L847.074 199.2L848.458 200.449L843.794 200.851L843.376 196.002L852.364 195.227L853.163 204.493L847.572 204.975ZM855.674 199.827L853.81 178.207L858.844 177.773L869.037 191.705L866.381 191.934L873.854 176.479L878.889 176.045L880.814 197.66L875.162 198.147L874.005 185.085L874.962 185.002L869.388 196.498L866.67 196.732L859.026 186.377L860.168 186.278L861.295 199.343L855.674 199.827ZM885.413 197.263L883.549 175.643L888.583 175.209L898.777 189.141L896.12 189.37L903.594 173.915L908.628 173.481L910.554 195.096L904.902 195.583L903.744 182.521L904.702 182.438L899.128 193.934L896.41 194.168L888.765 183.812L889.908 183.714L891.034 196.778L885.413 197.263Z" fill="#3F3F3F"/>
<defs>
<filter id="filter0_d_551_10955" x="466" y="0" width="878.049" height="468.193" filterUnits="userSpaceOnUse" color-interpolation-filters="sRGB">
<feFlood flood-opacity="0" result="BackgroundImageFix"/>
<feColorMatrix in="SourceAlpha" type="matrix" values="0 0 0 0 0 0 0 0 0 0 0 0 0 0 0 0 0 0 127 0" result="hardAlpha"/>
<feOffset dx="5" dy="5"/>
<feGaussianBlur stdDeviation="2"/>
<feComposite in2="hardAlpha" operator="out"/>
<feColorMatrix type="matrix" values="0 0 0 0 0 0 0 0 0 0 0 0 0 0 0 0 0 0 0.25 0"/>
<feBlend mode="normal" in2="BackgroundImageFix" result="effect1_dropShadow_551_10955"/>
<feBlend mode="normal" in="SourceGraphic" in2="effect1_dropShadow_551_10955" result="shape"/>
</filter>
<filter id="filter1_d_551_10955" x="3.89502" y="358.89" width="411.632" height="107.555" filterUnits="userSpaceOnUse" color-interpolation-filters="sRGB">
<feFlood flood-opacity="0" result="BackgroundImageFix"/>
<feColorMatrix in="SourceAlpha" type="matrix" values="0 0 0 0 0 0 0 0 0 0 0 0 0 0 0 0 0 0 127 0" result="hardAlpha"/>
<feOffset dx="5" dy="5"/>
<feGaussianBlur stdDeviation="2"/>
<feComposite in2="hardAlpha" operator="out"/>
<feColorMatrix type="matrix" values="0 0 0 0 0 0 0 0 0 0 0 0 0 0 0 0 0 0 0.25 0"/>
<feBlend mode="normal" in2="BackgroundImageFix" result="effect1_dropShadow_551_10955"/>
<feBlend mode="normal" in="SourceGraphic" in2="effect1_dropShadow_551_10955" result="shape"/>
</filter>
<filter id="filter2_d_551_10955" x="387.753" y="315.917" width="131.557" height="127.939" filterUnits="userSpaceOnUse" color-interpolation-filters="sRGB">
<feFlood flood-opacity="0" result="BackgroundImageFix"/>
<feColorMatrix in="SourceAlpha" type="matrix" values="0 0 0 0 0 0 0 0 0 0 0 0 0 0 0 0 0 0 127 0" result="hardAlpha"/>
<feOffset dx="5" dy="5"/>
<feGaussianBlur stdDeviation="2"/>
<feComposite in2="hardAlpha" operator="out"/>
<feColorMatrix type="matrix" values="0 0 0 0 0 0 0 0 0 0 0 0 0 0 0 0 0 0 0.25 0"/>
<feBlend mode="normal" in2="BackgroundImageFix" result="effect1_dropShadow_551_10955"/>
<feBlend mode="normal" in="SourceGraphic" in2="effect1_dropShadow_551_10955" result="shape"/>
</filter>
<filter id="filter3_d_551_10955" x="434.212" y="245.124" width="108.583" height="118.389" filterUnits="userSpaceOnUse" color-interpolation-filters="sRGB">
<feFlood flood-opacity="0" result="BackgroundImageFix"/>
<feColorMatrix in="SourceAlpha" type="matrix" values="0 0 0 0 0 0 0 0 0 0 0 0 0 0 0 0 0 0 127 0" result="hardAlpha"/>
<feOffset dx="5" dy="5"/>
<feGaussianBlur stdDeviation="2"/>
<feComposite in2="hardAlpha" operator="out"/>
<feColorMatrix type="matrix" values="0 0 0 0 0 0 0 0 0 0 0 0 0 0 0 0 0 0 0.25 0"/>
<feBlend mode="normal" in2="BackgroundImageFix" result="effect1_dropShadow_551_10955"/>
<feBlend mode="normal" in="SourceGraphic" in2="effect1_dropShadow_551_10955" result="shape"/>
</filter>
</defs>
</svg>
