<svg width="879" height="469" viewBox="0 0 879 469" fill="none" xmlns="http://www.w3.org/2000/svg">
<g filter="url(#filter0_d_551_10955)">
<path d="M227.963 187.815V298.46L284.282 319.592L289.713 311.687L308.207 311.714L308.571 311.287L268.79 229.633L268.745 229.551L236.36 228.76L268.59 227.968L270.464 170.449L272.338 227.877L464.01 223.193L445.043 149.18L234.941 169.048L227.963 187.815ZM321.152 176.371C327.165 175.998 334.179 175.689 341.693 175.488C345.45 175.416 349.334 175.252 353.282 175.243C357.23 175.206 361.233 175.179 365.245 175.143C369.257 175.179 373.259 175.206 377.207 175.243C381.155 175.243 385.04 175.416 388.797 175.488C396.311 175.689 403.324 175.998 409.337 176.371C421.364 177.053 429.378 178.026 429.378 178.026C429.378 178.026 421.364 178.991 409.337 179.682C403.324 180.055 396.311 180.364 388.797 180.564C385.04 180.637 381.155 180.81 377.207 180.81C373.259 180.846 369.257 180.874 365.245 180.91C361.233 180.874 357.23 180.846 353.282 180.81C349.334 180.801 345.45 180.637 341.693 180.564C334.179 180.355 327.165 180.055 321.152 179.682C309.126 179 301.112 178.036 301.112 178.036C301.112 178.036 309.126 177.053 321.152 176.371ZM321.152 192.227C327.165 191.854 334.179 191.544 341.693 191.344C345.45 191.271 349.334 191.108 353.282 191.099C357.23 191.062 361.233 191.035 365.245 190.999C369.257 191.026 373.259 191.062 377.207 191.099C381.155 191.099 385.04 191.271 388.797 191.344C396.311 191.544 403.324 191.854 409.337 192.227C421.364 192.909 429.378 193.882 429.378 193.882C429.378 193.882 421.364 194.856 409.337 195.538C403.324 195.911 396.311 196.22 388.797 196.42C385.04 196.493 381.155 196.666 377.207 196.666C373.259 196.702 369.257 196.73 365.245 196.766C361.233 196.73 357.23 196.702 353.282 196.666C349.334 196.657 345.45 196.493 341.693 196.42C334.179 196.211 327.165 195.911 321.152 195.538C309.126 194.856 301.112 193.891 301.112 193.891C301.112 193.891 309.126 192.909 321.152 192.227ZM321.152 208.083C327.165 207.71 334.179 207.4 341.693 207.2C345.45 207.127 349.334 206.964 353.282 206.955C357.23 206.918 361.233 206.891 365.245 206.854C369.257 206.891 373.259 206.918 377.207 206.955C381.155 206.955 385.04 207.127 388.797 207.2C396.311 207.4 403.324 207.71 409.337 208.083C421.364 208.765 429.378 209.738 429.378 209.738C429.378 209.738 421.364 210.712 409.337 211.394C403.324 211.767 396.311 212.076 388.797 212.276C385.04 212.349 381.155 212.522 377.207 212.522C373.259 212.558 369.257 212.586 365.245 212.622C361.233 212.586 357.23 212.558 353.282 212.522C349.334 212.513 345.45 212.349 341.693 212.276C334.179 212.067 327.165 211.767 321.152 211.394C309.126 210.712 301.112 209.747 301.112 209.747C301.112 209.747 309.126 208.765 321.152 208.083ZM249.432 176.753C254.153 176.753 257.992 180.583 257.992 185.313C257.992 190.043 254.162 193.873 249.432 193.873C244.702 193.873 240.872 190.043 240.872 185.313C240.872 180.592 244.702 176.753 249.432 176.753ZM249.432 204.507C254.153 204.507 257.992 208.337 257.992 213.068C257.992 217.798 254.162 221.628 249.432 221.628C244.702 221.628 240.872 217.798 240.872 213.068C240.872 208.337 244.702 204.507 249.432 204.507ZM235.741 239.949H263.123V245.289H235.741V239.949ZM235.741 255.223H263.123V260.563H235.741V255.223ZM235.741 270.496H263.123V275.836H235.741V270.496ZM235.741 285.779H263.123V291.119H235.741V285.779Z" fill="#FDAA0C"/>
<path d="M685.846 161.634L680.288 256.578L674.83 163.353L576.019 178.79L570.816 256.578L568.951 228.769H478.41L505.773 258.379H754.073L768.182 222.947L704.258 158.759L685.846 161.634ZM668.608 250.447H582.487V228.76H668.608V250.447ZM655.426 174.397C651.451 175.461 646.793 176.571 641.781 177.635C639.27 178.145 636.696 178.754 634.04 179.209C631.392 179.7 628.709 180.191 626.025 180.683C623.323 181.11 620.631 181.538 617.974 181.965C615.327 182.411 612.689 182.693 610.151 183.057C605.066 183.721 600.308 184.221 596.206 184.549C588.018 185.258 582.469 185.231 582.469 185.231C582.469 185.231 587.691 183.357 595.651 181.301C599.626 180.246 604.284 179.127 609.296 178.063C611.807 177.553 614.39 176.953 617.037 176.48C619.685 175.989 622.368 175.497 625.052 175.006C627.744 174.579 630.446 174.151 633.103 173.723C635.75 173.269 638.388 172.996 640.926 172.632C646.002 171.968 650.769 171.458 654.871 171.14C663.059 170.43 668.608 170.458 668.608 170.458C668.608 170.458 663.386 172.341 655.426 174.397ZM734.697 236.519H749.106V250.929H734.697V236.519ZM711.099 236.519H725.509V250.929H711.099V236.519Z" fill="#FDAA0C"/>
<path d="M588.155 232.681V246.535L662.95 232.681H588.155Z" fill="#FFC629"/>
<path d="M177.239 279.429C179.495 273.826 181.687 268.613 183.679 264.11C188.109 253.967 191.539 247.372 191.539 247.372C191.539 247.372 189.929 254.622 186.79 265.238C185.417 269.969 183.734 275.4 181.851 281.149L183.734 281.858L197.343 245.28L186.345 241.768L174.255 274.263C174.537 275.663 174.773 277.082 174.882 278.529L177.239 279.429Z" fill="white"/>
<path d="M139.714 256.969C141.943 256.969 144.181 257.433 146.373 258.024C148.511 258.77 150.621 259.653 152.468 260.908C153.423 261.481 154.296 262.154 155.106 262.882C155.961 263.546 156.68 264.356 157.389 265.111C158.79 266.667 159.891 268.368 160.773 270.032C161.155 270.906 161.556 271.724 161.865 272.543C162.12 273.389 162.393 274.19 162.593 274.972C162.929 276.564 163.093 278.01 163.093 279.302C163.193 280.557 162.948 281.749 162.875 282.623C162.729 283.487 162.493 284.151 162.384 284.615C162.247 285.07 162.174 285.315 162.174 285.315C162.174 285.315 161.765 284.36 161.174 282.723C160.783 281.94 160.446 281.067 159.891 280.066C159.4 279.056 158.69 278.01 157.99 276.901C157.217 275.818 156.352 274.717 155.388 273.644C154.378 272.589 153.296 271.561 152.086 270.624C150.858 269.714 149.584 268.804 148.174 268.104C146.801 267.349 145.318 266.785 143.817 266.284C143.207 266.112 142.589 265.966 141.961 265.821L142.452 266.949C142.925 268.031 143.162 269.205 143.162 270.387V307.939C149.994 307.002 156.016 303.518 160.209 298.442L261.331 336.385L166.705 297.978L307.243 345.782C309.017 343.417 310.663 341.216 312.1 339.269L166.15 284.496C166.268 283.459 166.35 282.413 166.35 281.34C166.35 266.503 154.324 254.477 139.487 254.477C138.686 254.477 137.904 254.559 137.121 254.622L138.122 256.942L139.714 256.969Z" fill="#FDAA0C"/>
<path d="M287.694 365.604C287.757 362.311 288.248 359.137 289.222 356.089L277.569 351.714C275.758 356.317 274.812 361.192 274.803 366.45L287.694 365.604Z" fill="#999999"/>
<path d="M259.02 53.7717C258.674 53.8627 258.329 53.9627 258.001 54.1174C256.6 54.7542 255.527 55.9095 254.99 57.3468L187.509 238.648L189.765 238.193L259.02 53.7717Z" fill="white"/>
<path d="M674.794 262.527C661.267 262.464 646.839 262.4 632.421 262.336C617.993 262.4 603.565 262.464 590.038 262.527C576.511 262.582 563.894 262.846 553.068 262.964C542.252 263.182 533.228 263.364 526.924 263.492C520.611 263.674 517.008 263.774 517.008 263.774C517.008 263.774 520.611 263.874 526.924 264.056C533.237 264.183 542.252 264.365 553.068 264.583C563.885 264.702 576.511 264.965 590.038 265.02C603.565 265.084 617.993 265.147 632.421 265.211C646.848 265.147 661.276 265.084 674.794 265.02C688.321 264.975 700.938 264.702 711.764 264.583C722.58 264.456 731.604 264.165 737.908 264.056C744.222 263.874 747.824 263.774 747.824 263.774C747.824 263.774 744.222 263.674 737.908 263.492C731.595 263.373 722.58 263.091 711.764 262.964C700.948 262.855 688.321 262.582 674.794 262.527Z" fill="#FFC629"/>
<path d="M649.322 74.7492V46.658H615.618V118.378H626.571C627.508 111.182 629.91 97.737 634.695 97.737C634.695 97.737 628.163 74.7492 649.322 74.7492Z" fill="#999999"/>
<path d="M606.995 46.6671H573.291V118.387H606.995V46.6671Z" fill="#999999"/>
<path d="M687.739 46.6671H680.288V118.387H687.739V46.6671Z" fill="#999999"/>
<path d="M573.291 131.541H574.683V143.076H577.475V131.541H581.078V143.076H583.598V131.541H587.2V143.076H621.077L624.861 125.838H573.291V131.541Z" fill="#999999"/>
<path d="M695.444 132.933C696.126 144.35 697.1 151.964 697.1 151.964C697.1 151.964 698.073 144.35 698.755 132.933C699.128 127.22 699.437 120.561 699.638 113.429C699.71 109.863 699.883 106.17 699.883 102.431C699.92 98.6832 699.947 94.8807 699.983 91.0691C699.947 87.2666 699.92 83.455 699.883 79.7071C699.874 75.9592 699.71 72.2749 699.638 68.709C699.437 61.577 699.128 54.918 698.755 49.2052C698.073 37.7886 697.109 30.1744 697.109 30.1744C697.109 30.1744 696.144 37.7886 695.462 49.2052C695.089 54.9089 694.78 61.577 694.58 68.709C694.507 72.2749 694.343 75.9683 694.334 79.7071C694.298 83.455 694.27 87.2575 694.234 91.0691C694.27 94.8716 694.298 98.6832 694.334 102.431C694.334 106.179 694.507 109.863 694.58 113.429C694.762 120.561 695.071 127.22 695.444 132.933Z" fill="#999999"/>
<path d="M474.244 159.842L477.655 170.913L490.636 165.773L500.352 194.919L514.252 186.769L518.382 57.4379L522.366 182.002L523.913 181.092V43.1376H499.115L491.837 75.0131L494.457 75.3042L491.546 108.153H484.269L482.995 113.748L493.238 114.576L490.6 159.36L474.244 159.842Z" fill="#999999"/>
<path d="M565.667 178.09C565.849 181.974 565.949 184.194 565.949 184.194C565.949 184.194 566.049 181.974 566.231 178.09C566.35 174.206 566.632 168.657 566.759 161.998C566.877 155.339 567.15 147.57 567.196 139.246C567.259 130.923 567.323 122.044 567.387 113.165C567.323 104.287 567.259 95.4083 567.196 87.0846C567.141 78.761 566.877 70.9922 566.759 64.3333C566.632 57.6743 566.35 52.1252 566.231 48.2408C566.049 44.3565 565.949 42.1368 565.949 42.1368C565.949 42.1368 565.849 44.3565 565.667 48.2408C565.549 52.1252 565.267 57.6743 565.14 64.3333C565.022 70.9922 564.758 78.761 564.703 87.0846C564.639 95.4083 564.576 104.287 564.512 113.165C564.576 122.044 564.639 130.923 564.703 139.246C564.749 147.57 565.022 155.339 565.14 161.998C565.258 168.657 565.549 174.206 565.667 178.09Z" fill="#999999"/>
<path d="M340.683 65.7888L342.138 100.166V63.8511H339.518C337.008 63.8511 334.979 65.8888 334.979 68.3904V130.268L337.963 129.995L340.683 65.7888Z" fill="white"/>
<path d="M281.808 144.886C291.25 144.422 302.249 143.758 314.029 142.921C319.915 142.476 326.01 142.103 332.177 141.566C338.354 141.057 344.631 140.529 350.908 140.01C357.176 139.419 363.443 138.837 369.62 138.255C375.797 137.709 381.856 136.999 387.732 136.408C399.476 135.171 410.42 133.888 419.799 132.678C429.178 131.523 436.974 130.304 442.441 129.576C447.899 128.785 451.019 128.257 451.019 128.257C451.019 128.257 447.863 128.285 442.35 128.457C436.837 128.694 428.95 128.867 419.517 129.385C410.074 129.849 399.076 130.513 387.296 131.35C381.41 131.796 375.315 132.169 369.147 132.715C362.97 133.233 356.694 133.752 350.417 134.279C344.149 134.871 337.881 135.453 331.704 136.035C325.528 136.59 319.469 137.29 313.592 137.891C301.848 139.137 290.905 140.42 281.526 141.621C272.147 142.776 264.351 143.986 258.884 144.723C253.426 145.514 250.305 146.042 250.305 146.042C250.305 146.042 253.462 146.014 258.975 145.832C264.487 145.569 272.374 145.396 281.808 144.886Z" fill="#999999"/>
<path d="M479.511 66.9441L487.807 41.7002L495.276 18.3484C513.615 18.3848 531.954 18.5031 550.294 18.403C569.306 18.3848 588.319 18.2393 607.331 18.0573C626.344 17.839 645.356 17.5843 664.369 17.184L692.888 16.4653C702.394 16.2197 711.9 15.9559 721.406 15.5648C711.9 15.1827 702.394 14.9189 692.888 14.6733L664.369 13.9546C645.356 13.5453 626.344 13.2905 607.331 13.0813C588.319 12.8994 569.306 12.7538 550.294 12.7356C531.281 12.6265 512.269 12.7629 493.256 12.7993H493.22C492.046 12.7993 490.964 13.5725 490.609 14.7551L483.086 40.2447L475.763 65.7888C473.416 74.3308 470.978 82.8455 468.74 91.433C466.475 100.002 464.137 108.553 462.026 117.168C465.119 108.853 467.985 100.466 470.923 92.1061C473.889 83.7551 476.654 75.3314 479.511 66.9441Z" fill="#999999"/>
<path d="M577.621 4.43933C581.842 4.56669 586.772 4.8032 592.048 4.89417C597.325 5.01243 602.956 5.03973 608.587 5.06702C614.218 5.03973 619.849 5.02153 625.125 4.89417C630.401 4.8123 635.332 4.56669 639.553 4.43933C643.773 4.31198 647.294 4.02089 649.759 3.91172C652.224 3.72979 653.634 3.6297 653.634 3.6297C653.634 3.6297 652.224 3.52965 649.759 3.34771C647.294 3.22945 643.773 2.94743 639.553 2.82007C635.332 2.69271 630.401 2.44711 625.125 2.36523C619.849 2.23788 614.218 2.21967 608.587 2.19238C602.956 2.21967 597.325 2.24697 592.048 2.36523C586.772 2.4562 581.842 2.69271 577.621 2.82007C573.4 2.94743 569.879 3.22945 567.414 3.34771C564.949 3.52965 563.539 3.6297 563.539 3.6297C563.539 3.6297 564.949 3.72979 567.414 3.91172C569.879 4.02089 573.391 4.30288 577.621 4.43933Z" fill="white"/>
<path d="M391.78 125.028L393.709 124.846C393.827 123.045 393.927 121.134 394 119.069C394.036 117.605 394.118 116.095 394.127 114.566C394.136 113.966 394.173 113.02 394.273 112.374C394.364 111.728 394.509 111.055 394.718 110.373C395.483 107.662 397.147 105.251 399.194 103.541C400.213 102.677 401.332 102.003 402.46 101.476C403.579 100.93 404.734 100.648 405.817 100.393C407.964 100.057 410.047 99.9202 411.375 99.7565C412.739 99.6018 413.522 99.4745 413.522 99.4745C413.522 99.4745 412.739 99.3471 411.375 99.1925C410.693 99.1197 409.865 99.0378 408.919 98.9378C407.982 98.8286 406.899 98.7103 405.644 98.7467C404.416 98.8286 403.051 98.9651 401.696 99.4654C400.34 99.9202 398.921 100.557 397.657 101.53C396.392 102.476 395.146 103.604 394.2 104.996C393.245 106.379 392.481 107.926 391.971 109.563C391.744 110.382 391.571 111.237 391.471 112.128C391.38 113.029 391.371 113.629 391.362 114.557C391.371 116.095 391.444 117.605 391.489 119.06C391.553 121.207 391.662 123.172 391.78 125.028Z" fill="white"/>
<path d="M730.385 343.253C731.468 343.417 732.696 343.563 734.024 343.808C735.316 344.154 736.78 344.427 738.218 345.046C741.201 346.055 744.403 347.766 747.496 350.231C750.589 352.669 753.61 355.889 755.902 359.91C756.457 360.874 756.984 361.884 757.467 362.93C752.018 349.53 738.872 340.042 723.535 340.042C703.331 340.042 686.893 356.471 686.893 376.675C686.893 391.958 696.299 405.067 709.626 410.552C704.332 408.087 700.038 404.485 697.072 400.655C694.607 397.562 692.897 394.36 691.887 391.376C691.278 389.93 691.005 388.465 690.65 387.182C690.404 385.854 690.259 384.626 690.095 383.544C689.958 381.324 689.958 379.614 690.104 378.449C690.204 377.294 690.268 376.675 690.268 376.675C690.268 376.675 690.386 377.285 690.604 378.422C690.741 379.559 691.241 381.178 691.787 383.198C692.169 384.18 692.551 385.272 693.042 386.418C693.661 387.519 694.079 388.793 694.889 389.984C696.281 392.468 698.309 394.96 700.747 397.325C702.676 399.136 704.941 400.791 707.47 402.192C699.001 396.852 693.361 387.437 693.361 376.685C693.361 360.028 706.87 346.519 723.526 346.519C734.333 346.519 743.785 352.223 749.116 360.765C747.706 358.181 746.023 355.853 744.176 353.897C741.811 351.459 739.309 349.421 736.826 348.038C735.634 347.229 734.36 346.801 733.26 346.192C732.113 345.701 731.022 345.318 730.039 344.936C728.056 344.4 726.419 343.89 725.264 343.763C724.126 343.545 723.517 343.426 723.517 343.426C723.517 343.426 724.135 343.372 725.291 343.272C726.446 343.126 728.138 343.117 730.385 343.253Z" fill="white"/>
<path d="M353.81 410.107L331.377 411.316C334.342 412.044 337.426 412.481 340.61 412.481C345.259 412.481 349.689 411.617 353.81 410.107Z" fill="white"/>
<path d="M623.796 348.202C625.097 348.275 626.753 348.375 628.554 348.966C630.383 349.476 632.393 350.394 634.331 351.823C634.695 352.077 635.049 352.378 635.404 352.669C631.429 348.584 625.889 346.037 619.757 346.037C607.704 346.037 597.898 355.844 597.898 367.897C597.898 373.992 600.408 379.505 604.447 383.471C604.184 383.143 603.911 382.816 603.674 382.479C602.246 380.533 601.318 378.531 600.818 376.703C600.226 374.902 600.126 373.246 600.054 371.945C600.063 370.617 600.172 369.607 600.308 368.934C600.436 368.261 600.508 367.906 600.508 367.906C600.508 367.906 600.608 368.252 600.809 368.907C600.945 369.562 601.336 370.48 601.746 371.599C602.255 372.709 602.901 373.992 603.82 375.302C604.702 376.63 605.948 377.931 607.358 379.141C610.197 381.506 614.354 383.262 618.429 383.243C620.785 383.271 622.796 382.843 624.87 382.052C626.88 381.224 628.772 380.023 630.328 378.458C631.893 376.903 633.103 375.011 633.93 373C634.349 372.009 634.64 370.881 634.831 370.026C634.977 369.671 634.986 368.779 635.068 368.17C635.149 367.842 635.104 367.151 635.14 366.66C635.159 362.366 633.412 358.363 631.028 355.471C629.809 354.061 628.518 352.814 627.181 351.932C625.861 351.013 624.579 350.358 623.469 349.858C622.377 349.458 621.44 349.057 620.776 348.93C620.121 348.739 619.776 348.63 619.776 348.63C619.776 348.63 620.13 348.566 620.804 348.439C621.449 348.32 622.441 348.202 623.796 348.202Z" fill="white"/>
<path d="M607.741 300.889H427.576C427.522 300.889 427.176 300.889 426.576 300.889C417.097 300.889 342.766 301.717 301.666 326.124L313.356 330.509C354.847 307.939 433.007 308.476 436.764 308.53H602.847C609.833 308.53 773.841 309.313 773.841 377.276C773.841 408.342 745.422 426.163 695.881 426.163H368.938C350.435 426.163 324.372 426.135 306.788 412.645L287.22 413.7C303.149 434.905 331.431 434.932 354.073 434.932H699.983C740.746 434.932 784.302 420.732 784.302 380.887C784.302 301.844 609.505 300.889 607.741 300.889Z" fill="#999999"/>
<path d="M608.923 330.927C610.279 331 611.643 331.073 612.981 331.173C620.904 331.737 628.318 332.583 635.159 333.401C648.841 335.012 660.175 336.74 668.108 338.013C676.031 339.296 680.552 340.151 680.552 340.151C680.552 340.151 675.967 339.997 667.944 339.733C659.939 339.405 648.495 338.923 634.768 338.359C631.238 338.223 627.554 338.077 623.751 337.95C638.552 339.915 650.014 352.587 650.014 367.915C650.014 369.007 649.95 370.089 649.832 371.153C650.906 385.417 646.266 402.119 625.543 403.957C614.236 404.958 555.725 408.06 495.913 411.043L628.882 413.873L445.179 417.775H695.881C698.646 417.775 701.621 417.711 704.705 417.566C689.249 410.425 678.478 394.815 678.478 376.703C678.478 360.719 686.875 346.683 699.465 338.687C685.92 336.249 652.679 330.936 619.74 330.936C616.61 330.927 612.944 330.927 608.923 330.927ZM665.015 412.281C661.094 412.281 657.91 409.097 657.91 405.176C657.91 401.255 661.085 398.071 665.015 398.071C668.936 398.071 672.12 401.255 672.12 405.176C672.12 409.097 668.945 412.281 665.015 412.281ZM665.015 387.155C661.094 387.155 657.91 383.98 657.91 380.05C657.91 376.13 661.085 372.946 665.015 372.946C668.936 372.946 672.12 376.12 672.12 380.05C672.12 383.98 668.945 387.155 665.015 387.155ZM665.015 362.038C661.094 362.038 657.91 358.854 657.91 354.934C657.91 351.013 661.085 347.829 665.015 347.829C668.936 347.829 672.12 351.013 672.12 354.934C672.12 358.854 668.945 362.038 665.015 362.038Z" fill="#999999"/>
<path d="M844.597 271.961L825.475 219.454H789.606L767.246 276.991H509.13L492.601 256.86L471.951 234.518L273.147 229.66L314.384 304.537L320.015 297.987L343.294 300.534L361.124 287.08L381.692 293.966L401.714 282.741L420.272 291.892L440.731 281.112L460.153 291.337L479.574 281.112L498.996 291.337L518.418 281.112L537.84 291.337L557.262 281.112L576.684 291.337L596.106 281.112L616.901 292.065L642.163 281.622L661.785 294.403L684.682 287.853L703.376 303.318L728.648 300.18L743.594 317.054L770.066 322.012L778.853 341.916L792.253 352.787H797.366L801.45 288.062L805.535 352.787H826.931L831.015 288.062L835.1 352.787H845.588V282.095L771.84 276.991L844.597 271.961ZM451.647 245.289H466.056V259.698H451.647V245.289ZM305.833 259.698V245.289H320.242V259.698H305.833ZM465.028 273.689C459.443 273.971 453.848 274.081 448.263 274.281C442.677 274.472 437.083 274.526 431.497 274.654C425.912 274.799 420.317 274.79 414.732 274.836C409.137 274.872 403.552 274.926 397.966 274.863C386.995 274.845 376.033 274.663 365.063 274.426L353.564 280.285C349.516 282.377 345.395 284.342 341.311 286.37C333.114 290.373 324.882 294.321 316.503 297.996C324.099 292.893 331.841 288.062 339.619 283.277C343.521 280.921 347.387 278.502 351.326 276.191L363.098 269.232L363.643 268.904L364.426 268.886C375.606 268.641 386.786 268.449 397.966 268.431C403.552 268.368 409.146 268.413 414.732 268.459C420.317 268.504 425.912 268.495 431.497 268.641C437.092 268.768 442.677 268.813 448.263 269.004C453.848 269.205 459.443 269.314 465.028 269.596C476.209 270.06 487.389 270.678 498.569 271.643C487.389 272.607 476.209 273.225 465.028 273.689Z" fill="#FDAA0C"/>
<path d="M373.059 352.814C366.837 343.226 356.512 336.54 344.567 335.321C351.144 339.251 360.278 344.854 373.059 352.814Z" fill="white"/>
<path d="M433.499 331.764C440.421 331.355 447.863 331.118 455.731 330.918C455.759 330.918 455.777 330.918 455.804 330.918C438.72 330.918 424.966 330.918 417.497 330.918C395.31 330.918 375.806 333.647 367.291 335.039C375.915 340.988 382.465 349.73 385.622 359.964L424.711 357.181V341.843H440.731V356.044L540.014 348.966V341.843H556.034V347.82L600.418 344.654C605.157 340.697 611.134 338.195 617.656 337.75C616.019 337.704 614.363 337.659 612.689 337.622C605.021 337.45 596.67 337.895 588.082 337.95C579.495 338.059 570.625 338.314 561.61 338.323C552.595 338.368 543.435 338.423 534.283 338.468C525.123 338.414 515.971 338.368 506.956 338.314C497.941 338.296 489.072 338.05 480.484 337.941C471.897 337.841 463.6 337.568 455.731 337.359C447.881 337.131 440.458 336.913 433.599 336.713C419.935 336.458 408.518 336.758 400.531 337.195C392.535 337.613 387.978 338.168 387.978 338.168C387.978 338.168 392.399 336.904 400.34 335.494C408.255 334.093 419.689 332.537 433.499 331.764Z" fill="#999999"/>
<path d="M530.417 173.114C531.099 189.461 532.073 200.359 532.073 200.359C532.073 200.359 533.046 189.461 533.728 173.114C534.101 164.936 534.411 155.402 534.611 145.186C534.684 140.074 534.856 134.798 534.856 129.431C534.893 124.063 534.92 118.614 534.956 113.165C534.92 107.716 534.893 102.267 534.856 96.9001C534.847 91.5329 534.684 86.2567 534.611 81.1443C534.402 70.9284 534.101 61.3858 533.728 53.2168C533.046 36.8696 532.082 25.9716 532.082 25.9716C532.082 25.9716 531.118 36.8696 530.435 53.2168C530.062 61.3949 529.753 70.9284 529.553 81.1443C529.48 86.2567 529.316 91.5329 529.307 96.9001C529.271 102.267 529.244 107.716 529.207 113.165C529.244 118.614 529.271 124.063 529.307 129.431C529.307 134.798 529.48 140.074 529.553 145.186C529.735 155.402 530.044 164.945 530.417 173.114Z" fill="#999999"/>
<path d="M150.848 408.633L591.257 377.994C590.138 374.838 589.492 371.454 589.492 367.906C589.492 362.839 590.757 358.063 592.976 353.86L382.419 368.87C382.419 368.87 327.965 334.72 325.791 334.72C325.746 334.72 325.727 334.739 325.727 334.766C325.727 335.812 310.545 355.844 302.212 366.742L369.074 368.779L296.927 373.637L296.899 373.673L157.098 382.798L141.242 365.595V395.934L121.784 410.07L134.52 394.933V358.291V273.908L89.2352 275.845L132.837 266.494L75.417 133.925H59.0789L85.5054 276.127L52.8385 418.339L8.6366 450.524L92.0279 431.375L57.3414 419.058L105.018 426.99L120.101 414.009L523.749 392.286L150.848 408.633ZM180.231 387.628C191.73 386.627 208.141 385.026 227.863 383.407C247.576 381.742 270.582 379.923 295.244 378.113C307.579 377.221 320.315 376.312 333.26 375.375C346.214 374.492 359.368 373.601 372.522 372.709C385.685 371.881 398.839 371.054 411.793 370.235C424.747 369.471 437.501 368.716 449.845 367.988C474.534 366.578 497.577 365.377 517.344 364.449C537.103 363.485 553.587 362.921 565.112 362.411C576.647 362.011 583.242 361.784 583.242 361.784C583.242 361.784 576.675 362.421 565.185 363.53C553.687 364.531 537.276 366.123 517.554 367.742C497.841 369.407 474.835 371.217 450.173 373.046C437.847 373.937 425.102 374.856 412.157 375.784C399.203 376.666 386.049 377.558 372.895 378.458C359.732 379.286 346.577 380.114 333.623 380.933C320.669 381.697 307.916 382.452 295.571 383.18C270.882 384.599 247.84 385.791 228.072 386.718C208.314 387.692 191.83 388.247 180.304 388.756C168.769 389.156 162.174 389.384 162.174 389.384C162.174 389.384 168.742 388.738 180.231 387.628ZM78.4917 160.051C74.2071 148.325 71.8237 140.311 71.8237 140.311C71.8237 140.311 75.981 147.57 81.521 158.759C84.3137 164.345 87.4612 170.903 90.7179 177.981C92.319 181.529 94.0565 185.167 95.6758 188.924C97.3132 192.672 98.9871 196.475 100.652 200.286C102.262 204.116 103.863 207.946 105.446 211.721C107.056 215.478 108.484 219.244 109.949 222.856C112.833 230.097 115.416 236.901 117.527 242.778C121.802 254.504 124.185 262.527 124.185 262.527C124.185 262.527 120.019 255.268 114.479 244.088C111.686 238.503 108.53 231.944 105.282 224.866C103.681 221.319 101.944 217.68 100.324 213.923C98.6869 210.175 97.0221 206.372 95.3483 202.57C93.7381 198.74 92.1371 194.901 90.5542 191.135C88.9532 187.369 87.5159 183.612 86.0513 180C83.1857 172.732 80.6022 165.927 78.4917 160.051ZM117.372 405.558C113.215 410.116 109.075 414.682 104.727 419.076C108.066 413.864 111.614 408.824 115.143 403.775C118.554 398.999 121.993 394.251 125.505 389.548C125.332 385.217 125.259 380.887 125.159 376.557C125.031 371.99 125.004 367.424 124.977 362.866C124.95 358.3 124.886 353.742 124.95 349.175C124.995 344.609 124.986 340.051 125.077 335.485C125.241 326.36 125.495 317.227 125.914 308.103C126.351 298.979 126.887 289.845 127.788 280.721C128.688 289.845 129.225 298.979 129.662 308.103C130.08 317.236 130.335 326.36 130.508 335.485C130.599 340.051 130.59 344.618 130.635 349.175C130.699 353.742 130.635 358.309 130.608 362.866C130.581 367.433 130.553 371.99 130.426 376.557C130.317 381.124 130.253 385.681 130.053 390.248L130.017 391.121L129.562 391.658C125.559 396.352 121.475 400.964 117.372 405.558Z" fill="#FDAA0C"/>
<path d="M723.526 354.506C711.281 354.506 701.348 364.431 701.348 376.685C701.348 388.929 711.272 398.863 723.526 398.863C735.779 398.863 745.704 388.938 745.704 376.685C745.704 364.44 735.77 354.506 723.526 354.506ZM723.526 395.506C713.128 395.506 704.704 387.082 704.704 376.685C704.704 366.287 713.128 357.863 723.526 357.863C733.924 357.863 742.347 366.287 742.347 376.685C742.347 387.082 733.924 395.506 723.526 395.506Z" fill="white"/>
<path d="M172.427 312.26L171.062 311.751C170.78 312.506 170.489 313.279 170.207 314.025C168.952 317.427 167.578 320.729 166.332 323.941C163.776 330.354 161.274 336.312 159.036 341.37C154.615 351.522 151.186 358.109 151.186 358.109C151.186 358.109 152.805 350.858 155.943 340.242C157.49 334.921 159.4 328.762 161.574 322.203C162.684 318.928 163.757 315.526 164.986 312.115C165.258 311.341 165.54 310.55 165.813 309.768L162.384 308.485C161.993 308.812 161.574 309.113 161.174 309.422L143.935 355.743L152.696 365.25L172.427 312.26Z" fill="white"/>
<path d="M860.689 275.663C860.689 274.736 860.534 273.808 860.243 272.925L841.504 216.715C840.33 213.186 837.019 210.803 833.298 210.803H833.08V200.123C833.08 196.675 830.278 193.873 826.83 193.873H820.108C816.66 193.873 813.858 196.675 813.858 200.123V210.812H804.716V200.123C804.716 196.675 801.914 193.873 798.466 193.873H791.744C788.296 193.873 785.494 196.675 785.494 200.123V210.812H777.725L718.714 153.128V78.2152C723.49 78.2152 727.365 74.3398 727.365 69.564V17.6753C727.365 12.8994 723.49 9.02413 718.714 9.02413H669.281C669.263 4.03903 665.224 0 660.23 0H563.884C558.899 0 554.851 4.03903 554.833 9.02413H493.875C490.027 9.02413 486.643 11.5712 485.569 15.2646L455.504 119.142L429.387 121.553V113.557C429.387 104.15 421.764 96.5363 412.366 96.5363H405.162C395.755 96.5363 388.141 104.16 388.141 113.557V125.355L354.292 128.476V66.8804C354.292 63.178 351.29 60.1851 347.597 60.1851H338.745C335.052 60.1851 332.05 63.178 332.05 66.8804V130.522L246.348 138.437L273.912 64.3606C276.686 56.9102 272.875 48.5956 265.433 45.8302C261.831 44.4838 257.91 44.6294 254.408 46.2304C250.906 47.8315 248.231 50.7061 246.894 54.3085L169.479 262.346C163.175 252.421 152.104 245.807 139.496 245.807C137.485 245.807 135.502 246.017 133.555 246.344L83.3769 130.477C82.0033 127.311 78.8922 125.264 75.4445 125.264H59.1064C56.532 125.264 54.094 126.411 52.4566 128.385C50.81 130.359 50.1369 132.969 50.6008 135.489L76.6998 275.927L45.1427 413.263L3.56073 443.547C0.24036 445.967 -0.924059 450.388 0.777062 454.126C2.20528 457.265 5.31643 459.193 8.6459 459.193C9.29178 459.193 9.93765 459.121 10.5835 458.975L104.746 437.352C106.119 437.033 107.384 436.397 108.457 435.478L123.522 422.506L275.403 414.328L281.453 431.584L302.749 437.343L320.388 450.852L341.838 443.838L360.869 453.863L379.608 443.993L398.348 453.863L417.088 443.993L435.827 453.863L454.567 443.993L473.307 453.863L492.046 443.993L510.786 453.863L529.525 443.993L548.265 453.863L567.005 443.993L585.744 453.863L604.484 443.993L623.224 453.863L641.963 443.993L660.703 453.863L679.442 443.993L698.182 453.863L719.751 442.501C720.015 442.473 720.287 442.437 720.551 442.41L741.21 447.913L756.429 434.85L777.625 429.883L785.221 410.361L797.147 398.181L793.308 378.722H852.111C856.887 378.722 860.762 374.847 860.762 370.071V353.142H869.049V345.573H860.762V339.624H869.049V332.055H860.762V326.115H869.049V318.546H860.762V275.663H860.689ZM823.474 197.73C825.984 197.73 828.022 199.768 828.022 202.288C828.022 204.799 825.984 206.836 823.474 206.836C820.963 206.836 818.916 204.799 818.916 202.288C818.916 199.768 820.963 197.73 823.474 197.73ZM795.11 197.73C797.62 197.73 799.658 199.768 799.658 202.288C799.658 204.799 797.62 206.836 795.11 206.836C792.599 206.836 790.561 204.799 790.561 202.288C790.561 199.768 792.599 197.73 795.11 197.73ZM768.174 222.947L754.064 258.379H505.773L478.41 228.769H568.951L570.816 256.578L576.02 178.791L674.83 163.353L680.288 256.578L685.847 161.634L704.25 158.759L768.174 222.947ZM747.833 263.783C747.833 263.783 744.231 263.883 737.917 264.065C731.604 264.183 722.589 264.465 711.773 264.592C700.957 264.711 688.33 264.984 674.803 265.029C661.276 265.093 646.848 265.157 632.43 265.22C618.002 265.157 603.574 265.093 590.047 265.029C576.52 264.975 563.903 264.711 553.077 264.592C542.261 264.374 533.237 264.192 526.933 264.065C520.62 263.883 517.017 263.783 517.017 263.783C517.017 263.783 520.62 263.683 526.933 263.501C533.246 263.373 542.261 263.192 553.077 262.973C563.894 262.855 576.52 262.591 590.047 262.537C603.574 262.473 618.002 262.409 632.43 262.346C646.857 262.409 661.285 262.473 674.803 262.537C688.33 262.582 700.947 262.855 711.773 262.973C722.589 263.101 731.613 263.392 737.917 263.501C744.221 263.683 747.833 263.783 747.833 263.783ZM482.995 113.748L484.277 108.153H491.555L494.466 75.3133L491.846 75.0222L499.124 43.1466H523.922V181.101L522.375 182.011L518.391 57.447L514.252 186.778L500.352 194.928L490.636 165.782L477.655 170.922L474.244 159.851L490.6 159.369L493.238 114.594L482.995 113.748ZM529.198 113.165C529.234 107.716 529.262 102.267 529.298 96.9002C529.307 91.533 529.471 86.2568 529.544 81.1444C529.753 70.9285 530.053 61.3859 530.426 53.2169C531.108 36.8697 532.073 25.9717 532.073 25.9717C532.073 25.9717 533.037 36.8697 533.719 53.2169C534.092 61.395 534.401 70.9285 534.602 81.1444C534.674 86.2568 534.838 91.533 534.847 96.9002C534.884 102.267 534.911 107.716 534.947 113.165C534.911 118.615 534.884 124.064 534.847 129.431C534.847 134.798 534.674 140.074 534.602 145.187C534.401 155.402 534.092 164.945 533.719 173.114C533.037 189.461 532.063 200.359 532.063 200.359C532.063 200.359 531.09 189.461 530.408 173.114C530.035 164.936 529.726 155.402 529.525 145.187C529.453 140.074 529.28 134.798 529.28 129.431C529.262 124.064 529.225 118.615 529.198 113.165ZM564.503 113.165C564.567 104.287 564.63 95.4083 564.694 87.0846C564.749 78.761 565.012 70.9922 565.131 64.3333C565.258 57.6743 565.54 52.1252 565.658 48.2409C565.84 44.3565 565.94 42.1369 565.94 42.1369C565.94 42.1369 566.04 44.3565 566.222 48.2409C566.341 52.1252 566.623 57.6743 566.75 64.3333C566.868 70.9922 567.132 78.761 567.187 87.0846C567.25 95.4083 567.314 104.287 567.378 113.165C567.314 122.044 567.25 130.923 567.187 139.246C567.141 147.57 566.868 155.339 566.75 161.998C566.623 168.657 566.332 174.206 566.222 178.09C566.04 181.974 565.94 184.194 565.94 184.194C565.94 184.194 565.84 181.974 565.658 178.09C565.54 174.206 565.258 168.657 565.131 161.998C565.012 155.339 564.74 147.57 564.694 139.246C564.63 130.923 564.567 122.044 564.503 113.165ZM624.861 125.837L621.077 143.085H587.209V131.55H583.607V143.085H581.087V131.55H577.484V143.085H574.692V131.55H573.3V125.837H624.861ZM573.291 118.387V46.6671H606.995V118.387H573.291ZM634.695 97.7462C629.91 97.7462 627.517 111.191 626.571 118.387H615.618V46.6671H649.323V74.7584C628.163 74.7493 634.695 97.7462 634.695 97.7462ZM680.288 118.387V46.6671H687.739V118.387H680.288ZM694.225 91.0691C694.261 87.2666 694.289 83.455 694.325 79.7071C694.334 75.9591 694.498 72.2749 694.571 68.7089C694.771 61.577 695.08 54.918 695.453 49.2052C696.135 37.7885 697.099 30.1744 697.099 30.1744C697.099 30.1744 698.064 37.7885 698.746 49.2052C699.119 54.9089 699.428 61.577 699.628 68.7089C699.701 72.2749 699.865 75.9682 699.874 79.7071C699.91 83.455 699.938 87.2575 699.974 91.0691C699.938 94.8716 699.91 98.6832 699.874 102.431C699.874 106.179 699.701 109.863 699.628 113.429C699.428 120.561 699.119 127.229 698.746 132.933C698.064 144.35 697.09 151.964 697.09 151.964C697.09 151.964 696.117 144.35 695.435 132.933C695.062 127.22 694.752 120.561 694.552 113.429C694.48 109.863 694.307 106.17 694.307 102.431C694.289 98.6741 694.252 94.8716 694.225 91.0691ZM567.414 3.34766C569.879 3.2294 573.391 2.94737 577.621 2.82002C581.842 2.69266 586.772 2.45615 592.048 2.36518C597.325 2.24692 602.956 2.21962 608.587 2.19233C614.218 2.21962 619.849 2.23782 625.125 2.36518C630.401 2.44705 635.332 2.69266 639.553 2.82002C643.773 2.94737 647.294 3.2385 649.759 3.34766C652.224 3.5296 653.634 3.62965 653.634 3.62965C653.634 3.62965 652.224 3.72973 649.759 3.91167C647.294 4.02993 643.773 4.31192 639.553 4.43928C635.332 4.56664 630.401 4.81225 625.125 4.89412C619.849 5.02147 614.218 5.03968 608.587 5.06697C602.956 5.03968 597.325 5.01238 592.048 4.89412C586.772 4.80315 581.842 4.56664 577.621 4.43928C573.4 4.31192 569.879 4.02993 567.414 3.91167C564.949 3.72973 563.539 3.62965 563.539 3.62965C563.539 3.62965 564.949 3.5296 567.414 3.34766ZM468.731 91.433C470.96 82.8546 473.407 74.3399 475.754 65.7888L483.077 40.2447L490.6 14.7552C490.946 13.5726 492.037 12.7993 493.211 12.7993H493.247C512.26 12.7629 531.272 12.6356 550.285 12.7356C569.297 12.7447 588.31 12.8903 607.322 13.0813C626.335 13.2906 645.347 13.5453 664.36 13.9547L692.879 14.6733C702.385 14.9189 711.891 15.1827 721.397 15.5648C711.891 15.9469 702.385 16.2107 692.879 16.4654L664.36 17.184C645.347 17.5934 626.335 17.8481 607.322 18.0574C588.31 18.2393 569.297 18.3848 550.285 18.403C531.945 18.5031 513.606 18.3848 495.267 18.3484L487.798 41.7002L479.502 66.9441C476.645 75.3315 473.88 83.7461 470.905 92.097C467.958 100.457 465.101 108.844 462.008 117.159C464.128 108.553 466.475 100.002 468.731 91.433ZM391.453 112.137C391.544 111.237 391.726 110.382 391.953 109.572C392.453 107.935 393.227 106.388 394.182 105.006C395.128 103.614 396.374 102.495 397.639 101.54C398.903 100.575 400.322 99.9386 401.678 99.4746C403.033 98.9743 404.398 98.8378 405.626 98.7559C406.881 98.7195 407.964 98.8378 408.901 98.947C409.847 99.0471 410.674 99.1289 411.357 99.2017C412.721 99.3564 413.504 99.4837 413.504 99.4837C413.504 99.4837 412.721 99.611 411.357 99.7657C410.038 99.9294 407.954 100.066 405.799 100.402C404.725 100.648 403.57 100.939 402.442 101.485C401.314 102.013 400.195 102.686 399.176 103.55C397.129 105.26 395.464 107.671 394.7 110.382C394.491 111.064 394.345 111.737 394.255 112.383C394.154 113.02 394.118 113.966 394.109 114.576C394.1 116.113 394.018 117.623 393.982 119.078C393.909 121.143 393.809 123.054 393.691 124.855L391.762 125.037C391.635 123.19 391.525 121.216 391.453 119.078C391.416 117.614 391.334 116.104 391.325 114.576C391.353 113.639 391.362 113.029 391.453 112.137ZM334.979 68.3905C334.979 65.8798 337.017 63.8511 339.518 63.8511H342.129V100.166L340.674 65.7888L337.954 129.995L334.97 130.268L334.979 68.3905ZM258.874 144.704C264.342 143.968 272.138 142.758 281.517 141.602C290.886 140.402 301.839 139.119 313.583 137.873C319.46 137.281 325.518 136.581 331.695 136.017C337.863 135.435 344.131 134.843 350.407 134.261C356.684 133.734 362.961 133.215 369.138 132.697C375.315 132.151 381.401 131.778 387.286 131.332C399.067 130.495 410.065 129.831 419.508 129.367C428.941 128.858 436.828 128.685 442.341 128.439C447.853 128.257 451.01 128.239 451.01 128.239C451.01 128.239 447.899 128.776 442.432 129.558C436.964 130.295 429.168 131.505 419.79 132.66C410.411 133.861 399.467 135.144 387.723 136.39C381.846 136.981 375.788 137.691 369.611 138.237C363.443 138.819 357.176 139.401 350.899 139.992C344.622 140.511 338.345 141.038 332.168 141.548C325.991 142.085 319.906 142.457 314.02 142.903C302.239 143.74 291.241 144.404 281.799 144.868C272.365 145.378 264.478 145.56 258.965 145.796C253.453 145.978 250.296 146.005 250.296 146.005C250.296 146.005 253.416 145.487 258.874 144.704ZM445.043 149.18L464.019 223.202L272.347 227.887L270.473 170.458L268.599 227.977L236.369 228.769L268.754 229.56L268.799 229.642L308.58 311.296L308.216 311.724L289.722 311.696L284.291 319.601L227.972 298.469V187.815L234.959 169.048L445.043 149.18ZM254.981 57.3469C255.518 55.9005 256.591 54.7542 257.992 54.1175C258.319 53.9628 258.665 53.8628 259.011 53.7718L189.765 238.202L187.509 238.657L254.981 57.3469ZM186.345 241.787L197.343 245.298L183.734 281.877L181.851 281.167C183.734 275.409 185.417 269.987 186.791 265.257C189.929 254.64 191.539 247.39 191.539 247.39C191.539 247.39 188.11 253.976 183.679 264.129C181.687 268.622 179.495 273.844 177.239 279.448L174.892 278.565C174.774 277.11 174.546 275.691 174.264 274.299L186.345 241.787ZM219.312 211.048V295.213L191.83 284.897L219.312 211.048ZM139.478 254.477C154.315 254.477 166.341 266.503 166.341 281.34C166.341 282.413 166.259 283.46 166.141 284.497L312.091 339.269C310.654 341.216 309.017 343.417 307.234 345.782L166.695 297.978L261.321 336.385L160.2 298.442C156.016 303.518 149.994 307.002 143.153 307.939V270.387C143.153 269.205 142.907 268.04 142.443 266.949L141.952 265.821C142.57 265.966 143.189 266.112 143.808 266.284C145.3 266.785 146.782 267.349 148.165 268.104C149.575 268.804 150.849 269.714 152.077 270.624C153.287 271.561 154.378 272.598 155.379 273.644C156.352 274.717 157.207 275.818 157.981 276.901C158.681 278.01 159.382 279.057 159.882 280.066C160.437 281.067 160.773 281.949 161.165 282.723C161.765 284.36 162.165 285.315 162.165 285.315C162.165 285.315 162.238 285.07 162.374 284.615C162.484 284.151 162.72 283.487 162.866 282.623C162.938 281.749 163.184 280.567 163.084 279.302C163.084 278.01 162.92 276.555 162.584 274.972C162.384 274.19 162.111 273.398 161.856 272.543C161.556 271.715 161.146 270.906 160.764 270.032C159.882 268.368 158.781 266.667 157.38 265.111C156.671 264.347 155.952 263.546 155.097 262.882C154.287 262.155 153.414 261.481 152.459 260.908C150.621 259.653 148.502 258.77 146.364 258.025C144.172 257.433 141.934 256.969 139.705 256.969L138.113 256.951L137.112 254.631C137.904 254.559 138.677 254.477 139.478 254.477ZM289.222 356.089C288.248 359.137 287.757 362.321 287.693 365.605L274.803 366.441C274.812 361.202 275.749 356.317 277.569 351.714L289.222 356.089ZM262.886 367.233L160.655 373.91L159.263 372.409L180.514 315.308L266.243 347.474L259.702 355.016L262.886 367.233ZM161.174 309.431C161.574 309.122 161.992 308.822 162.384 308.494L165.813 309.777C165.54 310.55 165.258 311.351 164.985 312.124C163.757 315.535 162.684 318.937 161.574 322.212C159.4 328.771 157.48 334.93 155.943 340.251C152.805 350.868 151.185 358.118 151.185 358.118C151.185 358.118 154.615 351.523 159.036 341.379C161.274 336.313 163.775 330.363 166.332 323.95C167.587 320.729 168.961 317.436 170.207 314.034C170.489 313.279 170.78 312.515 171.062 311.76L172.427 312.269L152.704 365.277L143.944 355.771L161.174 309.431ZM143.162 333.019V316.645C145.409 316.408 147.61 315.963 149.748 315.317L143.162 333.019ZM120.101 414.027L105.018 427.009L57.3416 419.076L92.0281 431.393L8.63679 450.542L52.8387 418.357L85.5056 276.146L59.0791 133.943H75.4172L132.837 266.512L89.2354 275.864L134.52 273.926V358.309V394.951L121.784 410.088L141.242 395.952V365.595L157.098 382.798L296.899 373.673C296.899 373.673 296.918 373.646 296.927 373.637L369.074 368.779L302.212 366.742C310.536 355.834 325.728 335.812 325.728 334.766C325.728 334.739 325.746 334.721 325.791 334.721C327.956 334.721 382.419 368.87 382.419 368.87L592.976 353.86C590.766 358.063 589.492 362.839 589.492 367.906C589.492 371.445 590.138 374.829 591.257 377.995L150.849 408.633L523.749 392.304L120.101 414.027ZM400.522 337.195C408.509 336.758 419.926 336.458 433.589 336.713C440.439 336.913 447.863 337.131 455.722 337.359C463.591 337.568 471.888 337.841 480.475 337.941C489.062 338.05 497.932 338.296 506.947 338.314C515.962 338.359 525.123 338.414 534.274 338.468C543.435 338.423 552.595 338.368 561.601 338.323C570.616 338.323 579.486 338.068 588.073 337.95C596.661 337.886 605.002 337.45 612.68 337.622C614.354 337.659 616.01 337.704 617.647 337.75C611.116 338.205 605.148 340.706 600.409 344.654L556.025 347.82V341.843H540.005V348.966L440.721 356.044V341.843H424.702V357.181L385.612 359.964C382.465 349.73 375.906 340.997 367.282 335.039C375.797 333.647 395.301 330.918 417.488 330.918C424.957 330.918 438.711 330.918 455.795 330.918C455.768 330.918 455.75 330.918 455.722 330.918C447.863 331.109 440.412 331.355 433.489 331.764C419.68 332.528 408.255 334.093 400.322 335.494C392.39 336.895 387.959 338.168 387.959 338.168C387.959 338.168 392.535 337.613 400.522 337.195ZM725.273 343.754C726.428 343.881 728.065 344.391 730.048 344.927C731.031 345.309 732.123 345.691 733.269 346.183C734.369 346.801 735.643 347.22 736.835 348.029C739.318 349.421 741.82 351.45 744.185 353.888C746.032 355.844 747.715 358.163 749.125 360.756C743.794 352.214 734.342 346.51 723.535 346.51C706.879 346.51 693.37 360.019 693.37 376.675C693.37 387.428 699.01 396.843 707.479 402.183C704.95 400.791 702.685 399.127 700.756 397.316C698.309 394.951 696.29 392.459 694.898 389.975C694.088 388.783 693.661 387.51 693.051 386.409C692.56 385.263 692.178 384.171 691.796 383.189C691.25 381.178 690.75 379.55 690.613 378.413C690.395 377.276 690.277 376.666 690.277 376.666C690.277 376.666 690.222 377.285 690.113 378.44C689.968 379.605 689.968 381.315 690.104 383.534C690.268 384.617 690.413 385.845 690.659 387.173C691.005 388.465 691.287 389.921 691.896 391.367C692.906 394.351 694.616 397.553 697.081 400.646C700.038 404.476 704.331 408.078 709.635 410.543C696.317 405.058 686.902 391.949 686.902 376.666C686.902 356.462 703.34 340.033 723.544 340.033C738.882 340.033 752.027 349.512 757.476 362.921C756.993 361.875 756.475 360.865 755.911 359.901C753.619 355.88 750.607 352.66 747.505 350.222C744.412 347.756 741.21 346.046 738.227 345.036C736.78 344.427 735.325 344.154 734.033 343.799C732.705 343.554 731.486 343.408 730.394 343.244C728.147 343.099 726.455 343.108 725.3 343.253C724.145 343.354 723.526 343.408 723.526 343.408C723.526 343.408 724.135 343.535 725.273 343.754ZM745.704 376.685C745.704 388.929 735.779 398.863 723.526 398.863C711.272 398.863 701.348 388.938 701.348 376.685C701.348 364.44 711.272 354.506 723.526 354.506C735.779 354.506 745.704 364.44 745.704 376.685ZM678.487 376.685C678.487 394.796 689.258 410.407 704.714 417.548C701.621 417.693 698.655 417.757 695.89 417.757H445.179L628.882 413.854L495.912 411.025C555.725 408.042 614.245 404.94 625.543 403.939C646.266 402.101 650.896 385.399 649.832 371.135C649.941 370.071 650.014 368.989 650.014 367.897C650.014 352.569 638.552 339.897 623.751 337.932C627.554 338.059 631.238 338.196 634.768 338.341C648.495 338.905 659.939 339.378 667.944 339.715C675.967 339.979 680.552 340.133 680.552 340.133C680.552 340.133 676.04 339.287 668.108 337.995C660.175 336.731 648.84 334.993 635.159 333.383C628.318 332.565 620.904 331.719 612.98 331.155C611.634 331.054 610.279 330.982 608.923 330.909C612.935 330.909 616.601 330.909 619.748 330.909C652.688 330.909 685.928 336.212 699.474 338.659C686.884 346.665 678.487 360.692 678.487 376.685ZM620.758 348.948C621.431 349.085 622.368 349.485 623.451 349.876C624.561 350.376 625.843 351.031 627.162 351.95C628.491 352.832 629.791 354.079 631.01 355.489C633.385 358.372 635.131 362.384 635.122 366.678C635.086 367.169 635.131 367.851 635.05 368.188C634.968 368.798 634.958 369.689 634.813 370.044C634.622 370.899 634.331 372.027 633.912 373.018C633.085 375.029 631.884 376.921 630.31 378.477C628.754 380.041 626.862 381.242 624.852 382.07C622.778 382.87 620.776 383.289 618.411 383.262C614.336 383.289 610.179 381.533 607.34 379.159C605.93 377.949 604.693 376.648 603.802 375.32C602.883 374.01 602.237 372.718 601.728 371.618C601.327 370.49 600.927 369.571 600.791 368.925C600.6 368.27 600.49 367.924 600.49 367.924C600.49 367.924 600.427 368.279 600.29 368.952C600.154 369.634 600.045 370.644 600.036 371.963C600.099 373.264 600.208 374.92 600.8 376.721C601.3 378.558 602.228 380.56 603.656 382.497C603.893 382.834 604.166 383.162 604.429 383.489C600.39 379.523 597.88 374.01 597.88 367.915C597.88 355.862 607.686 346.055 619.739 346.055C625.871 346.055 631.411 348.602 635.386 352.687C635.031 352.396 634.667 352.096 634.313 351.841C632.375 350.413 630.365 349.485 628.536 348.984C626.735 348.393 625.088 348.293 623.778 348.22C622.423 348.22 621.431 348.329 620.767 348.475C620.094 348.602 619.739 348.666 619.739 348.666C619.739 348.666 620.103 348.757 620.758 348.948ZM373.059 352.814C360.278 344.845 351.144 339.242 344.567 335.321C356.511 336.54 366.836 343.235 373.059 352.814ZM353.81 410.107C349.68 411.617 345.25 412.472 340.61 412.472C337.426 412.472 334.342 412.044 331.377 411.307L353.81 410.107ZM699.983 434.932H354.073C331.431 434.932 303.158 434.905 287.22 413.7L306.788 412.645C324.372 426.144 350.444 426.163 368.938 426.163H695.88C745.422 426.163 773.841 408.342 773.841 377.276C773.841 309.313 609.833 308.531 602.846 308.531H436.773C433.026 308.476 354.856 307.939 313.365 330.509L301.675 326.124C342.775 301.717 417.097 300.889 426.585 300.889C427.185 300.889 427.522 300.889 427.586 300.889H607.75C609.515 300.889 784.311 301.844 784.311 380.878C784.302 420.732 740.746 434.932 699.983 434.932ZM845.552 352.778H835.063L830.979 288.053L826.894 352.778H805.498L801.414 288.053L797.329 352.778H792.217L778.817 341.907L770.029 322.003L743.557 317.045L728.611 300.171L703.34 303.309L684.646 287.844L661.749 294.394L642.127 281.613L616.865 292.056L596.069 281.103L576.647 291.328L557.226 281.103L537.804 291.328L518.382 281.103L498.96 291.328L479.538 281.103L460.116 291.328L440.694 281.103L420.235 291.883L401.678 282.732L381.655 293.957L361.087 287.071L343.257 300.525L319.978 297.978L314.347 304.528L273.111 229.651L471.915 234.509L492.565 256.851L509.094 276.982H767.209L789.569 219.445H825.439L844.56 271.952L771.776 276.982L845.525 282.086V352.778H845.552Z" fill="#3F3F3F"/>
<path d="M228.072 386.718C247.83 385.8 270.882 384.599 295.571 383.18C307.916 382.452 320.66 381.697 333.623 380.933C346.577 380.114 359.741 379.286 372.895 378.458C386.049 377.567 399.212 376.666 412.157 375.784C425.102 374.847 437.847 373.937 450.173 373.046C474.835 371.226 497.841 369.407 517.554 367.742C537.267 366.123 553.687 364.531 565.185 363.53C576.674 362.42 583.242 361.784 583.242 361.784C583.242 361.784 576.647 362.011 565.112 362.411C553.586 362.921 537.103 363.485 517.344 364.449C497.586 365.368 474.534 366.569 449.845 367.988C437.501 368.716 424.756 369.471 411.793 370.235C398.839 371.053 385.676 371.881 372.522 372.709C359.368 373.601 346.204 374.501 333.259 375.374C320.315 376.302 307.57 377.221 295.244 378.113C270.582 379.932 247.576 381.742 227.863 383.407C208.15 385.017 191.73 386.627 180.231 387.628C168.742 388.738 162.174 389.375 162.174 389.375C162.174 389.375 168.769 389.147 180.304 388.747C191.83 388.238 208.314 387.692 228.072 386.718Z" fill="#3F3F3F"/>
<path d="M95.3576 202.552C97.0224 206.354 98.6871 210.166 100.334 213.905C101.944 217.662 103.69 221.3 105.291 224.848C108.548 231.925 111.696 238.493 114.488 244.07C120.028 255.259 124.195 262.509 124.195 262.509C124.195 262.509 121.811 254.486 117.536 242.76C115.425 236.883 112.842 230.079 109.958 222.838C108.494 219.226 107.065 215.46 105.455 211.703C103.872 207.928 102.271 204.098 100.661 200.268C98.9964 196.466 97.3225 192.654 95.6851 188.906C94.0659 185.149 92.3284 181.52 90.7273 177.963C87.4706 170.885 84.3231 164.317 81.5303 158.741C75.9903 147.552 71.833 140.292 71.833 140.292C71.833 140.292 74.2164 148.307 78.5011 160.033C80.6115 165.909 83.1951 172.714 86.0788 179.955C87.5434 183.566 88.9807 187.332 90.5817 191.089C92.1464 194.883 93.7475 198.713 95.3576 202.552Z" fill="#3F3F3F"/>
<path d="M130.017 391.13L130.053 390.257C130.254 385.691 130.317 381.133 130.426 376.566C130.554 372 130.581 367.433 130.608 362.875C130.636 358.309 130.699 353.751 130.636 349.185C130.59 344.618 130.599 340.06 130.508 335.494C130.345 326.37 130.09 317.236 129.662 308.112C129.226 298.988 128.689 289.855 127.788 280.73C126.888 289.855 126.351 298.988 125.914 308.112C125.496 317.245 125.241 326.37 125.077 335.494C124.986 340.06 124.996 344.627 124.95 349.185C124.886 353.751 124.95 358.318 124.977 362.875C125.005 367.442 125.032 372 125.159 376.566C125.259 380.896 125.332 385.227 125.505 389.557C121.994 394.251 118.555 399.008 115.144 403.784C111.614 408.842 108.066 413.882 104.728 419.085C109.076 414.682 113.215 410.116 117.372 405.567C121.475 400.973 125.56 396.361 129.553 391.676L130.017 391.13Z" fill="#3F3F3F"/>
<path d="M448.263 269.005C442.677 268.813 437.083 268.768 431.497 268.641C425.912 268.495 420.317 268.504 414.732 268.459C409.137 268.422 403.552 268.368 397.966 268.431C386.786 268.45 375.606 268.632 364.426 268.886L363.643 268.904L363.098 269.232L351.326 276.191C347.387 278.493 343.521 280.921 339.618 283.278C331.85 288.053 324.099 292.884 316.503 297.996C324.881 294.321 333.114 290.373 341.31 286.37C345.395 284.333 349.516 282.368 353.564 280.285L365.062 274.426C376.033 274.663 386.995 274.845 397.966 274.863C403.552 274.927 409.146 274.872 414.732 274.836C420.317 274.79 425.912 274.799 431.497 274.654C437.092 274.526 442.677 274.481 448.263 274.281C453.848 274.081 459.443 273.971 465.028 273.689C476.208 273.225 487.389 272.607 498.569 271.643C487.389 270.678 476.208 270.06 465.028 269.596C459.443 269.314 453.848 269.205 448.263 269.005Z" fill="#3F3F3F"/>
<path d="M341.692 180.546C345.449 180.619 349.334 180.783 353.282 180.792C357.23 180.828 361.233 180.856 365.244 180.892C369.256 180.865 373.259 180.828 377.207 180.792C381.155 180.792 385.039 180.619 388.796 180.546C396.31 180.346 403.324 180.037 409.337 179.664C421.363 178.982 429.377 178.008 429.377 178.008C429.377 178.008 421.363 177.035 409.337 176.353C403.324 175.98 396.31 175.67 388.796 175.47C385.039 175.397 381.155 175.225 377.207 175.225C373.259 175.188 369.256 175.161 365.244 175.125C361.233 175.161 357.23 175.188 353.282 175.225C349.334 175.234 345.449 175.397 341.692 175.47C334.178 175.679 327.165 175.98 321.152 176.353C309.126 177.035 301.111 177.999 301.111 177.999C301.111 177.999 309.126 178.963 321.152 179.646C327.165 180.037 334.178 180.346 341.692 180.546Z" fill="#FDAA0C"/>
<path d="M341.692 196.402C345.449 196.475 349.334 196.639 353.282 196.648C357.23 196.684 361.233 196.711 365.244 196.748C369.256 196.711 373.259 196.684 377.207 196.648C381.155 196.648 385.039 196.475 388.796 196.402C396.31 196.202 403.324 195.893 409.337 195.52C421.363 194.837 429.377 193.864 429.377 193.864C429.377 193.864 421.363 192.891 409.337 192.208C403.324 191.835 396.31 191.526 388.796 191.326C385.039 191.253 381.155 191.08 377.207 191.08C373.259 191.044 369.256 191.017 365.244 190.98C361.233 191.017 357.23 191.044 353.282 191.08C349.334 191.089 345.449 191.253 341.692 191.326C334.178 191.526 327.165 191.835 321.152 192.208C309.126 192.891 301.111 193.855 301.111 193.855C301.111 193.855 309.126 194.819 321.152 195.501C327.165 195.893 334.178 196.202 341.692 196.402Z" fill="#FDAA0C"/>
<path d="M341.692 212.258C345.449 212.331 349.334 212.495 353.282 212.504C357.23 212.54 361.233 212.567 365.244 212.604C369.256 212.567 373.259 212.54 377.207 212.504C381.155 212.504 385.039 212.331 388.796 212.258C396.31 212.058 403.324 211.749 409.337 211.376C421.363 210.693 429.377 209.72 429.377 209.72C429.377 209.72 421.363 208.747 409.337 208.064C403.324 207.691 396.31 207.382 388.796 207.182C385.039 207.109 381.155 206.936 377.207 206.936C373.259 206.9 369.256 206.873 365.244 206.836C361.233 206.873 357.23 206.9 353.282 206.936C349.334 206.945 345.449 207.109 341.692 207.182C334.178 207.382 327.165 207.691 321.152 208.064C309.126 208.747 301.111 209.711 301.111 209.711C301.111 209.711 309.126 210.675 321.152 211.357C327.165 211.749 334.178 212.049 341.692 212.258Z" fill="#FDAA0C"/>
<path d="M582.488 250.447H668.608V228.76H582.488V250.447ZM588.155 232.681H662.95L588.155 246.535V232.681Z" fill="#3F3F3F"/>
<path d="M749.107 236.519H734.697V250.929H749.107V236.519Z" fill="#3F3F3F"/>
<path d="M725.509 236.519H711.1V250.929H725.509V236.519Z" fill="#3F3F3F"/>
<path d="M466.056 245.289H451.647V259.698H466.056V245.289Z" fill="#3F3F3F"/>
<path d="M320.242 245.289H305.833V259.698H320.242V245.289Z" fill="#3F3F3F"/>
<path d="M640.926 172.632C638.388 172.996 635.759 173.269 633.103 173.724C630.446 174.151 627.754 174.579 625.052 175.006C622.368 175.498 619.685 175.998 617.038 176.48C614.39 176.944 611.807 177.553 609.296 178.063C604.284 179.127 599.626 180.246 595.651 181.301C587.691 183.357 582.469 185.231 582.469 185.231C582.469 185.231 588.018 185.258 596.206 184.549C600.308 184.221 605.066 183.721 610.151 183.057C612.689 182.702 615.318 182.411 617.975 181.965C620.631 181.547 623.324 181.119 626.025 180.683C628.709 180.192 631.392 179.691 634.04 179.209C636.687 178.754 639.27 178.136 641.781 177.635C646.794 176.571 651.451 175.461 655.426 174.397C663.386 172.341 668.608 170.458 668.608 170.458C668.608 170.458 663.059 170.421 654.872 171.14C650.769 171.458 646.011 171.959 640.926 172.632Z" fill="#3F3F3F"/>
<path d="M263.123 239.949H235.741V245.289H263.123V239.949Z" fill="#3F3F3F"/>
<path d="M263.123 255.223H235.741V260.563H263.123V255.223Z" fill="#3F3F3F"/>
<path d="M263.123 270.496H235.741V275.836H263.123V270.496Z" fill="#3F3F3F"/>
<path d="M263.123 285.779H235.741V291.119H263.123V285.779Z" fill="#3F3F3F"/>
<path d="M249.432 221.628C254.153 221.628 257.992 217.798 257.992 213.068C257.992 208.337 254.162 204.507 249.432 204.507C244.701 204.507 240.871 208.337 240.871 213.068C240.871 217.789 244.701 221.628 249.432 221.628Z" fill="#3F3F3F"/>
<path d="M249.432 193.873C254.153 193.873 257.992 190.043 257.992 185.313C257.992 180.582 254.162 176.753 249.432 176.753C244.701 176.753 240.871 180.582 240.871 185.313C240.871 190.043 244.701 193.873 249.432 193.873Z" fill="#3F3F3F"/>
<path d="M723.526 357.863C713.128 357.863 704.705 366.287 704.705 376.684C704.705 387.082 713.128 395.506 723.526 395.506C733.924 395.506 742.348 387.082 742.348 376.684C742.348 366.287 733.924 357.863 723.526 357.863Z" fill="#3F3F3F"/>
<path d="M665.014 347.829C661.094 347.829 657.91 351.013 657.91 354.934C657.91 358.855 661.085 362.038 665.014 362.038C668.935 362.038 672.119 358.855 672.119 354.934C672.119 351.013 668.944 347.829 665.014 347.829Z" fill="#3F3F3F"/>
<path d="M665.014 372.955C661.094 372.955 657.91 376.13 657.91 380.059C657.91 383.98 661.085 387.164 665.014 387.164C668.935 387.164 672.119 383.989 672.119 380.059C672.119 376.13 668.944 372.955 665.014 372.955Z" fill="#3F3F3F"/>
<path d="M665.014 398.071C661.094 398.071 657.91 401.255 657.91 405.176C657.91 409.097 661.085 412.281 665.014 412.281C668.935 412.281 672.119 409.097 672.119 405.176C672.119 401.255 668.944 398.071 665.014 398.071Z" fill="#3F3F3F"/>
</g>
<path d="M288.575 209.807C286.866 209.954 285.258 209.823 283.75 209.414C282.261 208.982 280.937 208.308 279.779 207.391C278.642 206.473 277.717 205.36 277.002 204.053C276.286 202.725 275.857 201.237 275.715 199.59C275.573 197.942 275.742 196.414 276.222 195.003C276.7 193.572 277.421 192.307 278.384 191.207C279.368 190.106 280.557 189.226 281.952 188.566C283.366 187.884 284.928 187.47 286.637 187.322C288.634 187.15 290.445 187.346 292.071 187.912C293.716 188.475 295.121 189.37 296.285 190.598L292.697 194.454C291.926 193.691 291.1 193.129 290.218 192.77C289.357 192.408 288.412 192.272 287.382 192.361C286.497 192.437 285.696 192.651 284.98 193.004C284.263 193.356 283.661 193.833 283.174 194.435C282.705 195.015 282.35 195.699 282.106 196.487C281.884 197.274 281.812 198.131 281.892 199.057C281.972 199.984 282.189 200.815 282.543 201.552C282.918 202.288 283.386 202.911 283.949 203.423C284.53 203.912 285.204 204.269 285.97 204.493C286.736 204.717 287.562 204.791 288.448 204.715C289.477 204.626 290.385 204.33 291.171 203.827C291.978 203.322 292.696 202.627 293.325 201.743L297.52 204.928C296.582 206.316 295.351 207.439 293.828 208.296C292.324 209.131 290.573 209.635 288.575 209.807ZM301.053 203.41C302.298 203.656 303.296 203.684 304.047 203.494C304.817 203.283 305.462 202.709 305.983 201.772L306.9 200.137L307.375 199.505L312.949 185.489L318.91 184.975L311.394 202.457C310.651 204.18 309.7 205.548 308.543 206.561C307.406 207.571 306.112 208.201 304.661 208.451C303.21 208.701 301.653 208.565 299.99 208.045L301.053 203.41ZM307.705 204.424L296.24 186.93L302.695 186.373L310.668 199.812L307.705 204.424ZM322.736 206.426L320.872 184.806L325.906 184.372L336.1 198.304L333.443 198.533L340.916 183.078L345.951 182.644L347.877 204.258L342.225 204.746L341.067 191.684L342.025 191.601L336.451 203.097L333.733 203.331L326.088 192.975L327.231 192.877L328.357 205.941L322.736 206.426ZM361.463 203.087L359.599 181.467L365.622 180.948L367.068 197.719L375.376 197.002L373.93 180.232L379.953 179.712L381.817 201.332L361.463 203.087ZM379.572 205.975L379.074 200.2L380.458 201.449L375.794 201.851L375.376 197.002L384.364 196.227L385.163 205.493L379.572 205.975ZM387.674 200.827L385.81 179.207L390.844 178.773L401.037 192.705L398.381 192.934L405.854 177.479L410.889 177.045L412.814 198.66L407.162 199.147L406.005 186.085L406.962 186.002L401.388 197.498L398.67 197.732L391.026 187.377L392.168 187.278L393.295 200.343L387.674 200.827ZM417.413 198.263L415.549 176.643L420.583 176.209L430.777 190.141L428.12 190.37L435.594 174.915L440.628 174.481L442.554 196.096L436.902 196.583L435.744 183.521L436.702 183.438L431.128 194.934L428.41 195.168L420.765 184.812L421.908 184.714L423.034 197.778L417.413 198.263Z" fill="#3F3F3F"/>
<defs>
<filter id="filter0_d_551_10955" x="0" y="0" width="878.049" height="468.193" filterUnits="userSpaceOnUse" color-interpolation-filters="sRGB">
<feFlood flood-opacity="0" result="BackgroundImageFix"/>
<feColorMatrix in="SourceAlpha" type="matrix" values="0 0 0 0 0 0 0 0 0 0 0 0 0 0 0 0 0 0 127 0" result="hardAlpha"/>
<feOffset dx="5" dy="5"/>
<feGaussianBlur stdDeviation="2"/>
<feComposite in2="hardAlpha" operator="out"/>
<feColorMatrix type="matrix" values="0 0 0 0 0 0 0 0 0 0 0 0 0 0 0 0 0 0 0.25 0"/>
<feBlend mode="normal" in2="BackgroundImageFix" result="effect1_dropShadow_551_10955"/>
<feBlend mode="normal" in="SourceGraphic" in2="effect1_dropShadow_551_10955" result="shape"/>
</filter>
</defs>
</svg>
