<?xml version="1.0" encoding="utf-8"?>
<!-- Generator: Adobe Illustrator 22.0.1, SVG Export Plug-In . SVG Version: 6.00 Build 0)  -->
<svg version="1.1" id="Слой_1" xmlns="http://www.w3.org/2000/svg" xmlns:xlink="http://www.w3.org/1999/xlink" x="0px" y="0px"
	 viewBox="0 0 155.9 155.9" style="enable-background:new 0 0 155.9 155.9;" xml:space="preserve">

<circle class="st0" cx="57.2" cy="118.6" r="7.9"/>
<circle class="st0" cx="57.2" cy="118.6" r="2.3"/>
<circle class="st0" cx="120" cy="118.6" r="7.9"/>
<circle class="st0" cx="120" cy="118.6" r="2.3"/>
<circle class="st0" cx="39" cy="118.6" r="7.9"/>
<circle class="st0" cx="39" cy="118.6" r="2.3"/>
<path class="st0" d="M112.2,110.8H65.7c-0.2,0-0.3,0-0.4-0.1l-4-1.4c-2.6-0.7-5.3-0.7-7.9-0.1l-4.5,1.3c-0.4,0.1-0.9,0.1-1.3,0
	l-3.9-1.3c-3.2-0.9-6.4-0.8-8.9,0.2l-3.2,1.2c-0.1,0-0.3,0.1-0.4,0.1H20.1c-2,0-3.7-1.7-3.7-3.7v-5.3h95.8L112.2,110.8z"/>
<path class="st0" d="M31.2,118.6h-5.5c-1.7,0-3.1-1.4-3.1-3.1v-4.7"/>
<line class="st0" x1="112.2" y1="118.6" x2="65.1" y2="118.6"/>
<path class="st0" d="M112.2,101.8V74.6h17.3c0.8,0,1.4,0.6,1.5,1.3c0.3,2.8,1.6,9.9,6.8,18.5c0.7,1.1,1.5,2.3,2.3,3.5
	c0.2,0.3,0.3,0.6,0.3,1l0,16.2c0,0.7-0.6,1.2-1.2,1.2h-11.3"/>
<path class="st0" d="M137.8,94.4h-16.4c-0.8,0-1.4-0.6-1.4-1.4V84c0-0.7,0.5-1.2,1.2-1.2h10.9"/>
<line class="st0" x1="140.4" y1="104.6" x2="135.6" y2="104.6"/>
<line class="st0" x1="112.2" y1="110.8" x2="119.7" y2="110.8"/>
<rect x="66.9" y="34.1" class="st0" width="31.8" height="18"/>
<circle class="st0" cx="32.4" cy="73.7" r="6.7"/>
<line class="st0" x1="39" y1="71.5" x2="85.3" y2="52.1"/>
<line class="st0" x1="66.9" y1="52.1" x2="33.4" y2="67.1"/>
<line class="st0" x1="38.7" y1="75.8" x2="95.9" y2="101.8"/>
<line class="st0" x1="32.4" y1="80.4" x2="64.3" y2="101.8"/>
</svg>
