<?xml version="1.0" encoding="utf-8"?>
<!-- Generator: Adobe Illustrator 22.0.1, SVG Export Plug-In . SVG Version: 6.00 Build 0)  -->
<svg version="1.1" id="Слой_1" xmlns="http://www.w3.org/2000/svg" xmlns:xlink="http://www.w3.org/1999/xlink" x="0px" y="0px"
	 viewBox="0 0 155.9 155.9" style="enable-background:new 0 0 155.9 155.9;" xml:space="preserve">
<style type="text/css">
</style>
<circle class="st0" cx="52.3" cy="118.7" r="7.9"/>
<circle class="st0" cx="52.3" cy="118.7" r="2.3"/>
<circle class="st0" cx="115.1" cy="118.7" r="7.9"/>
<circle class="st0" cx="115.1" cy="118.7" r="2.3"/>
<circle class="st0" cx="34.1" cy="118.7" r="7.9"/>
<circle class="st0" cx="34.1" cy="118.7" r="2.3"/>
<path class="st0" d="M107.2,110.8H60.8c-0.2,0-0.3,0-0.4-0.1l-4-1.4c-2.6-0.7-5.3-0.7-7.9-0.1l-4.5,1.3c-0.4,0.1-0.9,0.1-1.3,0
	l-3.9-1.3c-3.2-0.9-6.4-0.8-8.9,0.2l-3.2,1.2c-0.1,0-0.3,0.1-0.4,0.1H15.2c-2,0-3.7-1.7-3.7-3.7v-5.3h95.8V110.8z"/>
<path class="st0" d="M26.3,118.7l-5.5,0c-1.7,0-3.1-1.4-3.1-3.1v-4.7"/>
<line class="st0" x1="107.2" y1="118.7" x2="60.2" y2="118.7"/>
<path class="st0" d="M107.2,101.8V74.6h17.3c0.8,0,1.4,0.6,1.5,1.3c0.3,2.8,1.6,9.9,6.8,18.5c0.7,1.1,1.5,2.3,2.3,3.5
	c0.2,0.3,0.3,0.6,0.3,1l0,16.2c0,0.7-0.6,1.2-1.2,1.2H123"/>
<path class="st0" d="M132.9,94.5h-16.4c-0.8,0-1.4-0.6-1.4-1.4V84c0-0.7,0.5-1.2,1.2-1.2h10.9"/>
<line class="st0" x1="135.5" y1="104.7" x2="130.7" y2="104.7"/>
<line class="st0" x1="107.2" y1="110.8" x2="114.8" y2="110.8"/>
<path class="st0" d="M44.5,101.8v-43c0-4.8-4-8.8-8.8-8.8h0c-4.8,0-8.8,4-8.8,8.8v43"/>
<path class="st0" d="M44.5,80.7h11.6c0,0,6.2,1.4,6.3,6.8c0.1,5.3,0,14.4,0,14.4"/>
<polyline class="st0" points="62.4,92.8 51.9,92.8 51.9,80.7 "/>
<polyline class="st0" points="44.5,63 77.3,63 132.9,63 "/>
<line class="st0" x1="44.5" y1="75.2" x2="78.8" y2="63"/>
<path class="st0" d="M43.7,55.3h100.7V65c0,0-5.1,9.7-11.1,0v-9.1"/>
<line class="st0" x1="138.8" y1="69.3" x2="138.8" y2="74.1"/>
<path class="st0" d="M138.8,73.1c2.5,0,4.6,2.1,4.6,4.6c0,2.5-2.1,4.6-4.6,4.6c-2.5,0-4.6-2.1-4.6-4.6"/>
</svg>
