<?xml version="1.0" encoding="UTF-8"?>
<!-- Generator: Adobe Illustrator 22.0.1, SVG Export Plug-In . SVG Version: 6.00 Build 0)  -->
<svg version="1.1" id="Слой_1" xmlns="http://www.w3.org/2000/svg" xmlns:xlink="http://www.w3.org/1999/xlink" x="0px" y="0px" viewBox="0 0 155.9 155.9" style="enable-background:new 0 0 155.9 155.9;" xml:space="preserve">
<style type="text/css">
</style>
<path class="st0" d="M95,114.1c1.5-2.8,4.4-4.7,7.9-4.7c2,0,3.6,0.5,5.1,1.5"/>
<path class="st0" d="M111.5,116c0.2,0.6,0.2,1.3,0.2,2c0,4.7-4,8.6-8.8,8.6c-4.9,0-8.8-3.8-8.8-8.6c0-0.1,0-0.1,0-0.2"/>
<path class="st0" d="M105.4,117.5c0,0.2,0.1,0.3,0.1,0.5c0,1.4-1.2,2.5-2.6,2.5c-1.4,0-2.6-1.1-2.6-2.5c0-0.1,0-0.2,0-0.3"/>
<ellipse class="st0" cx="27.7" cy="118" rx="8.8" ry="8.6"/>
<ellipse class="st0" cx="27.7" cy="118" rx="2.6" ry="2.5"/>
<ellipse class="st0" cx="78.6" cy="107.7" rx="3.1" ry="3"/>
<ellipse class="st0" cx="51.8" cy="107.7" rx="3.1" ry="3"/>
<line class="st0" x1="28.1" y1="126.5" x2="102.9" y2="126.5"/>
<line class="st0" x1="36.5" y1="118" x2="44.8" y2="118"/>
<line class="st0" x1="94.1" y1="118" x2="63.2" y2="118"/>
<path class="st0" d="M20.7,112.7"/>
<path class="st0" d="M20.7,112.7h-2.9c-1.3,0-2.3-1-2.3-2.3v-4.6c0-1.2,1-2.2,2.2-2.2h95.8c0.8,0,1.4,0.6,1.4,1.4v4.4"/>
<line class="st0" x1="27.7" y1="109.4" x2="44.8" y2="103.6"/>
<line class="st0" x1="102.9" y1="109.4" x2="84.8" y2="103.6"/>
<line class="st0" x1="92.4" y1="89.2" x2="92.4" y2="94.2"/>
<line class="st0" x1="86.4" y1="89.2" x2="86.4" y2="94.2"/>
<line class="st0" x1="80.6" y1="89.2" x2="80.6" y2="94.2"/>
<path class="st0" d="M112.8,103.6V85.3c0-1.8-1.5-3.3-3.3-3.3H66.6v21.6"/>
<path class="st0" d="M17.7,103.6V88.5c0-2.2,1.8-4,4-4h12V65.6h29l4,16.4"/>
<polyline class="st0" points="33.6,75.7 21.8,75.7 21.6,84.5 "/>
<polyline class="st0" points="74.4,82 74.4,62.6 70.1,57.9 "/>
<path class="st0" d="M42.1,65.6v13.3c0,0-0.3,7.1,24.5,10.3"/>
<line class="st0" x1="33.6" y1="65.6" x2="31.4" y2="65.6"/>
<path class="st0" d="M142.3,123.4h-4.2h-13.3l-1.3-29.9c0-1,0.9-1.8,1.9-1.6l2.7,0.6c0.7,0.1,1.2,0.6,1.4,1.3l9.1,29.1"/>
<line class="st0" x1="124.4" y1="115.4" x2="94.1" y2="118"/>
<line class="st0" x1="95" y1="114.1" x2="80.6" y2="118"/>
<line class="st0" x1="123.4" y1="106.5" x2="95" y2="114.1"/>
<line class="st0" x1="51.8" y1="110.7" x2="78.6" y2="110.7"/>
<line class="st0" x1="63.2" y1="116.5" x2="89.7" y2="116.4"/>
</svg>