<svg id="Слой_1" data-name="Слой 1" xmlns="http://www.w3.org/2000/svg" viewBox="0 0 155.91 155.91">
    <defs>
    </defs>
    <circle class="cls-1" cx="51.19" cy="119.17" r="8.28"/>
    <circle class="cls-1" cx="51.19" cy="119.17" r="2.41"/>
    <circle class="cls-1" cx="125.27" cy="119.17" r="8.28"/>
    <circle class="cls-1" cx="125.27" cy="119.17" r="2.41"/>
    <circle class="cls-1" cx="86.23" cy="119.17" r="8.28"/>
    <circle class="cls-1" cx="86.23" cy="119.17" r="2.41"/>
    <circle class="cls-1" cx="32.04" cy="119.17" r="8.28"/>
    <circle class="cls-1" cx="32.04" cy="119.17" r="2.41"/>
    <path class="cls-1"
          d="M112.05,105.33a2.18,2.18,0,0,1-2.15,2.17c-8.09.17-23-.12-26.48.55-4,.76-4.26,2-8.09,2.85a36.84,36.84,0,0,1-15.25,0l-.24,0-.23-.06-4.25-1.46a16.22,16.22,0,0,0-8.33-.1l-4.69,1.42a2.37,2.37,0,0,1-1.42,0l-4.13-1.33a14.84,14.84,0,0,0-9.41.25L24,110.82a1.32,1.32,0,0,1-.44.08H12.1A3.91,3.91,0,0,1,8.2,107v-5.55H112.05Z"/>
    <path class="cls-1" d="M23.76,119.17H18a3.32,3.32,0,0,1-3.32-3.31v-5"/>
    <path class="cls-1" d="M75,110.9,75,116a3.15,3.15,0,0,1-3.15,3.13H59.47"/>
    <line class="cls-1" x1="116.99" y1="119.17" x2="94.51" y2="119.17"/>
    <path class="cls-1"
          d="M117,110.9V72.82h18.24a1.56,1.56,0,0,1,1.56,1.4c.33,3,1.68,10.47,7.17,19.47.72,1.19,1.53,2.42,2.41,3.66a1.8,1.8,0,0,1,.33,1v17.07a1.31,1.31,0,0,1-1.31,1.31H133.54"/>
    <path class="cls-1" d="M144,93.69H126.71a1.44,1.44,0,0,1-1.44-1.45V82.71a1.25,1.25,0,0,1,1.26-1.26H138"/>
    <line class="cls-1" x1="146.7" y1="104.44" x2="141.65" y2="104.44"/>
    <line class="cls-1" x1="86.23" y1="110.9" x2="125.27" y2="110.9"/>
</svg>