<svg id="Слой_2" data-name="Слой 2" xmlns="http://www.w3.org/2000/svg" viewBox="0 0 155.91 155.91">
    <defs>
    </defs>
    <title>Монтажная область 1</title>
    <path d="M89.23,127.54a12,12,0,1,1,12-12A12,12,0,0,1,89.23,127.54Zm0-21.77A9.77,9.77,0,1,0,99,115.53,9.78,9.78,0,0,0,89.23,105.77Z"/>
    <path d="M89.23,119.8a4.27,4.27,0,1,1,4.26-4.27A4.27,4.27,0,0,1,89.23,119.8Zm0-6.4a2,2,0,1,0,2,2A2.09,2.09,0,0,0,89.23,113.4Z"/>
    <path d="M40,127.43a12,12,0,1,1,12-12A12,12,0,0,1,40,127.43Zm0-21.77a9.77,9.77,0,1,0,9.76,9.76A9.77,9.77,0,0,0,40,105.66Z"/>
    <path d="M40,119.69a4.27,4.27,0,1,1,4.26-4.27A4.26,4.26,0,0,1,40,119.69Zm0-6.4a2,2,0,1,0,2,2A2.09,2.09,0,0,0,40,113.29Z"/>
    <path class="cls-1"
          d="M51.16,117.44l17.11-.11V101.17l3.21-.59A1.9,1.9,0,0,0,73,99l.76-5.47A3.34,3.34,0,0,0,73.65,92L66,68.27,41.62,69.84"/>
    <path class="cls-1"
          d="M43.51,70.66V90.23L23,91.49,21,107l-2.37,0A1.94,1.94,0,0,0,16.72,109v3.62a1.11,1.11,0,0,0,.59,1l1.93,1h9.92"/>
    <line class="cls-1" x1="66.72" y1="68.21" x2="69.33" y2="68.21"/>
    <path class="cls-1"
          d="M75.43,115.31V105a1.64,1.64,0,0,1,0-.38l2.18-10.55a1.71,1.71,0,0,1,1.67-1.33h0a1.7,1.7,0,0,1,1.39.71l6.06,11.4"/>
    <line class="cls-1" x1="74.94" y1="105.05" x2="68.23" y2="105.05"/>
    <path class="cls-1"
          d="M81.23,94.24l19.65,5.5a8.27,8.27,0,0,1,3.92,3l8.57,12a2.43,2.43,0,0,0,.41.44l.4.35a1.76,1.76,0,0,1-1.22,3.09h0a3.32,3.32,0,0,1-2.14-.93L98.57,107.11l-4.28-1.2"/>
    <path class="cls-1" d="M114,114.3l2.77,5.3a3.54,3.54,0,0,0,3.1,1.78l21.4-.16"/>
    <path class="cls-1" d="M137,120.7l-9.28-19.31-10.68,4.31a1.88,1.88,0,0,0-1,1l-2.25,8.46"/>
    <path class="cls-1" d="M106.62,105.65l.72-2.72a6.77,6.77,0,0,0-.1-4.22L104.88,92a.35.35,0,0,0-.68.06l-1.42,8"/>
    <line class="cls-1" x1="80.71" y1="93.46" x2="104.1" y2="92.64"/>
    <line class="cls-1" x1="46.65" y1="107.01" x2="60.74" y2="107.01"/>
    <line class="cls-1" x1="21" y1="107.01" x2="33.51" y2="107.01"/>
    <line class="cls-1" x1="68.27" y1="115.86" x2="78.23" y2="115.86"/>
    <path class="cls-1" d="M72.13,88.29l-6.85,2.39a11.34,11.34,0,0,1-4.59.59L50.48,90.13"/>
    <polyline class="cls-1" points="35.73 89.8 35.73 85.83 33.51 84.52"/>
</svg>