<?xml version="1.0" encoding="utf-8"?>
<!-- Generator: Adobe Illustrator 22.0.1, SVG Export Plug-In . SVG Version: 6.00 Build 0)  -->
<svg version="1.1" id="Слой_1" xmlns="http://www.w3.org/2000/svg" xmlns:xlink="http://www.w3.org/1999/xlink" x="0px" y="0px"
	 viewBox="0 0 155.9 155.9" style="enable-background:new 0 0 155.9 155.9;" xml:space="preserve">

<circle class="st0" cx="57.4" cy="118.7" r="7.9"/>
<circle class="st0" cx="57.4" cy="118.7" r="2.3"/>
<circle class="st0" cx="120.2" cy="118.7" r="7.9"/>
<circle class="st0" cx="120.2" cy="118.7" r="2.3"/>
<circle class="st0" cx="39.2" cy="118.7" r="7.9"/>
<circle class="st0" cx="39.2" cy="118.7" r="2.3"/>
<path class="st0" d="M112.3,110.8H65.8c-0.2,0-0.3,0-0.4-0.1l-4-1.4c-2.6-0.7-5.3-0.7-7.9-0.1l-4.5,1.3c-0.4,0.1-0.9,0.1-1.3,0
	l-3.9-1.3c-3.2-0.9-6.4-0.8-8.9,0.2l-3.2,1.2c-0.1,0-0.3,0.1-0.4,0.1H20.2c-2,0-3.7-1.7-3.7-3.7v-5.3h95.8L112.3,110.8z"/>
<path class="st0" d="M31.3,118.7l-5.5,0c-1.7,0-3.1-1.4-3.1-3.1v-4.7"/>
<line class="st0" x1="112.3" y1="118.7" x2="65.2" y2="118.7"/>
<path class="st0" d="M112.3,101.9l0-27.2h17.3c0.8,0,1.4,0.6,1.5,1.3c0.3,2.8,1.6,9.9,6.8,18.5c0.7,1.1,1.5,2.3,2.3,3.5
	c0.2,0.3,0.3,0.6,0.3,1l0,16.2c0,0.7-0.6,1.2-1.2,1.2H128"/>
<path class="st0" d="M137.9,94.5h-16.4c-0.8,0-1.4-0.6-1.4-1.4v-9.1c0-0.7,0.5-1.2,1.2-1.2h10.9"/>
<line class="st0" x1="140.5" y1="104.7" x2="135.7" y2="104.7"/>
<line class="st0" x1="112.3" y1="110.8" x2="119.9" y2="110.8"/>
<path class="st0" d="M96.4,101.9V75.5c0-3.3,2.7-5.9,5.9-5.9h0c3.3,0,5.9,2.7,5.9,5.9v26.3"/>
<polyline class="st0" points="96.4,78.4 74.3,78.4 36.9,78.4 "/>
<line class="st0" x1="96.4" y1="86.6" x2="73.3" y2="78.4"/>
<path class="st0" d="M96.9,73.2H29.1v6.5c0,0,3.4,6.5,7.4,0v-6.1"/>
<line class="st0" x1="32.9" y1="82.6" x2="32.9" y2="86.2"/>
<path class="st0" d="M32.9,85.2c-1.7,0-3.1,1.4-3.1,3.1c0,1.7,1.4,3.1,3.1,3.1c1.7,0,3.1-1.4,3.1-3.1"/>
</svg>
