<?xml version="1.0" encoding="utf-8"?>
<!-- Generator: Adobe Illustrator 22.0.1, SVG Export Plug-In . SVG Version: 6.00 Build 0)  -->
<svg version="1.1" id="Слой_1" xmlns="http://www.w3.org/2000/svg" xmlns:xlink="http://www.w3.org/1999/xlink" x="0px" y="0px"
	 viewBox="0 0 155.9 155.9" style="enable-background:new 0 0 155.9 155.9;" xml:space="preserve">

<circle class="st0" cx="57.3" cy="118.6" r="7.9"/>
<circle class="st0" cx="57.3" cy="118.6" r="2.3"/>
<circle class="st0" cx="120.1" cy="118.6" r="7.9"/>
<circle class="st0" cx="120.1" cy="118.6" r="2.3"/>
<circle class="st0" cx="39.1" cy="118.6" r="7.9"/>
<circle class="st0" cx="39.1" cy="118.6" r="2.3"/>
<path class="st0" d="M31.3,118.6h-5.5c-1.7,0-3.1-1.4-3.1-3.1v-4.7"/>
<line class="st0" x1="112.2" y1="118.6" x2="65.2" y2="118.6"/>
<path class="st0" d="M112.2,110.7V74.5h17.3c0.8,0,1.4,0.6,1.5,1.3c0.3,2.8,1.6,9.9,6.8,18.5c0.7,1.1,1.5,2.3,2.3,3.5
	c0.2,0.3,0.3,0.6,0.3,1l0,16.2c0,0.7-0.6,1.2-1.2,1.2H128"/>
<path class="st0" d="M137.9,94.4h-16.4c-0.8,0-1.4-0.6-1.4-1.4v-9.1c0-0.7,0.5-1.2,1.2-1.2h10.9"/>
<line class="st0" x1="140.5" y1="104.6" x2="135.7" y2="104.6"/>
<path class="st0" d="M119.8,110.7h-7.6h-3.9H65.8c-0.2,0-0.3,0-0.4-0.1l-4-1.4c-2.6-0.7-5.3-0.7-7.9-0.1l-4.5,1.3
	c-0.4,0.1-0.9,0.1-1.3,0l-3.9-1.3c-3.2-0.9-6.4-0.8-8.9,0.2l-3.2,1.2c-0.1,0-0.3,0.1-0.4,0.1H20.2c-2,0-3.7-1.7-3.7-3.7L24.7,75
	h83.1"/>
<polyline class="st0" points="118.6,69.2 108.9,69.2 100.8,110.7 "/>
<line class="st0" x1="24" y1="101.7" x2="88.7" y2="101.7"/>
</svg>
