<?xml version="1.0" encoding="utf-8"?>
<!-- Generator: Adobe Illustrator 22.0.1, SVG Export Plug-In . SVG Version: 6.00 Build 0)  -->
<svg version="1.1" id="Слой_1" xmlns="http://www.w3.org/2000/svg" xmlns:xlink="http://www.w3.org/1999/xlink" x="0px" y="0px"
	 viewBox="0 0 155.9 155.9" style="enable-background:new 0 0 155.9 155.9;" xml:space="preserve">

<circle class="st0" cx="41.5" cy="119.3" r="7.2"/>
<circle class="st0" cx="41.5" cy="119.3" r="2.1"/>
<circle class="st0" cx="58.2" cy="119.3" r="7.2"/>
<circle class="st0" cx="58.2" cy="119.3" r="2.1"/>
<circle class="st0" cx="24.8" cy="119.3" r="7.2"/>
<circle class="st0" cx="24.8" cy="119.3" r="2.1"/>
<path class="st0" d="M16.3,112.1h-5.7c-1.9,0-3.4-1.5-3.4-3.4V108h115"/>
<path class="st0" d="M13.9,112.1h3.3c0.2,0,0.5,0,0.7-0.1l4-1.5c1.5-0.5,4.4-0.5,5.9-0.1l5,1.6c0.4,0.1,0.9,0.1,1.3,0l4.6-1.5
	c1.4-0.4,4.2-0.4,5.6,0l5.2,1.6c0.4,0.1,0.8,0.1,1.2,0l4.6-1.5c1.4-0.4,4.5-0.4,5.9,0.1l4.5,1.6l63.8,0"/>
<path class="st0" d="M17.5,119.3h-1.7c-1.6,0-2.9-1.3-2.9-2.9v-4.3"/>
<polyline class="st0" points="75.1,112.1 75.1,119.3 65.4,119.3 "/>
<path class="st0" d="M136.8,74.7"/>
<circle class="st0" cx="129.5" cy="119.3" r="7.2"/>
<circle class="st0" cx="129.5" cy="119.3" r="2.1"/>
<path class="st0" d="M122.2,112.1V78.8h15.9c0.7,0,1.3,0.5,1.4,1.2c0.3,2.6,1.5,9.2,6.3,17c0.6,1,1.3,2.1,2.1,3.2
	c0.2,0.3,0.3,0.6,0.3,0.9l0,14.9c0,0.6-0.5,1.1-1.1,1.1h-10.4"/>
<path class="st0" d="M145.8,97.1h-15.1c-0.7,0-1.3-0.6-1.3-1.3v-8.3c0-0.6,0.5-1.1,1.1-1.1h10"/>
<line class="st0" x1="148.2" y1="106.5" x2="143.8" y2="106.5"/>
<polyline class="st0" points="121.6,119.3 116.3,119.3 116.3,112.1 "/>
<line class="st0" x1="7.3" y1="107.6" x2="13.9" y2="76"/>
<ellipse class="st0" cx="64.2" cy="100.2" rx="6.1" ry="5.9"/>
<ellipse class="st0" cx="64.2" cy="100.2" rx="1.8" ry="1.7"/>
<ellipse class="st0" cx="107.7" cy="100.2" rx="6.1" ry="5.9"/>
<ellipse class="st0" cx="107.7" cy="100.2" rx="1.8" ry="1.7"/>
<path class="st0" d="M98.1,89h8.5c1.7,0,3-1.4,3-3v-8.3c0-2-1.6-3.6-3.6-3.6c-8.4,0-16.8,0-25.2,0"/>
<path class="st0" d="M65.9,83.5c1,0,4.5,0.1,9.7,0c1,0,3.7-1.9,4.7-4.8c0.5-1.2,0.4-1.6,0.3-5.5c0-3.3,0.3-6-0.4-6
	c-4.5,0-6.8,0-9.3,0.1c-2.1,0.1-0.8,3.3-2.3,7.3c-0.6,1.6-0.8,1.3-1.6,3.2c-1.1,2.5-1.2,5.3-1.2,8.2c0,1.6,1.3,3,3,3h24"/>
<line class="st0" x1="104.3" y1="79.4" x2="95.3" y2="79.4"/>
<line class="st0" x1="96.8" y1="100.2" x2="74.2" y2="100"/>
<line class="st0" x1="107.5" y1="106.1" x2="64.2" y2="106.1"/>
<line class="st0" x1="101.2" y1="89" x2="101.2" y2="94"/>
<line class="st0" x1="73.3" y1="89" x2="73.3" y2="93.6"/>
<path class="st0" d="M44.5,54.4v-4.6c0-0.9-0.4-1.8-1.1-2.4h0c-0.5-0.4-1.2-0.7-2.1-0.5l0,0c-1,0.1-1.5,0.8-1.9,1.7
	c-0.1,0.1-12.7,45.2-12.7,45.2l-2.3,4c0,0-1.7,2.9,0,5.1c1.7,2.1,5.7,3.5,5.7,3.5h11.9"/>
<path class="st0" d="M69.7,69.1c0,0-1.3-3.8-4.8-4.5C61.3,63.8,52.5,62,52.5,62"/>
<polyline class="st0" points="44,60.1 32.6,93.9 26.7,93.9 "/>
<line class="st0" x1="38.7" y1="106.5" x2="33" y2="92.9"/>
<path class="st0" d="M47.6,60.8l-4.7-1c-0.2-0.1-1.5-0.5-1.8-0.6c-0.9-0.5-2.9-4.9,2.8-4.6l0.2,0l26.2,4.6c1.6,0.3,2.9,1.3,3.6,2.7
	l2.6,5.3"/>
<line class="st0" x1="107.5" y1="94.3" x2="64.2" y2="94.3"/>
</svg>
