<?xml version="1.0" encoding="utf-8"?>
<!-- Generator: Adobe Illustrator 22.0.1, SVG Export Plug-In . SVG Version: 6.00 Build 0)  -->
<svg version="1.1" id="Слой_1" xmlns="http://www.w3.org/2000/svg" xmlns:xlink="http://www.w3.org/1999/xlink" x="0px" y="0px"
	 viewBox="0 0 155.9 155.9" style="enable-background:new 0 0 155.9 155.9;" xml:space="preserve">
<style type="text/css">
	.st0{fill:none;stroke:#000000;stroke-width:2;stroke-miterlimit:10;}
</style>
<ellipse class="st0" cx="87.6" cy="119.1" rx="7.7" ry="7.5"/>
<ellipse class="st0" cx="87.6" cy="119.1" rx="2.2" ry="2.2"/>
<ellipse class="st0" cx="32.5" cy="119.1" rx="7.7" ry="7.5"/>
<ellipse class="st0" cx="32.5" cy="119.1" rx="2.2" ry="2.2"/>
<path class="st0" d="M44.7,104.8H33.8c-2.1,0-3.8-1.7-3.8-3.8V90.4c0-2.5,2.1-4.6,4.6-4.6c10.7,0,21.3,0,32,0"/>
<path class="st0" d="M44.7,104.8"/>
<path class="st0" d="M51.3,104.8"/>
<path class="st0" d="M85.4,97.9c-1.3,0-5.7,0.1-12.3,0c-1.3,0-4.7-2.5-6-6.1c-0.6-1.6-0.5-2-0.4-7c0.1-4.1-0.4-7.6,0.5-7.6
	c5.7,0,8.7,0,11.8,0.1c2.6,0.1,1,4.2,2.9,9.3c0.8,2,1,1.7,2.1,4.1c1.4,3.2,1.5,6.7,1.5,10.4c0,2.1-1.7,3.8-3.8,3.8H51.3"/>
<line class="st0" x1="36.8" y1="92.7" x2="48.3" y2="92.7"/>
<line class="st0" x1="46.3" y1="119.1" x2="75" y2="118.9"/>
<line class="st0" x1="32.7" y1="126.5" x2="87.6" y2="126.5"/>
<line class="st0" x1="40.8" y1="104.8" x2="40.8" y2="111.3"/>
<line class="st0" x1="76.1" y1="104.8" x2="76.1" y2="110.8"/>
<path class="st0" d="M70.5,77.2l2.3-10c0.5-2,1.8-3.6,3.7-4.4l31-13.2v-5.8c0-1.2,0.5-2.2,1.4-3v0c0.6-0.5,1.5-0.9,2.7-0.6l0,0
	c1.3,0.2,1.9,1,2.4,2.2c0.1,0.2,16.1,57.4,16.1,57.4l2.9,5.1c0,0,2.1,3.7,0,6.4c-2.1,2.7-7.3,4.5-7.3,4.5h-15.1"/>
<path class="st0" d="M79.8,77.2c0,0,0.8-7.5,5.1-9.2s14.4-6.7,14.4-6.7"/>
<polyline class="st0" points="108.2,56.8 122.6,99.8 130.1,99.7 "/>
<line class="st0" x1="114.8" y1="115.7" x2="122.2" y2="98.5"/>
<path class="st0" d="M105.1,58.3l5.5-2.6c0.3-0.1,1.7-1,2-1.3c0.9-0.9,2.2-6.9-4.8-4.9"/>
<line class="st0" x1="32.8" y1="111.6" x2="87.6" y2="111.6"/>
</svg>
