<svg id="eQ2RX41xd8s1" xmlns="http://www.w3.org/2000/svg" xmlns:xlink="http://www.w3.org/1999/xlink" viewBox="0 0 112 89" shape-rendering="geometricPrecision" text-rendering="geometricPrecision">
<style><![CDATA[
#eQ2RX41xd8s27_tr {animation: eQ2RX41xd8s27_tr__tr 700ms linear 1 normal forwards}@keyframes eQ2RX41xd8s27_tr__tr { 0% {transform: translate(103px,80.042702px) rotate(-0.434344deg)} 28.571429% {transform: translate(103px,80.042702px) rotate(21.088547deg)} 57.142857% {transform: translate(103px,80.042702px) rotate(55.201427deg)} 85.714286% {transform: translate(103px,80.042702px) rotate(78.241825deg)} 100% {transform: translate(103px,80.042702px) rotate(78.241825deg)}}
]]></style>
<path d="M48.1,87.6001c4.2526,0,7.7-3.3579,7.7-7.5s-3.4474-7.5-7.7-7.5-7.7,3.3579-7.7,7.5s3.4474,7.5,7.7,7.5Z" fill="none" stroke="#ea8300" stroke-width="2" stroke-miterlimit="10"/><path d="M48.1,82.2999c1.215,0,2.2-.985,2.2-2.2s-.985-2.2-2.2-2.2-2.2.985-2.2,2.2.985,2.2,2.2,2.2Z" fill="none" stroke="#ea8300" stroke-width="2" stroke-miterlimit="10"/><path d="M103.2,87.6001c4.253,0,7.7-3.3579,7.7-7.5s-3.447-7.5-7.7-7.5c-4.2526,0-7.7,3.3579-7.7,7.5s3.4474,7.5,7.7,7.5Z" transform="matrix(.965144-.261718 0.261718 0.965144-17.366517 29.801186)" fill="none" stroke="#ea8300" stroke-width="2" stroke-miterlimit="10"/><path d="M103.2,82.2999c1.215,0,2.2-.985,2.2-2.2s-.985-2.2-2.2-2.2-2.2.985-2.2,2.2.985,2.2,2.2,2.2Z" fill="none" stroke="#ea8300" stroke-width="2" stroke-miterlimit="10"/><path d="M69.1,46.8c10.7,0,21.3,0,32,0c2.5,0,4.6,2.1,4.6,4.6v10.6c0,2.1-1.7,3.8-3.8,3.8l-8,.1" fill="none" stroke="#000" stroke-width="2" stroke-miterlimit="10"/><path d="M60.7,65.9h-6.7c-2.1,0-3.8-1.7-3.8-3.8c0-3.7.1-7.2,1.5-10.4c1.1-2.4,1.3-2.1,2.1-4.1c1.9-5.1.3-9.2,2.9-9.3c3.1-.1,6.1-.1,11.8-.1.9,0,.4,3.5.5,7.6.1,5,.2,5.4-.4,7-1.3,3.6-4.7,6.1-6,6.1-6.6.1-11,0-12.3,0" fill="none" stroke="#000" stroke-width="2" stroke-miterlimit="10"/><path d="M55.8,80.1001h39.7" fill="none" stroke="#000" stroke-width="2" stroke-miterlimit="10"/><path d="M48.1,88h54.9" fill="none" stroke="#000" stroke-width="2" stroke-miterlimit="10"/><path d="M94.9,72.3v-6.5" fill="none" stroke="#000" stroke-width="2" stroke-miterlimit="10"/><path d="M59.6,71.8v-6" fill="none" stroke="#000" stroke-width="2" stroke-miterlimit="10"/><path d="M25.1,76.8h-15.1c0,0-5.2-1.8-7.3-4.5s0-6.4,0-6.4l2.9-5.1c0,0,16-57.19998,16.1-57.39998.5-1.2,1.1-2,2.4-2.2c1.2-.300003,2.1.1,2.7.6.9.8,1.4,1.8,1.4,3v5.79998l31,13.2c1.9.8,3.2,2.4,3.7,4.4l2.3,10" fill="none" stroke="#000" stroke-width="2" stroke-miterlimit="10"/><path d="M30.6,19.3c0,0,15.9,8,20.2,9.7s5.1,9.2,5.1,9.2" fill="none" stroke="#000" stroke-width="2" stroke-miterlimit="10"/><path d="M5.59998,60.7L13.1,60.8001L27.5,17.8" fill="none" stroke="#000" stroke-width="2" stroke-miterlimit="10"/><path d="M13.5,59.5l7.4,17.2" fill="none" stroke="#000" stroke-width="2" stroke-miterlimit="10"/><path d="M27.9,10.5001c-7-2.00004-5.7,4-4.8,4.9.3.3,1.7,1.2,2,1.3l5.5,2.6" fill="none" stroke="#000" stroke-width="2" stroke-miterlimit="10"/><path d="M48.1,72.6001h54.8" fill="none" stroke="#000" stroke-width="2" stroke-miterlimit="10"/><path d="M81.4203,60.4943l-.1193,3.0682h-1.0909v-2.0625h-.6136v-1.0057h1.8238ZM74.0055,61.5v-8.7273h1.0057v7.7557h4.5v-7.7557h1.0057v8.7273h-6.5114Zm9.0118-8.7273h1.2613l2.9659,7.2443h.1023l2.9659-7.2443h1.2614v8.7273h-.9887v-6.6307h-.0852L87.7729,61.5h-.9545l-2.7273-6.6307h-.0852v6.6307h-.9886v-8.7273Zm10.6757,0h1.2614l2.9659,7.2443h.1023l2.9664-7.2443h1.261v8.7273h-.989v-6.6307h-.085L98.4487,61.5h-.9545l-2.7273-6.6307h-.0852v6.6307h-.9887v-8.7273Z"/><path d="M41,80v.0854" fill="none" stroke="#000" stroke-width="3" stroke-linecap="round"/><path d="M48,73v.0854" fill="none" stroke="#000" stroke-width="3" stroke-linecap="round"/><path d="M48,87v.0854" fill="none" stroke="#000" stroke-width="3" stroke-linecap="round"/><path d="M55,80v.0854" fill="none" stroke="#000" stroke-width="3" stroke-linecap="round"/><path d="M53,75v.0854" fill="none" stroke="#000" stroke-width="3" stroke-linecap="round"/><path d="M43,75v.0854" fill="none" stroke="#000" stroke-width="3" stroke-linecap="round"/><path d="M43,85v.0854" fill="none" stroke="#000" stroke-width="3" stroke-linecap="round"/><path d="M53,85v.0854" fill="none" stroke="#000" stroke-width="3" stroke-linecap="round"/><g id="eQ2RX41xd8s27_tr" transform="translate(103,80.042702) rotate(-0.434344)"><g transform="translate(-103,-80.042701)"><path d="M96,80v.0854" fill="none" stroke="#000" stroke-width="3" stroke-linecap="round"/><path d="M103,73v.0854" fill="none" stroke="#000" stroke-width="3" stroke-linecap="round"/><path d="M103,87v.0854" fill="none" stroke="#000" stroke-width="3" stroke-linecap="round"/><path d="M110,80v.0854" fill="none" stroke="#000" stroke-width="3" stroke-linecap="round"/><path d="M108,75v.0854" fill="none" stroke="#000" stroke-width="3" stroke-linecap="round"/><path d="M98,75v.0854" fill="none" stroke="#000" stroke-width="3" stroke-linecap="round"/><path d="M98,85v.0854" fill="none" stroke="#000" stroke-width="3" stroke-linecap="round"/><path d="M108,85v.0854" fill="none" stroke="#000" stroke-width="3" stroke-linecap="round"/></g></g></svg>
