<svg id="Слой_1" 
data-name="Слой 1"
xmlns="http://www.w3.org/2000/svg" 
viewBox="0 0 550 389">
<defs>
<style>.cls-1,.cls-3{fill:#fff;stroke:#000;stroke-miterlimit:10;}.cls-2{fill:#f7931e;}.cls-3{stroke-width:3px;}.cls-4{fill:none;}</style>
</defs>
<g id="Слой_2" data-name="Слой 2">
<path class="cls-1" d="M1226.5,431.88" transform="translate(-537 -343)"/>
<path class="cls-1" d="M1093.5,617.88" transform="translate(-537 -343)"/>
<path class="cls-1" d="M1141,613.61" transform="translate(-537 -343)"/>
<path class="cls-1" d="M1153,582.61" transform="translate(-537 -343)"/> -->
<path class="cls-2" d="M1026,652.38" transform="translate(-537 -343)"/>
<path class="cls-2" d="M850.27,351.38c-126.83,0-211.5,65.73-211.5,65.73l56.07-1s33.83-35.77,152.73-32.87,183.67,70.57,183.67,144S969.37,691.65,849.5,694.55c-61.06,1.48-96.08-13.73-115.76-29h137l34.8-80.23h-349L545,613.58H854.18l-9.44,22.49H642.63s60.9,92.32,201.07,92.32,234.9-97.63,234.5-203.31S977.1,351.38,850.27,351.38Z" transform="translate(-537 -343)"/>
<path d="M850.27,348.38c-70.31.17-142,20-201.32,58.09-4.19,2.69-8.36,5.47-12.3,8.52-2.12,1.64-.28,5.16,2.12,5.12,18.21-.31,36.47-.25,54.67-.94,2.87-.11,3.89-1.38,6-3.06a84.53,84.53,0,0,1,12.33-7.73c21.28-11.11,45.72-16.27,69.35-19.22,40.56-5.06,83.52-5.33,123.43,4.25,32.14,7.72,63.17,22.44,86.62,46.14,19.54,19.75,32.92,45.44,36.24,73.16,6.83,57.11-25.66,114.67-72,146.38-29.79,20.38-65.23,30.71-101.13,32.29-35.36,1.56-73.76-1.9-105.25-19.41a111.62,111.62,0,0,1-13.73-9l-1.51,5.59h137a2.94,2.94,0,0,0,2.59-1.49l30.36-70,4.44-10.23c.87-2-.11-4.51-2.59-4.51H571c-4.5,0-9.22-.4-13.71,0-.21,0-.42,0-.63,0a3.12,3.12,0,0,0-2.89,2.2l-11.6,28.26c-.76,1.85,1.14,3.8,2.89,3.8h309.2l-2.89-3.8-9.44,22.49,2.89-2.2H642.67c-2.18,0-3.87,2.58-2.59,4.51,4.86,7.34,11,14,17.14,20.27a235.9,235.9,0,0,0,53,40.26c61.54,34.47,138.08,42.13,206,24C979,705.37,1035.74,663.69,1063.57,604c25.6-54.89,24.27-121.38-12.64-170.9C1011.1,379.67,943.41,355,879,349.56c-9.58-.79-19.14-1.16-28.7-1.18-3.86,0-3.87,6,0,6,65.15.14,135.45,18.1,182.1,66.19a150.31,150.31,0,0,1,40.07,75.7c5.67,29.12,2.51,59.78-7.2,87.7-20.8,59.81-71.61,104.95-130.44,126-65.68,23.57-142.88,20.62-206.14-9.15a236.4,236.4,0,0,1-58.68-39,204.58,204.58,0,0,1-16.19-16.47c-2.82-3.23-4.93-6.57-7.65-9.51a10.81,10.81,0,0,1-.94-1.35l-2.59,4.51H844.72a3.12,3.12,0,0,0,2.89-2.2l9.44-22.49c.77-1.84-1.15-3.8-2.89-3.8H545l2.89,3.8,11.6-28.26-2.89,2.2h343.6c1.38,0,3.4.37,4.74,0a2.66,2.66,0,0,1,.63,0l-2.59-4.51-30.36,70L868.14,664l2.59-1.49h-137c-3.25,0-3.72,3.89-1.51,5.59,24.66,19,56.45,26.38,86.93,28.7,39.65,3,80.1-1.75,116.16-19.2,54.13-26.19,94.61-80.77,98.62-141.47a128.79,128.79,0,0,0-20.71-78.81c-17.26-26.38-43.26-45.85-72-58.16-38.11-16.3-79.57-20-120.62-18.9-31.85.85-64.66,4.37-94.75,15.44a131.7,131.7,0,0,0-22.61,10.55c-3.21,1.94-7.29,4.16-9.77,7.05-.09.1-.61.44-.62.59,0-.1,2.91-.29,1.46-.76-3-1-8.07.14-11.14.19l-36.52.63-7.85.14,2.12,5.12c-1.39,1.08,1.55-1.12,2-1.45,2.29-1.64,4.63-3.22,7-4.77,8.6-5.64,17.53-10.79,26.64-15.57a379.63,379.63,0,0,1,96.38-34.8,371.25,371.25,0,0,1,77.37-8.26C854.13,354.37,854.14,348.37,850.27,348.38Z" transform="translate(-537 -343)"/>
<path class="cls-3" d="M1106.5,557.88" transform="translate(-537 -343)"/>
<polygon class="cls-2" points="394.77 93.46 338.96 132.03 317.73 93.46 275.04 93.46 219.23 132.03 198 93.46 160.61 93.46 113.78 193.34 86.74 193.34 134.76 93.46 93.62 93.46 31.27 226.96 131.2 226.96 133.15 226.96 165.86 226.96 181.19 195.81 149 195.81 173.9 146.86 197.5 195.81 243.07 164.66 211.79 226.96 252.52 226.96 293.27 146.86 316.87 195.81 362.44 164.66 331.17 226.96 373.23 226.96 436.17 93.46 394.77 93.46"/>
<path d="M930.26,433.87l-55.81,38.57,4.1,1.08L857.32,435a3,3,0,0,0-2.59-1.49H818.17c-2.09,0-4.87-.5-6.93.11-1.51.45-2.93,1.83-4.19,2.71l-9.56,6.6-26.08,18-16.7,11.54,4.1,1.08L737.58,435a3,3,0,0,0-2.59-1.49H697.6A3,3,0,0,0,695,435l-41,87.51q-2.9,6.18-5.8,12.36l2.59-1.49h-27l2.59,4.51q21-43.67,42-87.34l6-12.54a3,3,0,0,0-2.59-4.51H630.6a2.94,2.94,0,0,0-2.59,1.49L573.43,551.8l-7.77,16.64a3,3,0,0,0,2.59,4.51h134.6a3,3,0,0,0,2.59-1.49q7.66-15.57,15.32-31.15a3,3,0,0,0-2.59-4.51H686l2.59,4.51,24.9-48.95h-5.18l23.6,48.95a3,3,0,0,0,4.1,1.08l45.57-31.15-4.1-4.1-31.27,62.3a3,3,0,0,0,2.59,4.51H789.5a3,3,0,0,0,2.59-1.49l35.61-70,5.14-10.11h-5.18l23.6,48.95a3,3,0,0,0,4.1,1.08l45.57-31.15-4.1-4.1-31.27,62.3a3,3,0,0,0,2.59,4.51h42.06a3,3,0,0,0,2.59-1.49L967.89,454.6,975.74,438a3,3,0,0,0-2.59-4.51H931.76c-3.86,0-3.87,6,0,6h41.39l-2.59-4.51L915.47,551.8l-7.85,16.64,2.59-1.49H868.15l2.59,4.51L902,509.16c1.24-2.47-1.44-5.92-4.1-4.1l-45.57,31.15,4.1,1.08-23.6-48.95a3,3,0,0,0-5.18,0l-35.61,70-5.14,10.11L789.5,567H748.78l2.59,4.51,31.27-62.3c1.24-2.47-1.44-5.92-4.1-4.1L733,536.21l4.1,1.08-23.6-48.95a3,3,0,0,0-5.18,0l-24.9,48.95A3,3,0,0,0,686,541.8h32.19l-2.59-4.51q-7.67,15.57-15.32,31.15l2.59-1.49H568.25l2.59,4.51L625.42,454.6,633.19,438l-2.59,1.49h41.14l-2.59-4.51q-21,43.67-42,87.34l-6,12.54a3,3,0,0,0,2.59,4.51h27a3,3,0,0,0,2.59-1.49l41-87.51q2.9-6.18,5.8-12.36l-2.59,1.49H735L732.4,438l21.23,38.57a3,3,0,0,0,4.1,1.08l39.11-27,10.58-7.31c1.46-1,4.75-2.44,5.73-4,.51-.79-1.43-.13-.66.14s2.45,0,3.36,0h38.86L852.12,438l21.23,38.57a3,3,0,0,0,4.1,1.08l55.81-38.57C936.44,436.87,933.45,431.67,930.26,433.87Z" transform="translate(-537 -343)"/>
</g>
<rect id="_Фрагмент_" data-name="&lt;Фрагмент&gt;" class="cls-4" width="550" height="389"/></svg>